<svg width="825" height="490" viewBox="0 0 825 490" fill="none" xmlns="http://www.w3.org/2000/svg">
<path d="M0 50C0 22.3858 22.3858 0 50 0H775C802.614 0 825 22.3858 825 50V490H0V50Z" fill="url(#paint0_linear_1421_265)"/>
<mask id="mask0_1421_265" style="mask-type:alpha" maskUnits="userSpaceOnUse" x="0" y="0" width="825" height="490">
<path d="M0 50C0 22.3858 22.3858 0 50 0H775C802.614 0 825 22.3858 825 50V490H0V50Z" fill="url(#paint1_linear_1421_265)"/>
</mask>
<g mask="url(#mask0_1421_265)">
<circle cx="766.5" cy="45.5" r="87.5" stroke="white" stroke-opacity="0.13" stroke-width="4"/>
<circle cx="297.5" cy="181.5" r="44.5" stroke="white" stroke-opacity="0.13" stroke-width="4"/>
<circle cx="-15.5" cy="88.5" r="44.5" stroke="white" stroke-opacity="0.13" stroke-width="4"/>
<path d="M591.996 279.997C569.906 263.426 565.432 232.086 582.003 209.996V209.996C598.573 187.906 629.914 183.432 652.004 200.003L692.001 230.007L631.992 310.001L591.996 279.997Z" fill="white" fill-opacity="0.05"/>
<path d="M175.864 289.72L225.187 285.541L233.546 384.187L184.223 388.367C156.983 390.675 133.028 370.464 130.72 343.223C128.412 315.983 148.623 292.029 175.864 289.72Z" stroke="white" stroke-opacity="0.16"/>
<path d="M430.39 68.3073L451.24 66.5404L454.774 108.24L433.924 110.007C422.409 110.982 412.283 102.439 411.307 90.9238C410.331 79.4089 418.875 69.2831 430.39 68.3073Z" stroke="white" stroke-opacity="0.16"/>
<path d="M501.069 370.948C498.265 359.055 505.633 347.14 517.526 344.335V344.335C529.42 341.531 541.335 348.899 544.139 360.793L549.217 382.328L506.146 392.483L501.069 370.948Z" fill="white" fill-opacity="0.05"/>
<path d="M135.88 104.072V149H124.936V130.504H107.912V149H96.968V104.072H107.912V121.672H124.936V104.072H135.88ZM160.037 149.512C156.538 149.512 153.381 148.765 150.565 147.272C147.791 145.779 145.594 143.645 143.973 140.872C142.394 138.099 141.605 134.856 141.605 131.144C141.605 127.475 142.415 124.253 144.036 121.48C145.658 118.664 147.877 116.509 150.693 115.016C153.509 113.523 156.666 112.776 160.165 112.776C163.663 112.776 166.821 113.523 169.637 115.016C172.453 116.509 174.671 118.664 176.293 121.48C177.914 124.253 178.725 127.475 178.725 131.144C178.725 134.813 177.893 138.056 176.229 140.872C174.607 143.645 172.367 145.779 169.509 147.272C166.693 148.765 163.535 149.512 160.037 149.512ZM160.037 140.04C162.127 140.04 163.898 139.272 165.349 137.736C166.842 136.2 167.589 134.003 167.589 131.144C167.589 128.285 166.863 126.088 165.413 124.552C164.005 123.016 162.255 122.248 160.165 122.248C158.031 122.248 156.261 123.016 154.853 124.552C153.445 126.045 152.741 128.243 152.741 131.144C152.741 134.003 153.423 136.2 154.789 137.736C156.197 139.272 157.946 140.04 160.037 140.04ZM235.795 113.288L226.131 149H214.035L208.403 125.832L202.579 149H190.547L180.819 113.288H191.763L196.819 138.824L202.835 113.288H214.419L220.499 138.696L225.491 113.288H235.795ZM273.435 139.72V149H267.867C263.899 149 260.805 148.04 258.587 146.12C256.368 144.157 255.259 140.979 255.259 136.584V122.376H250.907V113.288H255.259V104.584H266.203V113.288H273.371V122.376H266.203V136.712C266.203 137.779 266.459 138.547 266.971 139.016C267.483 139.485 268.336 139.72 269.531 139.72H273.435ZM295.787 149.512C292.288 149.512 289.131 148.765 286.315 147.272C283.541 145.779 281.344 143.645 279.723 140.872C278.144 138.099 277.355 134.856 277.355 131.144C277.355 127.475 278.165 124.253 279.786 121.48C281.408 118.664 283.627 116.509 286.443 115.016C289.259 113.523 292.416 112.776 295.915 112.776C299.413 112.776 302.571 113.523 305.387 115.016C308.203 116.509 310.421 118.664 312.043 121.48C313.664 124.253 314.475 127.475 314.475 131.144C314.475 134.813 313.643 138.056 311.979 140.872C310.357 143.645 308.117 145.779 305.259 147.272C302.443 148.765 299.285 149.512 295.787 149.512ZM295.787 140.04C297.877 140.04 299.648 139.272 301.099 137.736C302.592 136.2 303.339 134.003 303.339 131.144C303.339 128.285 302.613 126.088 301.163 124.552C299.755 123.016 298.005 122.248 295.915 122.248C293.781 122.248 292.011 123.016 290.603 124.552C289.195 126.045 288.491 128.243 288.491 131.144C288.491 134.003 289.173 136.2 290.539 137.736C291.947 139.272 293.696 140.04 295.787 140.04ZM344.787 104.072V149H333.843V104.072H344.787ZM374.478 112.904C378.659 112.904 381.987 114.269 384.462 117C386.979 119.688 388.238 123.4 388.238 128.136V149H377.358V129.608C377.358 127.219 376.739 125.363 375.502 124.04C374.265 122.717 372.601 122.056 370.51 122.056C368.419 122.056 366.755 122.717 365.518 124.04C364.281 125.363 363.662 127.219 363.662 129.608V149H352.718V113.288H363.662V118.024C364.771 116.445 366.265 115.208 368.142 114.312C370.019 113.373 372.131 112.904 374.478 112.904ZM411.907 138.76L419.651 113.288H431.299L418.627 149H405.123L392.451 113.288H404.163L411.907 138.76ZM469.569 130.568C469.569 131.592 469.506 132.659 469.378 133.768H444.61C444.78 135.987 445.484 137.693 446.722 138.888C448.002 140.04 449.559 140.616 451.394 140.616C454.124 140.616 456.023 139.464 457.09 137.16H468.738C468.14 139.507 467.052 141.619 465.474 143.496C463.938 145.373 461.996 146.845 459.65 147.912C457.303 148.979 454.679 149.512 451.778 149.512C448.279 149.512 445.164 148.765 442.434 147.272C439.703 145.779 437.57 143.645 436.034 140.872C434.498 138.099 433.73 134.856 433.73 131.144C433.73 127.432 434.476 124.189 435.97 121.416C437.506 118.643 439.639 116.509 442.37 115.016C445.1 113.523 448.236 112.776 451.778 112.776C455.234 112.776 458.306 113.501 460.994 114.952C463.682 116.403 465.772 118.472 467.266 121.16C468.802 123.848 469.569 126.984 469.569 130.568ZM458.37 127.688C458.37 125.811 457.73 124.317 456.45 123.208C455.17 122.099 453.57 121.544 451.65 121.544C449.815 121.544 448.258 122.077 446.978 123.144C445.74 124.211 444.972 125.725 444.674 127.688H458.37ZM489.871 149.512C486.756 149.512 483.983 148.979 481.551 147.912C479.119 146.845 477.199 145.395 475.791 143.56C474.383 141.683 473.594 139.592 473.423 137.288H484.239C484.367 138.525 484.943 139.528 485.967 140.296C486.991 141.064 488.25 141.448 489.743 141.448C491.108 141.448 492.154 141.192 492.879 140.68C493.647 140.125 494.031 139.421 494.031 138.568C494.031 137.544 493.498 136.797 492.431 136.328C491.364 135.816 489.636 135.261 487.247 134.664C484.687 134.067 482.554 133.448 480.847 132.808C479.14 132.125 477.668 131.08 476.431 129.672C475.194 128.221 474.575 126.28 474.575 123.848C474.575 121.8 475.13 119.944 476.239 118.28C477.391 116.573 479.055 115.229 481.231 114.248C483.45 113.267 486.074 112.776 489.103 112.776C493.583 112.776 497.103 113.885 499.663 116.104C502.266 118.323 503.759 121.267 504.143 124.936H494.031C493.86 123.699 493.306 122.717 492.367 121.992C491.471 121.267 490.276 120.904 488.783 120.904C487.503 120.904 486.522 121.16 485.839 121.672C485.156 122.141 484.815 122.803 484.815 123.656C484.815 124.68 485.348 125.448 486.415 125.96C487.524 126.472 489.231 126.984 491.535 127.496C494.18 128.179 496.335 128.861 497.999 129.544C499.663 130.184 501.114 131.251 502.351 132.744C503.631 134.195 504.292 136.157 504.335 138.632C504.335 140.723 503.738 142.6 502.543 144.264C501.391 145.885 499.706 147.165 497.487 148.104C495.311 149.043 492.772 149.512 489.871 149.512ZM530.935 139.72V149H525.367C521.399 149 518.305 148.04 516.087 146.12C513.868 144.157 512.759 140.979 512.759 136.584V122.376H508.407V113.288H512.759V104.584H523.703V113.288H530.871V122.376H523.703V136.712C523.703 137.779 523.959 138.547 524.471 139.016C524.983 139.485 525.836 139.72 527.031 139.72H530.935ZM542.151 149.512C540.231 149.512 538.652 148.957 537.415 147.848C536.22 146.696 535.623 145.288 535.623 143.624C535.623 141.917 536.22 140.488 537.415 139.336C538.652 138.184 540.231 137.608 542.151 137.608C544.028 137.608 545.564 138.184 546.759 139.336C547.996 140.488 548.615 141.917 548.615 143.624C548.615 145.288 547.996 146.696 546.759 147.848C545.564 148.957 544.028 149.512 542.151 149.512ZM542.151 123.464C540.231 123.464 538.652 122.909 537.415 121.8C536.22 120.648 535.623 119.24 535.623 117.576C535.623 115.869 536.22 114.44 537.415 113.288C538.652 112.136 540.231 111.56 542.151 111.56C544.028 111.56 545.564 112.136 546.759 113.288C547.996 114.44 548.615 115.869 548.615 117.576C548.615 119.24 547.996 120.648 546.759 121.8C545.564 122.909 544.028 123.464 542.151 123.464ZM128.968 252.68L123.208 244.936C121.501 245.277 119.837 245.448 118.216 245.448C113.992 245.448 110.109 244.467 106.568 242.504C103.069 240.541 100.275 237.811 98.184 234.312C96.136 230.771 95.112 226.803 95.112 222.408C95.112 218.013 96.136 214.067 98.184 210.568C100.275 207.069 103.069 204.339 106.568 202.376C110.109 200.413 113.992 199.432 118.216 199.432C122.44 199.432 126.301 200.413 129.8 202.376C133.341 204.339 136.115 207.069 138.12 210.568C140.168 214.067 141.192 218.013 141.192 222.408C141.192 226.248 140.403 229.768 138.824 232.968C137.288 236.125 135.133 238.749 132.36 240.84L142.216 252.68H128.968ZM106.312 222.408C106.312 226.376 107.379 229.555 109.512 231.944C111.688 234.291 114.589 235.464 118.216 235.464C121.8 235.464 124.659 234.269 126.792 231.88C128.968 229.491 130.056 226.333 130.056 222.408C130.056 218.44 128.968 215.283 126.792 212.936C124.659 210.547 121.8 209.352 118.216 209.352C114.589 209.352 111.688 210.525 109.512 212.872C107.379 215.219 106.312 218.397 106.312 222.408ZM182.67 209.288V245H171.726V240.136C170.616 241.715 169.102 242.995 167.182 243.976C165.304 244.915 163.214 245.384 160.91 245.384C158.179 245.384 155.768 244.787 153.678 243.592C151.587 242.355 149.966 240.584 148.814 238.28C147.662 235.976 147.086 233.267 147.086 230.152V209.288H157.966V228.68C157.966 231.069 158.584 232.925 159.822 234.248C161.059 235.571 162.723 236.232 164.814 236.232C166.947 236.232 168.632 235.571 169.87 234.248C171.107 232.925 171.726 231.069 171.726 228.68V209.288H182.67ZM196.035 205.576C194.115 205.576 192.536 205.021 191.299 203.912C190.104 202.76 189.507 201.352 189.507 199.688C189.507 197.981 190.104 196.573 191.299 195.464C192.536 194.312 194.115 193.736 196.035 193.736C197.912 193.736 199.448 194.312 200.643 195.464C201.88 196.573 202.499 197.981 202.499 199.688C202.499 201.352 201.88 202.76 200.643 203.912C199.448 205.021 197.912 205.576 196.035 205.576ZM201.475 209.288V245H190.531V209.288H201.475ZM207.23 227.144C207.23 223.432 207.976 220.189 209.47 217.416C211.006 214.643 213.118 212.509 215.806 211.016C218.536 209.523 221.651 208.776 225.15 208.776C229.63 208.776 233.363 209.949 236.35 212.296C239.379 214.643 241.363 217.949 242.302 222.216H230.654C229.672 219.485 227.774 218.12 224.958 218.12C222.952 218.12 221.352 218.909 220.158 220.488C218.963 222.024 218.366 224.243 218.366 227.144C218.366 230.045 218.963 232.285 220.158 233.864C221.352 235.4 222.952 236.168 224.958 236.168C227.774 236.168 229.672 234.803 230.654 232.072H242.302C241.363 236.253 239.379 239.539 236.35 241.928C233.32 244.317 229.587 245.512 225.15 245.512C221.651 245.512 218.536 244.765 215.806 243.272C213.118 241.779 211.006 239.645 209.47 236.872C207.976 234.099 207.23 230.856 207.23 227.144ZM269.98 245L259.1 230.024V245H248.156V197.64H259.1V223.816L269.916 209.288H283.42L268.572 227.208L283.548 245H269.98ZM315.238 217.992V227.08H287.078V217.992H315.238ZM341.099 245.448C337.814 245.448 334.87 244.915 332.267 243.848C329.664 242.781 327.574 241.203 325.995 239.112C324.459 237.021 323.648 234.504 323.563 231.56H335.211C335.382 233.224 335.958 234.504 336.939 235.4C337.92 236.253 339.2 236.68 340.779 236.68C342.4 236.68 343.68 236.317 344.619 235.592C345.558 234.824 346.027 233.779 346.027 232.456C346.027 231.347 345.643 230.429 344.875 229.704C344.15 228.979 343.232 228.381 342.123 227.912C341.056 227.443 339.52 226.909 337.515 226.312C334.614 225.416 332.246 224.52 330.411 223.624C328.576 222.728 326.998 221.405 325.675 219.656C324.352 217.907 323.691 215.624 323.691 212.808C323.691 208.627 325.206 205.363 328.235 203.016C331.264 200.627 335.211 199.432 340.075 199.432C345.024 199.432 349.014 200.627 352.043 203.016C355.072 205.363 356.694 208.648 356.907 212.872H345.067C344.982 211.421 344.448 210.291 343.467 209.48C342.486 208.627 341.227 208.2 339.691 208.2C338.368 208.2 337.302 208.563 336.491 209.288C335.68 209.971 335.275 210.973 335.275 212.296C335.275 213.747 335.958 214.877 337.323 215.688C338.688 216.499 340.822 217.373 343.723 218.312C346.624 219.293 348.971 220.232 350.763 221.128C352.598 222.024 354.176 223.325 355.499 225.032C356.822 226.739 357.483 228.936 357.483 231.624C357.483 234.184 356.822 236.509 355.499 238.6C354.219 240.691 352.342 242.355 349.867 243.592C347.392 244.829 344.47 245.448 341.099 245.448ZM384.122 235.72V245H378.554C374.586 245 371.493 244.04 369.274 242.12C367.055 240.157 365.946 236.979 365.946 232.584V218.376H361.594V209.288H365.946V200.584H376.89V209.288H384.058V218.376H376.89V232.712C376.89 233.779 377.146 234.547 377.658 235.016C378.17 235.485 379.023 235.72 380.218 235.72H384.122ZM388.042 227.08C388.042 223.411 388.725 220.189 390.09 217.416C391.498 214.643 393.397 212.509 395.786 211.016C398.175 209.523 400.842 208.776 403.786 208.776C406.303 208.776 408.501 209.288 410.378 210.312C412.298 211.336 413.77 212.68 414.794 214.344V209.288H425.738V245H414.794V239.944C413.727 241.608 412.234 242.952 410.314 243.976C408.437 245 406.239 245.512 403.722 245.512C400.821 245.512 398.175 244.765 395.786 243.272C393.397 241.736 391.498 239.581 390.09 236.808C388.725 233.992 388.042 230.749 388.042 227.08ZM414.794 227.144C414.794 224.413 414.026 222.259 412.49 220.68C410.997 219.101 409.162 218.312 406.986 218.312C404.81 218.312 402.954 219.101 401.418 220.68C399.925 222.216 399.178 224.349 399.178 227.08C399.178 229.811 399.925 231.987 401.418 233.608C402.954 235.187 404.81 235.976 406.986 235.976C409.162 235.976 410.997 235.187 412.49 233.608C414.026 232.029 414.794 229.875 414.794 227.144ZM444.6 215.24C445.88 213.277 447.48 211.741 449.4 210.632C451.32 209.48 453.453 208.904 455.8 208.904V220.488H452.792C450.061 220.488 448.013 221.085 446.648 222.28C445.282 223.432 444.6 225.48 444.6 228.424V245H433.656V209.288H444.6V215.24ZM480.935 235.72V245H475.367C471.399 245 468.305 244.04 466.087 242.12C463.868 240.157 462.759 236.979 462.759 232.584V218.376H458.407V209.288H462.759V200.584H473.703V209.288H480.871V218.376H473.703V232.712C473.703 233.779 473.959 234.547 474.471 235.016C474.983 235.485 475.836 235.72 477.031 235.72H480.935ZM530.417 214.28C529.606 212.787 528.433 211.656 526.897 210.888C525.404 210.077 523.633 209.672 521.585 209.672C518.044 209.672 515.206 210.845 513.073 213.192C510.94 215.496 509.873 218.589 509.873 222.472C509.873 226.611 510.982 229.853 513.201 232.2C515.462 234.504 518.556 235.656 522.481 235.656C525.169 235.656 527.43 234.973 529.265 233.608C531.142 232.243 532.508 230.28 533.361 227.72H519.473V219.656H543.281V229.832C542.47 232.563 541.084 235.101 539.121 237.448C537.201 239.795 534.748 241.693 531.761 243.144C528.774 244.595 525.404 245.32 521.649 245.32C517.212 245.32 513.244 244.36 509.745 242.44C506.289 240.477 503.58 237.768 501.617 234.312C499.697 230.856 498.737 226.909 498.737 222.472C498.737 218.035 499.697 214.088 501.617 210.632C503.58 207.133 506.289 204.424 509.745 202.504C513.201 200.541 517.148 199.56 521.585 199.56C526.961 199.56 531.484 200.861 535.153 203.464C538.865 206.067 541.318 209.672 542.513 214.28H530.417ZM584.607 209.288V245H573.663V240.136C572.554 241.715 571.039 242.995 569.119 243.976C567.242 244.915 565.151 245.384 562.847 245.384C560.116 245.384 557.706 244.787 555.615 243.592C553.524 242.355 551.903 240.584 550.751 238.28C549.599 235.976 549.023 233.267 549.023 230.152V209.288H559.903V228.68C559.903 231.069 560.522 232.925 561.759 234.248C562.996 235.571 564.66 236.232 566.751 236.232C568.884 236.232 570.57 235.571 571.807 234.248C573.044 232.925 573.663 231.069 573.663 228.68V209.288H584.607ZM597.972 205.576C596.052 205.576 594.473 205.021 593.236 203.912C592.041 202.76 591.444 201.352 591.444 199.688C591.444 197.981 592.041 196.573 593.236 195.464C594.473 194.312 596.052 193.736 597.972 193.736C599.849 193.736 601.385 194.312 602.58 195.464C603.817 196.573 604.436 197.981 604.436 199.688C604.436 201.352 603.817 202.76 602.58 203.912C601.385 205.021 599.849 205.576 597.972 205.576ZM603.412 209.288V245H592.468V209.288H603.412ZM609.167 227.08C609.167 223.411 609.85 220.189 611.215 217.416C612.623 214.643 614.522 212.509 616.911 211.016C619.3 209.523 621.967 208.776 624.911 208.776C627.258 208.776 629.391 209.267 631.311 210.248C633.274 211.229 634.81 212.552 635.919 214.216V197.64H646.863V245H635.919V239.88C634.895 241.587 633.423 242.952 631.503 243.976C629.626 245 627.428 245.512 624.911 245.512C621.967 245.512 619.3 244.765 616.911 243.272C614.522 241.736 612.623 239.581 611.215 236.808C609.85 233.992 609.167 230.749 609.167 227.08ZM635.919 227.144C635.919 224.413 635.151 222.259 633.615 220.68C632.122 219.101 630.287 218.312 628.111 218.312C625.935 218.312 624.079 219.101 622.543 220.68C621.05 222.216 620.303 224.349 620.303 227.08C620.303 229.811 621.05 231.987 622.543 233.608C624.079 235.187 625.935 235.976 628.111 235.976C630.287 235.976 632.122 235.187 633.615 233.608C635.151 232.029 635.919 229.875 635.919 227.144ZM688.444 226.568C688.444 227.592 688.381 228.659 688.253 229.768H663.485C663.655 231.987 664.359 233.693 665.597 234.888C666.877 236.04 668.434 236.616 670.269 236.616C672.999 236.616 674.898 235.464 675.965 233.16H687.613C687.015 235.507 685.927 237.619 684.349 239.496C682.813 241.373 680.871 242.845 678.525 243.912C676.178 244.979 673.554 245.512 670.653 245.512C667.154 245.512 664.039 244.765 661.309 243.272C658.578 241.779 656.445 239.645 654.909 236.872C653.373 234.099 652.605 230.856 652.605 227.144C652.605 223.432 653.351 220.189 654.845 217.416C656.381 214.643 658.514 212.509 661.245 211.016C663.975 209.523 667.111 208.776 670.653 208.776C674.109 208.776 677.181 209.501 679.869 210.952C682.557 212.403 684.647 214.472 686.141 217.16C687.677 219.848 688.444 222.984 688.444 226.568ZM677.245 223.688C677.245 221.811 676.605 220.317 675.325 219.208C674.045 218.099 672.445 217.544 670.525 217.544C668.69 217.544 667.133 218.077 665.853 219.144C664.615 220.211 663.847 221.725 663.549 223.688H677.245ZM699.338 245.512C697.418 245.512 695.839 244.957 694.602 243.848C693.407 242.696 692.81 241.288 692.81 239.624C692.81 237.917 693.407 236.488 694.602 235.336C695.839 234.184 697.418 233.608 699.338 233.608C701.215 233.608 702.751 234.184 703.946 235.336C705.183 236.488 705.802 237.917 705.802 239.624C705.802 241.288 705.183 242.696 703.946 243.848C702.751 244.957 701.215 245.512 699.338 245.512ZM717.401 245.512C715.481 245.512 713.902 244.957 712.665 243.848C711.47 242.696 710.873 241.288 710.873 239.624C710.873 237.917 711.47 236.488 712.665 235.336C713.902 234.184 715.481 233.608 717.401 233.608C719.278 233.608 720.814 234.184 722.009 235.336C723.246 236.488 723.865 237.917 723.865 239.624C723.865 241.288 723.246 242.696 722.009 243.848C720.814 244.957 719.278 245.512 717.401 245.512ZM735.463 245.512C733.543 245.512 731.964 244.957 730.727 243.848C729.532 242.696 728.935 241.288 728.935 239.624C728.935 237.917 729.532 236.488 730.727 235.336C731.964 234.184 733.543 233.608 735.463 233.608C737.34 233.608 738.876 234.184 740.071 235.336C741.308 236.488 741.927 237.917 741.927 239.624C741.927 241.288 741.308 242.696 740.071 243.848C738.876 244.957 737.34 245.512 735.463 245.512Z" fill="white"/>
<path d="M123.192 314.92L121.368 323.56H127.992V327.4H120.552L118.488 337H114.312L116.376 327.4H106.296L104.232 337H100.056L102.12 327.4H94.584V323.56H102.936L104.76 314.92H97.32V311.08H105.576L107.64 301.48H111.816L109.752 311.08H119.832L121.896 301.48H126.072L124.008 311.08H130.68V314.92H123.192ZM119.016 314.92H108.936L107.112 323.56H117.192L119.016 314.92ZM159.043 313.336C159.043 316.12 158.083 318.44 156.163 320.296C154.275 322.12 151.379 323.032 147.475 323.032H141.043V337H136.675V303.544H147.475C151.251 303.544 154.115 304.456 156.067 306.28C158.051 308.104 159.043 310.456 159.043 313.336ZM147.475 319.432C149.907 319.432 151.699 318.904 152.851 317.848C154.003 316.792 154.579 315.288 154.579 313.336C154.579 309.208 152.211 307.144 147.475 307.144H141.043V319.432H147.475ZM162.507 323.752C162.507 321.064 163.051 318.712 164.139 316.696C165.227 314.648 166.715 313.064 168.603 311.944C170.523 310.824 172.651 310.264 174.987 310.264C177.291 310.264 179.291 310.76 180.987 311.752C182.683 312.744 183.947 313.992 184.779 315.496V310.696H189.195V337H184.779V332.104C183.915 333.64 182.619 334.92 180.891 335.944C179.195 336.936 177.211 337.432 174.939 337.432C172.603 337.432 170.491 336.856 168.603 335.704C166.715 334.552 165.227 332.936 164.139 330.856C163.051 328.776 162.507 326.408 162.507 323.752ZM184.779 323.8C184.779 321.816 184.379 320.088 183.579 318.616C182.779 317.144 181.691 316.024 180.315 315.256C178.971 314.456 177.483 314.056 175.851 314.056C174.219 314.056 172.731 314.44 171.387 315.208C170.043 315.976 168.971 317.096 168.171 318.568C167.371 320.04 166.971 321.768 166.971 323.752C166.971 325.768 167.371 327.528 168.171 329.032C168.971 330.504 170.043 331.64 171.387 332.44C172.731 333.208 174.219 333.592 175.851 333.592C177.483 333.592 178.971 333.208 180.315 332.44C181.691 331.64 182.779 330.504 183.579 329.032C184.379 327.528 184.779 325.784 184.779 323.8ZM200.611 314.968C201.379 313.464 202.467 312.296 203.875 311.464C205.315 310.632 207.059 310.216 209.107 310.216V314.728H207.955C203.059 314.728 200.611 317.384 200.611 322.696V337H196.243V310.696H200.611V314.968ZM219.144 314.296V329.8C219.144 331.08 219.416 331.992 219.96 332.536C220.504 333.048 221.448 333.304 222.792 333.304H226.008V337H222.072C219.64 337 217.816 336.44 216.6 335.32C215.384 334.2 214.776 332.36 214.776 329.8V314.296H211.368V310.696H214.776V304.072H219.144V310.696H226.008V314.296H219.144ZM242.182 333.496C246.246 330.232 249.43 327.56 251.734 325.48C254.038 323.368 255.974 321.176 257.542 318.904C259.142 316.6 259.942 314.344 259.942 312.136C259.942 310.056 259.43 308.424 258.406 307.24C257.414 306.024 255.798 305.416 253.558 305.416C251.382 305.416 249.686 306.104 248.47 307.48C247.286 308.824 246.646 310.632 246.55 312.904H242.326C242.454 309.32 243.542 306.552 245.59 304.6C247.638 302.648 250.278 301.672 253.51 301.672C256.806 301.672 259.414 302.584 261.334 304.408C263.286 306.232 264.262 308.744 264.262 311.944C264.262 314.6 263.462 317.192 261.862 319.72C260.294 322.216 258.502 324.424 256.486 326.344C254.47 328.232 251.894 330.44 248.758 332.968H265.27V336.616H242.182V333.496Z" fill="white"/>
<path d="M622.816 433.392V450H620.632V437.616L615.112 450H613.576L608.032 437.592V450H605.848V433.392H608.2L614.344 447.12L620.488 433.392H622.816ZM631.923 450.216C630.691 450.216 629.571 449.936 628.563 449.376C627.571 448.816 626.787 448.024 626.211 447C625.651 445.96 625.371 444.76 625.371 443.4C625.371 442.056 625.659 440.872 626.235 439.848C626.827 438.808 627.627 438.016 628.635 437.472C629.643 436.912 630.771 436.632 632.019 436.632C633.267 436.632 634.395 436.912 635.403 437.472C636.411 438.016 637.203 438.8 637.779 439.824C638.371 440.848 638.667 442.04 638.667 443.4C638.667 444.76 638.363 445.96 637.755 447C637.163 448.024 636.355 448.816 635.331 449.376C634.307 449.936 633.171 450.216 631.923 450.216ZM631.923 448.296C632.707 448.296 633.443 448.112 634.131 447.744C634.819 447.376 635.371 446.824 635.787 446.088C636.219 445.352 636.435 444.456 636.435 443.4C636.435 442.344 636.227 441.448 635.811 440.712C635.395 439.976 634.851 439.432 634.179 439.08C633.507 438.712 632.779 438.528 631.995 438.528C631.195 438.528 630.459 438.712 629.787 439.08C629.131 439.432 628.603 439.976 628.203 440.712C627.803 441.448 627.603 442.344 627.603 443.4C627.603 444.472 627.795 445.376 628.179 446.112C628.579 446.848 629.107 447.4 629.763 447.768C630.419 448.12 631.139 448.296 631.923 448.296ZM647.613 436.608C649.213 436.608 650.509 437.096 651.501 438.072C652.493 439.032 652.989 440.424 652.989 442.248V450H650.829V442.56C650.829 441.248 650.501 440.248 649.845 439.56C649.189 438.856 648.293 438.504 647.157 438.504C646.005 438.504 645.085 438.864 644.397 439.584C643.725 440.304 643.389 441.352 643.389 442.728V450H641.205V436.848H643.389V438.72C643.821 438.048 644.405 437.528 645.141 437.16C645.893 436.792 646.717 436.608 647.613 436.608ZM668.223 442.92C668.223 443.336 668.199 443.776 668.151 444.24H657.639C657.719 445.536 658.159 446.552 658.959 447.288C659.775 448.008 660.759 448.368 661.911 448.368C662.855 448.368 663.639 448.152 664.263 447.72C664.903 447.272 665.351 446.68 665.607 445.944H667.959C667.607 447.208 666.903 448.24 665.847 449.04C664.791 449.824 663.479 450.216 661.911 450.216C660.663 450.216 659.543 449.936 658.551 449.376C657.575 448.816 656.807 448.024 656.247 447C655.687 445.96 655.407 444.76 655.407 443.4C655.407 442.04 655.679 440.848 656.223 439.824C656.767 438.8 657.527 438.016 658.503 437.472C659.495 436.912 660.631 436.632 661.911 436.632C663.159 436.632 664.263 436.904 665.223 437.448C666.183 437.992 666.919 438.744 667.431 439.704C667.959 440.648 668.223 441.72 668.223 442.92ZM665.967 442.464C665.967 441.632 665.783 440.92 665.415 440.328C665.047 439.72 664.543 439.264 663.903 438.96C663.279 438.64 662.583 438.48 661.815 438.48C660.711 438.48 659.767 438.832 658.983 439.536C658.215 440.24 657.775 441.216 657.663 442.464H665.967ZM682.1 436.848L674.18 456.192H671.924L674.516 449.856L669.212 436.848H671.636L675.764 447.504L679.844 436.848H682.1ZM685.595 448.2H692.051V450H683.099V448.2L689.483 438.624H683.147V436.848H692.003V438.624L685.595 448.2ZM706.551 442.92C706.551 443.336 706.527 443.776 706.479 444.24H695.967C696.047 445.536 696.487 446.552 697.287 447.288C698.103 448.008 699.087 448.368 700.239 448.368C701.183 448.368 701.967 448.152 702.591 447.72C703.231 447.272 703.679 446.68 703.935 445.944H706.287C705.935 447.208 705.231 448.24 704.175 449.04C703.119 449.824 701.807 450.216 700.239 450.216C698.991 450.216 697.871 449.936 696.879 449.376C695.903 448.816 695.135 448.024 694.575 447C694.015 445.96 693.735 444.76 693.735 443.4C693.735 442.04 694.007 440.848 694.551 439.824C695.095 438.8 695.855 438.016 696.831 437.472C697.823 436.912 698.959 436.632 700.239 436.632C701.487 436.632 702.591 436.904 703.551 437.448C704.511 437.992 705.247 438.744 705.759 439.704C706.287 440.648 706.551 441.72 706.551 442.92ZM704.295 442.464C704.295 441.632 704.111 440.92 703.743 440.328C703.375 439.72 702.871 439.264 702.231 438.96C701.607 438.64 700.911 438.48 700.143 438.48C699.039 438.48 698.095 438.832 697.311 439.536C696.543 440.24 696.103 441.216 695.991 442.464H704.295ZM721.101 442.92C721.101 443.336 721.077 443.776 721.029 444.24H710.517C710.597 445.536 711.037 446.552 711.837 447.288C712.653 448.008 713.637 448.368 714.789 448.368C715.733 448.368 716.517 448.152 717.141 447.72C717.781 447.272 718.229 446.68 718.485 445.944H720.837C720.485 447.208 719.781 448.24 718.725 449.04C717.669 449.824 716.357 450.216 714.789 450.216C713.541 450.216 712.421 449.936 711.429 449.376C710.453 448.816 709.685 448.024 709.125 447C708.565 445.96 708.285 444.76 708.285 443.4C708.285 442.04 708.557 440.848 709.101 439.824C709.645 438.8 710.405 438.016 711.381 437.472C712.373 436.912 713.509 436.632 714.789 436.632C716.037 436.632 717.141 436.904 718.101 437.448C719.061 437.992 719.797 438.744 720.309 439.704C720.837 440.648 721.101 441.72 721.101 442.92ZM718.845 442.464C718.845 441.632 718.661 440.92 718.293 440.328C717.925 439.72 717.421 439.264 716.781 438.96C716.157 438.64 715.461 438.48 714.693 438.48C713.589 438.48 712.645 438.832 711.861 439.536C711.093 440.24 710.653 441.216 710.541 442.464H718.845ZM724.346 450.144C723.93 450.144 723.578 450 723.29 449.712C723.002 449.424 722.858 449.072 722.858 448.656C722.858 448.24 723.002 447.888 723.29 447.6C723.578 447.312 723.93 447.168 724.346 447.168C724.746 447.168 725.082 447.312 725.354 447.6C725.642 447.888 725.786 448.24 725.786 448.656C725.786 449.072 725.642 449.424 725.354 449.712C725.082 450 724.746 450.144 724.346 450.144ZM727.54 443.4C727.54 442.04 727.812 440.856 728.356 439.848C728.9 438.824 729.652 438.032 730.612 437.472C731.588 436.912 732.7 436.632 733.948 436.632C735.564 436.632 736.892 437.024 737.932 437.808C738.988 438.592 739.684 439.68 740.02 441.072H737.668C737.444 440.272 737.004 439.64 736.348 439.176C735.708 438.712 734.908 438.48 733.948 438.48C732.7 438.48 731.692 438.912 730.924 439.776C730.156 440.624 729.772 441.832 729.772 443.4C729.772 444.984 730.156 446.208 730.924 447.072C731.692 447.936 732.7 448.368 733.948 448.368C734.908 448.368 735.708 448.144 736.348 447.696C736.988 447.248 737.428 446.608 737.668 445.776H740.02C739.668 447.12 738.964 448.2 737.908 449.016C736.852 449.816 735.532 450.216 733.948 450.216C732.7 450.216 731.588 449.936 730.612 449.376C729.652 448.816 728.9 448.024 728.356 447C727.812 445.976 727.54 444.776 727.54 443.4ZM748.337 450.216C747.105 450.216 745.985 449.936 744.977 449.376C743.985 448.816 743.201 448.024 742.625 447C742.065 445.96 741.785 444.76 741.785 443.4C741.785 442.056 742.073 440.872 742.649 439.848C743.241 438.808 744.041 438.016 745.049 437.472C746.057 436.912 747.185 436.632 748.433 436.632C749.681 436.632 750.809 436.912 751.817 437.472C752.825 438.016 753.617 438.8 754.193 439.824C754.785 440.848 755.081 442.04 755.081 443.4C755.081 444.76 754.777 445.96 754.169 447C753.577 448.024 752.769 448.816 751.745 449.376C750.721 449.936 749.585 450.216 748.337 450.216ZM748.337 448.296C749.121 448.296 749.857 448.112 750.545 447.744C751.233 447.376 751.785 446.824 752.201 446.088C752.633 445.352 752.849 444.456 752.849 443.4C752.849 442.344 752.641 441.448 752.225 440.712C751.809 439.976 751.265 439.432 750.593 439.08C749.921 438.712 749.193 438.528 748.409 438.528C747.609 438.528 746.873 438.712 746.201 439.08C745.545 439.432 745.017 439.976 744.617 440.712C744.217 441.448 744.017 442.344 744.017 443.4C744.017 444.472 744.209 445.376 744.593 446.112C744.993 446.848 745.521 447.4 746.177 447.768C746.833 448.12 747.553 448.296 748.337 448.296ZM758.315 450.144C757.899 450.144 757.547 450 757.259 449.712C756.971 449.424 756.827 449.072 756.827 448.656C756.827 448.24 756.971 447.888 757.259 447.6C757.547 447.312 757.899 447.168 758.315 447.168C758.715 447.168 759.051 447.312 759.323 447.6C759.611 447.888 759.755 448.24 759.755 448.656C759.755 449.072 759.611 449.424 759.323 449.712C759.051 450 758.715 450.144 758.315 450.144ZM763.453 434.712C763.037 434.712 762.685 434.568 762.397 434.28C762.109 433.992 761.965 433.64 761.965 433.224C761.965 432.808 762.109 432.456 762.397 432.168C762.685 431.88 763.037 431.736 763.453 431.736C763.853 431.736 764.189 431.88 764.461 432.168C764.749 432.456 764.893 432.808 764.893 433.224C764.893 433.64 764.749 433.992 764.461 434.28C764.189 434.568 763.853 434.712 763.453 434.712ZM764.509 436.848V450H762.325V436.848H764.509ZM767.081 443.376C767.081 442.032 767.353 440.856 767.897 439.848C768.441 438.824 769.185 438.032 770.129 437.472C771.089 436.912 772.161 436.632 773.345 436.632C774.369 436.632 775.321 436.872 776.201 437.352C777.081 437.816 777.753 438.432 778.217 439.2V432.24H780.425V450H778.217V447.528C777.785 448.312 777.145 448.96 776.297 449.472C775.449 449.968 774.457 450.216 773.321 450.216C772.153 450.216 771.089 449.928 770.129 449.352C769.185 448.776 768.441 447.968 767.897 446.928C767.353 445.888 767.081 444.704 767.081 443.376ZM778.217 443.4C778.217 442.408 778.017 441.544 777.617 440.808C777.217 440.072 776.673 439.512 775.985 439.128C775.313 438.728 774.569 438.528 773.753 438.528C772.937 438.528 772.193 438.72 771.521 439.104C770.849 439.488 770.313 440.048 769.913 440.784C769.513 441.52 769.313 442.384 769.313 443.376C769.313 444.384 769.513 445.264 769.913 446.016C770.313 446.752 770.849 447.32 771.521 447.72C772.193 448.104 772.937 448.296 773.753 448.296C774.569 448.296 775.313 448.104 775.985 447.72C776.673 447.32 777.217 446.752 777.617 446.016C778.017 445.264 778.217 444.392 778.217 443.4Z" fill="white"/>
</g>
<defs>
<linearGradient id="paint0_linear_1421_265" x1="-16.5" y1="245" x2="825" y2="245" gradientUnits="userSpaceOnUse">
<stop stop-color="#D81095"/>
<stop offset="1" stop-color="#FA5792"/>
</linearGradient>
<linearGradient id="paint1_linear_1421_265" x1="-16.5" y1="245" x2="825" y2="245" gradientUnits="userSpaceOnUse">
<stop stop-color="#6E33EA"/>
<stop offset="1" stop-color="#4E76F8"/>
</linearGradient>
</defs>
</svg>
