<svg width="825" height="490" viewBox="0 0 825 490" fill="none" xmlns="http://www.w3.org/2000/svg">
<path d="M0 50C0 22.3858 22.3858 0 50 0H775C802.614 0 825 22.3858 825 50V490H0V50Z" fill="url(#paint0_linear_1421_293)"/>
<mask id="mask0_1421_293" style="mask-type:alpha" maskUnits="userSpaceOnUse" x="0" y="0" width="825" height="490">
<path d="M0 50C0 22.3858 22.3858 0 50 0H775C802.614 0 825 22.3858 825 50V490H0V50Z" fill="url(#paint1_linear_1421_293)"/>
</mask>
<g mask="url(#mask0_1421_293)">
<circle cx="766.5" cy="45.5" r="87.5" stroke="white" stroke-opacity="0.13" stroke-width="4"/>
<circle cx="297.5" cy="181.5" r="44.5" stroke="white" stroke-opacity="0.13" stroke-width="4"/>
<circle cx="-15.5" cy="88.5" r="44.5" stroke="white" stroke-opacity="0.13" stroke-width="4"/>
<path d="M591.996 279.997C569.906 263.426 565.432 232.086 582.003 209.996V209.996C598.573 187.906 629.914 183.432 652.004 200.003L692.001 230.007L631.992 310.001L591.996 279.997Z" fill="white" fill-opacity="0.05"/>
<path d="M175.864 289.72L225.187 285.541L233.546 384.187L184.223 388.367C156.983 390.675 133.028 370.464 130.72 343.223C128.412 315.983 148.623 292.029 175.864 289.72Z" stroke="white" stroke-opacity="0.16"/>
<path d="M430.39 68.3073L451.24 66.5404L454.774 108.24L433.924 110.007C422.409 110.982 412.283 102.439 411.307 90.9238C410.331 79.4089 418.875 69.2831 430.39 68.3073Z" stroke="white" stroke-opacity="0.16"/>
<path d="M501.069 370.948C498.265 359.055 505.633 347.14 517.526 344.335V344.335C529.42 341.531 541.335 348.899 544.139 360.793L549.217 382.328L506.146 392.483L501.069 370.948Z" fill="white" fill-opacity="0.05"/>
<path d="M107.912 104.072V149H96.968V104.072H107.912ZM130.371 149.512C127.256 149.512 124.483 148.979 122.051 147.912C119.619 146.845 117.699 145.395 116.291 143.56C114.883 141.683 114.094 139.592 113.923 137.288H124.739C124.867 138.525 125.443 139.528 126.467 140.296C127.491 141.064 128.75 141.448 130.243 141.448C131.608 141.448 132.654 141.192 133.379 140.68C134.147 140.125 134.531 139.421 134.531 138.568C134.531 137.544 133.998 136.797 132.931 136.328C131.864 135.816 130.136 135.261 127.747 134.664C125.187 134.067 123.054 133.448 121.347 132.808C119.64 132.125 118.168 131.08 116.931 129.672C115.694 128.221 115.075 126.28 115.075 123.848C115.075 121.8 115.63 119.944 116.739 118.28C117.891 116.573 119.555 115.229 121.731 114.248C123.95 113.267 126.574 112.776 129.603 112.776C134.083 112.776 137.603 113.885 140.163 116.104C142.766 118.323 144.259 121.267 144.643 124.936H134.531C134.36 123.699 133.806 122.717 132.867 121.992C131.971 121.267 130.776 120.904 129.283 120.904C128.003 120.904 127.022 121.16 126.339 121.672C125.656 122.141 125.315 122.803 125.315 123.656C125.315 124.68 125.848 125.448 126.915 125.96C128.024 126.472 129.731 126.984 132.035 127.496C134.68 128.179 136.835 128.861 138.499 129.544C140.163 130.184 141.614 131.251 142.851 132.744C144.131 134.195 144.792 136.157 144.835 138.632C144.835 140.723 144.238 142.6 143.043 144.264C141.891 145.885 140.206 147.165 137.987 148.104C135.811 149.043 133.272 149.512 130.371 149.512ZM170.597 109.576C168.677 109.576 167.098 109.021 165.861 107.912C164.666 106.76 164.069 105.352 164.069 103.688C164.069 101.981 164.666 100.573 165.861 99.464C167.098 98.312 168.677 97.736 170.597 97.736C172.474 97.736 174.01 98.312 175.205 99.464C176.442 100.573 177.061 101.981 177.061 103.688C177.061 105.352 176.442 106.76 175.205 107.912C174.01 109.021 172.474 109.576 170.597 109.576ZM176.037 113.288V149H165.093V113.288H176.037ZM203.872 139.72V149H198.304C194.336 149 191.243 148.04 189.024 146.12C186.805 144.157 185.696 140.979 185.696 136.584V122.376H181.344V113.288H185.696V104.584H196.64V113.288H203.808V122.376H196.64V136.712C196.64 137.779 196.896 138.547 197.408 139.016C197.92 139.485 198.773 139.72 199.968 139.72H203.872ZM234.475 118.344C235.541 116.68 237.013 115.336 238.891 114.312C240.768 113.288 242.965 112.776 245.483 112.776C248.427 112.776 251.093 113.523 253.483 115.016C255.872 116.509 257.749 118.643 259.115 121.416C260.523 124.189 261.227 127.411 261.227 131.08C261.227 134.749 260.523 137.992 259.115 140.808C257.749 143.581 255.872 145.736 253.483 147.272C251.093 148.765 248.427 149.512 245.483 149.512C243.008 149.512 240.811 149 238.891 147.976C237.013 146.952 235.541 145.629 234.475 144.008V166.024H223.531V113.288H234.475V118.344ZM250.091 131.08C250.091 128.349 249.323 126.216 247.787 124.68C246.293 123.101 244.437 122.312 242.219 122.312C240.043 122.312 238.187 123.101 236.651 124.68C235.157 126.259 234.411 128.413 234.411 131.144C234.411 133.875 235.157 136.029 236.651 137.608C238.187 139.187 240.043 139.976 242.219 139.976C244.395 139.976 246.251 139.187 247.787 137.608C249.323 135.987 250.091 133.811 250.091 131.08ZM283.224 149.512C279.725 149.512 276.568 148.765 273.752 147.272C270.979 145.779 268.781 143.645 267.16 140.872C265.581 138.099 264.792 134.856 264.792 131.144C264.792 127.475 265.603 124.253 267.224 121.48C268.845 118.664 271.064 116.509 273.88 115.016C276.696 113.523 279.853 112.776 283.352 112.776C286.851 112.776 290.008 113.523 292.824 115.016C295.64 116.509 297.859 118.664 299.48 121.48C301.101 124.253 301.912 127.475 301.912 131.144C301.912 134.813 301.08 138.056 299.416 140.872C297.795 143.645 295.555 145.779 292.696 147.272C289.88 148.765 286.723 149.512 283.224 149.512ZM283.224 140.04C285.315 140.04 287.085 139.272 288.536 137.736C290.029 136.2 290.776 134.003 290.776 131.144C290.776 128.285 290.051 126.088 288.6 124.552C287.192 123.016 285.443 122.248 283.352 122.248C281.219 122.248 279.448 123.016 278.04 124.552C276.632 126.045 275.928 128.243 275.928 131.144C275.928 134.003 276.611 136.2 277.976 137.736C279.384 139.272 281.133 140.04 283.224 140.04ZM322.246 149.512C319.131 149.512 316.358 148.979 313.926 147.912C311.494 146.845 309.574 145.395 308.166 143.56C306.758 141.683 305.969 139.592 305.798 137.288H316.614C316.742 138.525 317.318 139.528 318.342 140.296C319.366 141.064 320.625 141.448 322.118 141.448C323.483 141.448 324.529 141.192 325.254 140.68C326.022 140.125 326.406 139.421 326.406 138.568C326.406 137.544 325.873 136.797 324.806 136.328C323.739 135.816 322.011 135.261 319.622 134.664C317.062 134.067 314.929 133.448 313.222 132.808C311.515 132.125 310.043 131.08 308.806 129.672C307.569 128.221 306.95 126.28 306.95 123.848C306.95 121.8 307.505 119.944 308.614 118.28C309.766 116.573 311.43 115.229 313.606 114.248C315.825 113.267 318.449 112.776 321.478 112.776C325.958 112.776 329.478 113.885 332.038 116.104C334.641 118.323 336.134 121.267 336.518 124.936H326.406C326.235 123.699 325.681 122.717 324.742 121.992C323.846 121.267 322.651 120.904 321.158 120.904C319.878 120.904 318.897 121.16 318.214 121.672C317.531 122.141 317.19 122.803 317.19 123.656C317.19 124.68 317.723 125.448 318.79 125.96C319.899 126.472 321.606 126.984 323.91 127.496C326.555 128.179 328.71 128.861 330.374 129.544C332.038 130.184 333.489 131.251 334.726 132.744C336.006 134.195 336.667 136.157 336.71 138.632C336.71 140.723 336.113 142.6 334.918 144.264C333.766 145.885 332.081 147.165 329.862 148.104C327.686 149.043 325.147 149.512 322.246 149.512ZM357.934 149.512C354.819 149.512 352.046 148.979 349.614 147.912C347.182 146.845 345.262 145.395 343.854 143.56C342.446 141.683 341.656 139.592 341.486 137.288H352.302C352.43 138.525 353.006 139.528 354.03 140.296C355.054 141.064 356.312 141.448 357.806 141.448C359.171 141.448 360.216 141.192 360.942 140.68C361.71 140.125 362.094 139.421 362.094 138.568C362.094 137.544 361.56 136.797 360.494 136.328C359.427 135.816 357.699 135.261 355.31 134.664C352.75 134.067 350.616 133.448 348.91 132.808C347.203 132.125 345.731 131.08 344.494 129.672C343.256 128.221 342.638 126.28 342.638 123.848C342.638 121.8 343.192 119.944 344.302 118.28C345.454 116.573 347.118 115.229 349.294 114.248C351.512 113.267 354.136 112.776 357.166 112.776C361.646 112.776 365.166 113.885 367.726 116.104C370.328 118.323 371.822 121.267 372.206 124.936H362.094C361.923 123.699 361.368 122.717 360.43 121.992C359.534 121.267 358.339 120.904 356.846 120.904C355.566 120.904 354.584 121.16 353.902 121.672C353.219 122.141 352.878 122.803 352.878 123.656C352.878 124.68 353.411 125.448 354.478 125.96C355.587 126.472 357.294 126.984 359.598 127.496C362.243 128.179 364.398 128.861 366.062 129.544C367.726 130.184 369.176 131.251 370.414 132.744C371.694 134.195 372.355 136.157 372.398 138.632C372.398 140.723 371.8 142.6 370.606 144.264C369.454 145.885 367.768 147.165 365.55 148.104C363.374 149.043 360.835 149.512 357.934 149.512ZM384.597 109.576C382.677 109.576 381.098 109.021 379.861 107.912C378.666 106.76 378.069 105.352 378.069 103.688C378.069 101.981 378.666 100.573 379.861 99.464C381.098 98.312 382.677 97.736 384.597 97.736C386.474 97.736 388.01 98.312 389.205 99.464C390.442 100.573 391.061 101.981 391.061 103.688C391.061 105.352 390.442 106.76 389.205 107.912C388.01 109.021 386.474 109.576 384.597 109.576ZM390.037 113.288V149H379.093V113.288H390.037ZM408.912 118.344C409.936 116.68 411.408 115.336 413.328 114.312C415.248 113.288 417.445 112.776 419.92 112.776C422.864 112.776 425.531 113.523 427.92 115.016C430.309 116.509 432.187 118.643 433.552 121.416C434.96 124.189 435.664 127.411 435.664 131.08C435.664 134.749 434.96 137.992 433.552 140.808C432.187 143.581 430.309 145.736 427.92 147.272C425.531 148.765 422.864 149.512 419.92 149.512C417.403 149.512 415.205 149.021 413.328 148.04C411.451 147.016 409.979 145.672 408.912 144.008V149H397.968V101.64H408.912V118.344ZM424.528 131.08C424.528 128.349 423.76 126.216 422.224 124.68C420.731 123.101 418.875 122.312 416.656 122.312C414.48 122.312 412.624 123.101 411.088 124.68C409.595 126.259 408.848 128.413 408.848 131.144C408.848 133.875 409.595 136.029 411.088 137.608C412.624 139.187 414.48 139.976 416.656 139.976C418.832 139.976 420.688 139.187 422.224 137.608C423.76 135.987 424.528 133.811 424.528 131.08ZM452.35 101.64V149H441.406V101.64H452.35ZM493.944 130.568C493.944 131.592 493.881 132.659 493.753 133.768H468.985C469.155 135.987 469.859 137.693 471.097 138.888C472.377 140.04 473.934 140.616 475.769 140.616C478.499 140.616 480.398 139.464 481.465 137.16H493.113C492.515 139.507 491.427 141.619 489.849 143.496C488.313 145.373 486.371 146.845 484.025 147.912C481.678 148.979 479.054 149.512 476.153 149.512C472.654 149.512 469.539 148.765 466.809 147.272C464.078 145.779 461.945 143.645 460.409 140.872C458.873 138.099 458.105 134.856 458.105 131.144C458.105 127.432 458.851 124.189 460.345 121.416C461.881 118.643 464.014 116.509 466.745 115.016C469.475 113.523 472.611 112.776 476.153 112.776C479.609 112.776 482.681 113.501 485.369 114.952C488.057 116.403 490.147 118.472 491.641 121.16C493.177 123.848 493.944 126.984 493.944 130.568ZM482.745 127.688C482.745 125.811 482.105 124.317 480.825 123.208C479.545 122.099 477.945 121.544 476.025 121.544C474.19 121.544 472.633 122.077 471.353 123.144C470.115 124.211 469.347 125.725 469.049 127.688H482.745ZM533.185 139.72V149H527.617C523.649 149 520.555 148.04 518.337 146.12C516.118 144.157 515.009 140.979 515.009 136.584V122.376H510.657V113.288H515.009V104.584H525.953V113.288H533.121V122.376H525.953V136.712C525.953 137.779 526.209 138.547 526.721 139.016C527.233 139.485 528.086 139.72 529.281 139.72H533.185ZM555.537 149.512C552.038 149.512 548.881 148.765 546.065 147.272C543.291 145.779 541.094 143.645 539.473 140.872C537.894 138.099 537.105 134.856 537.105 131.144C537.105 127.475 537.915 124.253 539.536 121.48C541.158 118.664 543.377 116.509 546.193 115.016C549.009 113.523 552.166 112.776 555.665 112.776C559.163 112.776 562.321 113.523 565.137 115.016C567.953 116.509 570.171 118.664 571.793 121.48C573.414 124.253 574.225 127.475 574.225 131.144C574.225 134.813 573.393 138.056 571.729 140.872C570.107 143.645 567.867 145.779 565.009 147.272C562.193 148.765 559.035 149.512 555.537 149.512ZM555.537 140.04C557.627 140.04 559.398 139.272 560.849 137.736C562.342 136.2 563.089 134.003 563.089 131.144C563.089 128.285 562.363 126.088 560.913 124.552C559.505 123.016 557.755 122.248 555.665 122.248C553.531 122.248 551.761 123.016 550.353 124.552C548.945 126.045 548.241 128.243 548.241 131.144C548.241 134.003 548.923 136.2 550.289 137.736C551.697 139.272 553.446 140.04 555.537 140.04ZM142.536 208.904C146.973 208.904 150.493 210.248 153.096 212.936C155.741 215.624 157.064 219.357 157.064 224.136V245H146.184V225.608C146.184 223.304 145.565 221.533 144.328 220.296C143.133 219.016 141.469 218.376 139.336 218.376C137.203 218.376 135.517 219.016 134.28 220.296C133.085 221.533 132.488 223.304 132.488 225.608V245H121.608V225.608C121.608 223.304 120.989 221.533 119.752 220.296C118.557 219.016 116.893 218.376 114.76 218.376C112.627 218.376 110.941 219.016 109.704 220.296C108.509 221.533 107.912 223.304 107.912 225.608V245H96.968V209.288H107.912V213.768C109.021 212.275 110.472 211.101 112.264 210.248C114.056 209.352 116.083 208.904 118.344 208.904C121.032 208.904 123.421 209.48 125.512 210.632C127.645 211.784 129.309 213.427 130.504 215.56C131.741 213.597 133.427 211.997 135.56 210.76C137.693 209.523 140.019 208.904 142.536 208.904ZM162.542 227.08C162.542 223.411 163.225 220.189 164.59 217.416C165.998 214.643 167.897 212.509 170.286 211.016C172.675 209.523 175.342 208.776 178.286 208.776C180.803 208.776 183.001 209.288 184.878 210.312C186.798 211.336 188.27 212.68 189.294 214.344V209.288H200.238V245H189.294V239.944C188.227 241.608 186.734 242.952 184.814 243.976C182.937 245 180.739 245.512 178.222 245.512C175.321 245.512 172.675 244.765 170.286 243.272C167.897 241.736 165.998 239.581 164.59 236.808C163.225 233.992 162.542 230.749 162.542 227.08ZM189.294 227.144C189.294 224.413 188.526 222.259 186.99 220.68C185.497 219.101 183.662 218.312 181.486 218.312C179.31 218.312 177.454 219.101 175.918 220.68C174.425 222.216 173.678 224.349 173.678 227.08C173.678 229.811 174.425 231.987 175.918 233.608C177.454 235.187 179.31 235.976 181.486 235.976C183.662 235.976 185.497 235.187 186.99 233.608C188.526 232.029 189.294 229.875 189.294 227.144ZM229.98 245L219.1 230.024V245H208.156V197.64H219.1V223.816L229.916 209.288H243.42L228.572 227.208L243.548 245H229.98ZM281.382 226.568C281.382 227.592 281.318 228.659 281.19 229.768H256.422C256.593 231.987 257.297 233.693 258.534 234.888C259.814 236.04 261.371 236.616 263.206 236.616C265.937 236.616 267.835 235.464 268.902 233.16H280.55C279.953 235.507 278.865 237.619 277.286 239.496C275.75 241.373 273.809 242.845 271.462 243.912C269.115 244.979 266.491 245.512 263.59 245.512C260.091 245.512 256.977 244.765 254.246 243.272C251.515 241.779 249.382 239.645 247.846 236.872C246.31 234.099 245.542 230.856 245.542 227.144C245.542 223.432 246.289 220.189 247.782 217.416C249.318 214.643 251.451 212.509 254.182 211.016C256.913 209.523 260.049 208.776 263.59 208.776C267.046 208.776 270.118 209.501 272.806 210.952C275.494 212.403 277.585 214.472 279.078 217.16C280.614 219.848 281.382 222.984 281.382 226.568ZM270.182 223.688C270.182 221.811 269.542 220.317 268.262 219.208C266.982 218.099 265.382 217.544 263.462 217.544C261.627 217.544 260.07 218.077 258.79 219.144C257.553 220.211 256.785 221.725 256.486 223.688H270.182ZM318.638 218.376H312.75V245H301.806V218.376H297.838V209.288H301.806V208.264C301.806 203.869 303.065 200.541 305.582 198.28C308.099 195.976 311.79 194.824 316.654 194.824C317.465 194.824 318.062 194.845 318.446 194.888V204.168C316.355 204.04 314.883 204.339 314.03 205.064C313.177 205.789 312.75 207.091 312.75 208.968V209.288H318.638V218.376ZM321.605 227.08C321.605 223.411 322.287 220.189 323.653 217.416C325.061 214.643 326.959 212.509 329.349 211.016C331.738 209.523 334.405 208.776 337.349 208.776C339.866 208.776 342.063 209.288 343.941 210.312C345.861 211.336 347.333 212.68 348.357 214.344V209.288H359.301V245H348.357V239.944C347.29 241.608 345.797 242.952 343.877 243.976C341.999 245 339.802 245.512 337.285 245.512C334.383 245.512 331.738 244.765 329.349 243.272C326.959 241.736 325.061 239.581 323.653 236.808C322.287 233.992 321.605 230.749 321.605 227.08ZM348.357 227.144C348.357 224.413 347.589 222.259 346.053 220.68C344.559 219.101 342.725 218.312 340.549 218.312C338.373 218.312 336.517 219.101 334.981 220.68C333.487 222.216 332.741 224.349 332.741 227.08C332.741 229.811 333.487 231.987 334.981 233.608C336.517 235.187 338.373 235.976 340.549 235.976C342.725 235.976 344.559 235.187 346.053 233.608C347.589 232.029 348.357 229.875 348.357 227.144ZM381.746 245.512C378.631 245.512 375.858 244.979 373.426 243.912C370.994 242.845 369.074 241.395 367.666 239.56C366.258 237.683 365.469 235.592 365.298 233.288H376.114C376.242 234.525 376.818 235.528 377.842 236.296C378.866 237.064 380.125 237.448 381.618 237.448C382.983 237.448 384.029 237.192 384.754 236.68C385.522 236.125 385.906 235.421 385.906 234.568C385.906 233.544 385.373 232.797 384.306 232.328C383.239 231.816 381.511 231.261 379.122 230.664C376.562 230.067 374.429 229.448 372.722 228.808C371.015 228.125 369.543 227.08 368.306 225.672C367.069 224.221 366.45 222.28 366.45 219.848C366.45 217.8 367.005 215.944 368.114 214.28C369.266 212.573 370.93 211.229 373.106 210.248C375.325 209.267 377.949 208.776 380.978 208.776C385.458 208.776 388.978 209.885 391.538 212.104C394.141 214.323 395.634 217.267 396.018 220.936H385.906C385.735 219.699 385.181 218.717 384.242 217.992C383.346 217.267 382.151 216.904 380.658 216.904C379.378 216.904 378.397 217.16 377.714 217.672C377.031 218.141 376.69 218.803 376.69 219.656C376.69 220.68 377.223 221.448 378.29 221.96C379.399 222.472 381.106 222.984 383.41 223.496C386.055 224.179 388.21 224.861 389.874 225.544C391.538 226.184 392.989 227.251 394.226 228.744C395.506 230.195 396.167 232.157 396.21 234.632C396.21 236.723 395.613 238.6 394.418 240.264C393.266 241.885 391.581 243.165 389.362 244.104C387.186 245.043 384.647 245.512 381.746 245.512ZM422.81 235.72V245H417.242C413.274 245 410.18 244.04 407.962 242.12C405.743 240.157 404.634 236.979 404.634 232.584V218.376H400.282V209.288H404.634V200.584H415.578V209.288H422.746V218.376H415.578V232.712C415.578 233.779 415.834 234.547 416.346 235.016C416.858 235.485 417.711 235.72 418.906 235.72H422.81ZM488.036 208.904C492.473 208.904 495.993 210.248 498.596 212.936C501.241 215.624 502.564 219.357 502.564 224.136V245H491.684V225.608C491.684 223.304 491.065 221.533 489.828 220.296C488.633 219.016 486.969 218.376 484.836 218.376C482.703 218.376 481.017 219.016 479.78 220.296C478.585 221.533 477.988 223.304 477.988 225.608V245H467.108V225.608C467.108 223.304 466.489 221.533 465.252 220.296C464.057 219.016 462.393 218.376 460.26 218.376C458.127 218.376 456.441 219.016 455.204 220.296C454.009 221.533 453.412 223.304 453.412 225.608V245H442.468V209.288H453.412V213.768C454.521 212.275 455.972 211.101 457.764 210.248C459.556 209.352 461.583 208.904 463.844 208.904C466.532 208.904 468.921 209.48 471.012 210.632C473.145 211.784 474.809 213.427 476.004 215.56C477.241 213.597 478.927 211.997 481.06 210.76C483.193 209.523 485.519 208.904 488.036 208.904ZM526.474 245.512C522.975 245.512 519.818 244.765 517.002 243.272C514.229 241.779 512.031 239.645 510.41 236.872C508.831 234.099 508.042 230.856 508.042 227.144C508.042 223.475 508.853 220.253 510.474 217.48C512.095 214.664 514.314 212.509 517.13 211.016C519.946 209.523 523.103 208.776 526.602 208.776C530.101 208.776 533.258 209.523 536.074 211.016C538.89 212.509 541.109 214.664 542.73 217.48C544.351 220.253 545.162 223.475 545.162 227.144C545.162 230.813 544.33 234.056 542.666 236.872C541.045 239.645 538.805 241.779 535.946 243.272C533.13 244.765 529.973 245.512 526.474 245.512ZM526.474 236.04C528.565 236.04 530.335 235.272 531.786 233.736C533.279 232.2 534.026 230.003 534.026 227.144C534.026 224.285 533.301 222.088 531.85 220.552C530.442 219.016 528.693 218.248 526.602 218.248C524.469 218.248 522.698 219.016 521.29 220.552C519.882 222.045 519.178 224.243 519.178 227.144C519.178 230.003 519.861 232.2 521.226 233.736C522.634 235.272 524.383 236.04 526.474 236.04ZM572.728 208.904C576.909 208.904 580.237 210.269 582.712 213C585.229 215.688 586.488 219.4 586.488 224.136V245H575.608V225.608C575.608 223.219 574.989 221.363 573.752 220.04C572.515 218.717 570.851 218.056 568.76 218.056C566.669 218.056 565.005 218.717 563.768 220.04C562.531 221.363 561.912 223.219 561.912 225.608V245H550.968V209.288H561.912V214.024C563.021 212.445 564.515 211.208 566.392 210.312C568.269 209.373 570.381 208.904 572.728 208.904ZM627.757 226.568C627.757 227.592 627.693 228.659 627.565 229.768H602.797C602.968 231.987 603.672 233.693 604.909 234.888C606.189 236.04 607.746 236.616 609.581 236.616C612.312 236.616 614.21 235.464 615.277 233.16H626.925C626.328 235.507 625.24 237.619 623.661 239.496C622.125 241.373 620.184 242.845 617.837 243.912C615.49 244.979 612.866 245.512 609.965 245.512C606.466 245.512 603.352 244.765 600.621 243.272C597.89 241.779 595.757 239.645 594.221 236.872C592.685 234.099 591.917 230.856 591.917 227.144C591.917 223.432 592.664 220.189 594.157 217.416C595.693 214.643 597.826 212.509 600.557 211.016C603.288 209.523 606.424 208.776 609.965 208.776C613.421 208.776 616.493 209.501 619.181 210.952C621.869 212.403 623.96 214.472 625.453 217.16C626.989 219.848 627.757 222.984 627.757 226.568ZM616.557 223.688C616.557 221.811 615.917 220.317 614.637 219.208C613.357 218.099 611.757 217.544 609.837 217.544C608.002 217.544 606.445 218.077 605.165 219.144C603.928 220.211 603.16 221.725 602.861 223.688H616.557ZM670.011 209.288L647.611 261.96H635.835L644.027 243.784L629.498 209.288H641.723L649.979 231.624L658.171 209.288H670.011ZM679.088 245.512C677.168 245.512 675.589 244.957 674.352 243.848C673.157 242.696 672.56 241.288 672.56 239.624C672.56 237.917 673.157 236.488 674.352 235.336C675.589 234.184 677.168 233.608 679.088 233.608C680.965 233.608 682.501 234.184 683.696 235.336C684.933 236.488 685.552 237.917 685.552 239.624C685.552 241.288 684.933 242.696 683.696 243.848C682.501 244.957 680.965 245.512 679.088 245.512ZM697.151 245.512C695.231 245.512 693.652 244.957 692.415 243.848C691.22 242.696 690.623 241.288 690.623 239.624C690.623 237.917 691.22 236.488 692.415 235.336C693.652 234.184 695.231 233.608 697.151 233.608C699.028 233.608 700.564 234.184 701.759 235.336C702.996 236.488 703.615 237.917 703.615 239.624C703.615 241.288 702.996 242.696 701.759 243.848C700.564 244.957 699.028 245.512 697.151 245.512ZM715.213 245.512C713.293 245.512 711.714 244.957 710.477 243.848C709.282 242.696 708.685 241.288 708.685 239.624C708.685 237.917 709.282 236.488 710.477 235.336C711.714 234.184 713.293 233.608 715.213 233.608C717.09 233.608 718.626 234.184 719.821 235.336C721.058 236.488 721.677 237.917 721.677 239.624C721.677 241.288 721.058 242.696 719.821 243.848C718.626 244.957 717.09 245.512 715.213 245.512Z" fill="white"/>
<path d="M123.192 314.92L121.368 323.56H127.992V327.4H120.552L118.488 337H114.312L116.376 327.4H106.296L104.232 337H100.056L102.12 327.4H94.584V323.56H102.936L104.76 314.92H97.32V311.08H105.576L107.64 301.48H111.816L109.752 311.08H119.832L121.896 301.48H126.072L124.008 311.08H130.68V314.92H123.192ZM119.016 314.92H108.936L107.112 323.56H117.192L119.016 314.92ZM159.043 313.336C159.043 316.12 158.083 318.44 156.163 320.296C154.275 322.12 151.379 323.032 147.475 323.032H141.043V337H136.675V303.544H147.475C151.251 303.544 154.115 304.456 156.067 306.28C158.051 308.104 159.043 310.456 159.043 313.336ZM147.475 319.432C149.907 319.432 151.699 318.904 152.851 317.848C154.003 316.792 154.579 315.288 154.579 313.336C154.579 309.208 152.211 307.144 147.475 307.144H141.043V319.432H147.475ZM162.507 323.752C162.507 321.064 163.051 318.712 164.139 316.696C165.227 314.648 166.715 313.064 168.603 311.944C170.523 310.824 172.651 310.264 174.987 310.264C177.291 310.264 179.291 310.76 180.987 311.752C182.683 312.744 183.947 313.992 184.779 315.496V310.696H189.195V337H184.779V332.104C183.915 333.64 182.619 334.92 180.891 335.944C179.195 336.936 177.211 337.432 174.939 337.432C172.603 337.432 170.491 336.856 168.603 335.704C166.715 334.552 165.227 332.936 164.139 330.856C163.051 328.776 162.507 326.408 162.507 323.752ZM184.779 323.8C184.779 321.816 184.379 320.088 183.579 318.616C182.779 317.144 181.691 316.024 180.315 315.256C178.971 314.456 177.483 314.056 175.851 314.056C174.219 314.056 172.731 314.44 171.387 315.208C170.043 315.976 168.971 317.096 168.171 318.568C167.371 320.04 166.971 321.768 166.971 323.752C166.971 325.768 167.371 327.528 168.171 329.032C168.971 330.504 170.043 331.64 171.387 332.44C172.731 333.208 174.219 333.592 175.851 333.592C177.483 333.592 178.971 333.208 180.315 332.44C181.691 331.64 182.779 330.504 183.579 329.032C184.379 327.528 184.779 325.784 184.779 323.8ZM200.611 314.968C201.379 313.464 202.467 312.296 203.875 311.464C205.315 310.632 207.059 310.216 209.107 310.216V314.728H207.955C203.059 314.728 200.611 317.384 200.611 322.696V337H196.243V310.696H200.611V314.968ZM219.144 314.296V329.8C219.144 331.08 219.416 331.992 219.96 332.536C220.504 333.048 221.448 333.304 222.792 333.304H226.008V337H222.072C219.64 337 217.816 336.44 216.6 335.32C215.384 334.2 214.776 332.36 214.776 329.8V314.296H211.368V310.696H214.776V304.072H219.144V310.696H226.008V314.296H219.144ZM241.654 329.272V325.96L258.502 302.632H263.734V325.48H268.534V329.272H263.734V337H259.414V329.272H241.654ZM259.606 307.192L246.694 325.48H259.606V307.192Z" fill="white"/>
<path d="M622.816 433.392V450H620.632V437.616L615.112 450H613.576L608.032 437.592V450H605.848V433.392H608.2L614.344 447.12L620.488 433.392H622.816ZM631.923 450.216C630.691 450.216 629.571 449.936 628.563 449.376C627.571 448.816 626.787 448.024 626.211 447C625.651 445.96 625.371 444.76 625.371 443.4C625.371 442.056 625.659 440.872 626.235 439.848C626.827 438.808 627.627 438.016 628.635 437.472C629.643 436.912 630.771 436.632 632.019 436.632C633.267 436.632 634.395 436.912 635.403 437.472C636.411 438.016 637.203 438.8 637.779 439.824C638.371 440.848 638.667 442.04 638.667 443.4C638.667 444.76 638.363 445.96 637.755 447C637.163 448.024 636.355 448.816 635.331 449.376C634.307 449.936 633.171 450.216 631.923 450.216ZM631.923 448.296C632.707 448.296 633.443 448.112 634.131 447.744C634.819 447.376 635.371 446.824 635.787 446.088C636.219 445.352 636.435 444.456 636.435 443.4C636.435 442.344 636.227 441.448 635.811 440.712C635.395 439.976 634.851 439.432 634.179 439.08C633.507 438.712 632.779 438.528 631.995 438.528C631.195 438.528 630.459 438.712 629.787 439.08C629.131 439.432 628.603 439.976 628.203 440.712C627.803 441.448 627.603 442.344 627.603 443.4C627.603 444.472 627.795 445.376 628.179 446.112C628.579 446.848 629.107 447.4 629.763 447.768C630.419 448.12 631.139 448.296 631.923 448.296ZM647.613 436.608C649.213 436.608 650.509 437.096 651.501 438.072C652.493 439.032 652.989 440.424 652.989 442.248V450H650.829V442.56C650.829 441.248 650.501 440.248 649.845 439.56C649.189 438.856 648.293 438.504 647.157 438.504C646.005 438.504 645.085 438.864 644.397 439.584C643.725 440.304 643.389 441.352 643.389 442.728V450H641.205V436.848H643.389V438.72C643.821 438.048 644.405 437.528 645.141 437.16C645.893 436.792 646.717 436.608 647.613 436.608ZM668.223 442.92C668.223 443.336 668.199 443.776 668.151 444.24H657.639C657.719 445.536 658.159 446.552 658.959 447.288C659.775 448.008 660.759 448.368 661.911 448.368C662.855 448.368 663.639 448.152 664.263 447.72C664.903 447.272 665.351 446.68 665.607 445.944H667.959C667.607 447.208 666.903 448.24 665.847 449.04C664.791 449.824 663.479 450.216 661.911 450.216C660.663 450.216 659.543 449.936 658.551 449.376C657.575 448.816 656.807 448.024 656.247 447C655.687 445.96 655.407 444.76 655.407 443.4C655.407 442.04 655.679 440.848 656.223 439.824C656.767 438.8 657.527 438.016 658.503 437.472C659.495 436.912 660.631 436.632 661.911 436.632C663.159 436.632 664.263 436.904 665.223 437.448C666.183 437.992 666.919 438.744 667.431 439.704C667.959 440.648 668.223 441.72 668.223 442.92ZM665.967 442.464C665.967 441.632 665.783 440.92 665.415 440.328C665.047 439.72 664.543 439.264 663.903 438.96C663.279 438.64 662.583 438.48 661.815 438.48C660.711 438.48 659.767 438.832 658.983 439.536C658.215 440.24 657.775 441.216 657.663 442.464H665.967ZM682.1 436.848L674.18 456.192H671.924L674.516 449.856L669.212 436.848H671.636L675.764 447.504L679.844 436.848H682.1ZM685.595 448.2H692.051V450H683.099V448.2L689.483 438.624H683.147V436.848H692.003V438.624L685.595 448.2ZM706.551 442.92C706.551 443.336 706.527 443.776 706.479 444.24H695.967C696.047 445.536 696.487 446.552 697.287 447.288C698.103 448.008 699.087 448.368 700.239 448.368C701.183 448.368 701.967 448.152 702.591 447.72C703.231 447.272 703.679 446.68 703.935 445.944H706.287C705.935 447.208 705.231 448.24 704.175 449.04C703.119 449.824 701.807 450.216 700.239 450.216C698.991 450.216 697.871 449.936 696.879 449.376C695.903 448.816 695.135 448.024 694.575 447C694.015 445.96 693.735 444.76 693.735 443.4C693.735 442.04 694.007 440.848 694.551 439.824C695.095 438.8 695.855 438.016 696.831 437.472C697.823 436.912 698.959 436.632 700.239 436.632C701.487 436.632 702.591 436.904 703.551 437.448C704.511 437.992 705.247 438.744 705.759 439.704C706.287 440.648 706.551 441.72 706.551 442.92ZM704.295 442.464C704.295 441.632 704.111 440.92 703.743 440.328C703.375 439.72 702.871 439.264 702.231 438.96C701.607 438.64 700.911 438.48 700.143 438.48C699.039 438.48 698.095 438.832 697.311 439.536C696.543 440.24 696.103 441.216 695.991 442.464H704.295ZM721.101 442.92C721.101 443.336 721.077 443.776 721.029 444.24H710.517C710.597 445.536 711.037 446.552 711.837 447.288C712.653 448.008 713.637 448.368 714.789 448.368C715.733 448.368 716.517 448.152 717.141 447.72C717.781 447.272 718.229 446.68 718.485 445.944H720.837C720.485 447.208 719.781 448.24 718.725 449.04C717.669 449.824 716.357 450.216 714.789 450.216C713.541 450.216 712.421 449.936 711.429 449.376C710.453 448.816 709.685 448.024 709.125 447C708.565 445.96 708.285 444.76 708.285 443.4C708.285 442.04 708.557 440.848 709.101 439.824C709.645 438.8 710.405 438.016 711.381 437.472C712.373 436.912 713.509 436.632 714.789 436.632C716.037 436.632 717.141 436.904 718.101 437.448C719.061 437.992 719.797 438.744 720.309 439.704C720.837 440.648 721.101 441.72 721.101 442.92ZM718.845 442.464C718.845 441.632 718.661 440.92 718.293 440.328C717.925 439.72 717.421 439.264 716.781 438.96C716.157 438.64 715.461 438.48 714.693 438.48C713.589 438.48 712.645 438.832 711.861 439.536C711.093 440.24 710.653 441.216 710.541 442.464H718.845ZM724.346 450.144C723.93 450.144 723.578 450 723.29 449.712C723.002 449.424 722.858 449.072 722.858 448.656C722.858 448.24 723.002 447.888 723.29 447.6C723.578 447.312 723.93 447.168 724.346 447.168C724.746 447.168 725.082 447.312 725.354 447.6C725.642 447.888 725.786 448.24 725.786 448.656C725.786 449.072 725.642 449.424 725.354 449.712C725.082 450 724.746 450.144 724.346 450.144ZM727.54 443.4C727.54 442.04 727.812 440.856 728.356 439.848C728.9 438.824 729.652 438.032 730.612 437.472C731.588 436.912 732.7 436.632 733.948 436.632C735.564 436.632 736.892 437.024 737.932 437.808C738.988 438.592 739.684 439.68 740.02 441.072H737.668C737.444 440.272 737.004 439.64 736.348 439.176C735.708 438.712 734.908 438.48 733.948 438.48C732.7 438.48 731.692 438.912 730.924 439.776C730.156 440.624 729.772 441.832 729.772 443.4C729.772 444.984 730.156 446.208 730.924 447.072C731.692 447.936 732.7 448.368 733.948 448.368C734.908 448.368 735.708 448.144 736.348 447.696C736.988 447.248 737.428 446.608 737.668 445.776H740.02C739.668 447.12 738.964 448.2 737.908 449.016C736.852 449.816 735.532 450.216 733.948 450.216C732.7 450.216 731.588 449.936 730.612 449.376C729.652 448.816 728.9 448.024 728.356 447C727.812 445.976 727.54 444.776 727.54 443.4ZM748.337 450.216C747.105 450.216 745.985 449.936 744.977 449.376C743.985 448.816 743.201 448.024 742.625 447C742.065 445.96 741.785 444.76 741.785 443.4C741.785 442.056 742.073 440.872 742.649 439.848C743.241 438.808 744.041 438.016 745.049 437.472C746.057 436.912 747.185 436.632 748.433 436.632C749.681 436.632 750.809 436.912 751.817 437.472C752.825 438.016 753.617 438.8 754.193 439.824C754.785 440.848 755.081 442.04 755.081 443.4C755.081 444.76 754.777 445.96 754.169 447C753.577 448.024 752.769 448.816 751.745 449.376C750.721 449.936 749.585 450.216 748.337 450.216ZM748.337 448.296C749.121 448.296 749.857 448.112 750.545 447.744C751.233 447.376 751.785 446.824 752.201 446.088C752.633 445.352 752.849 444.456 752.849 443.4C752.849 442.344 752.641 441.448 752.225 440.712C751.809 439.976 751.265 439.432 750.593 439.08C749.921 438.712 749.193 438.528 748.409 438.528C747.609 438.528 746.873 438.712 746.201 439.08C745.545 439.432 745.017 439.976 744.617 440.712C744.217 441.448 744.017 442.344 744.017 443.4C744.017 444.472 744.209 445.376 744.593 446.112C744.993 446.848 745.521 447.4 746.177 447.768C746.833 448.12 747.553 448.296 748.337 448.296ZM758.315 450.144C757.899 450.144 757.547 450 757.259 449.712C756.971 449.424 756.827 449.072 756.827 448.656C756.827 448.24 756.971 447.888 757.259 447.6C757.547 447.312 757.899 447.168 758.315 447.168C758.715 447.168 759.051 447.312 759.323 447.6C759.611 447.888 759.755 448.24 759.755 448.656C759.755 449.072 759.611 449.424 759.323 449.712C759.051 450 758.715 450.144 758.315 450.144ZM763.453 434.712C763.037 434.712 762.685 434.568 762.397 434.28C762.109 433.992 761.965 433.64 761.965 433.224C761.965 432.808 762.109 432.456 762.397 432.168C762.685 431.88 763.037 431.736 763.453 431.736C763.853 431.736 764.189 431.88 764.461 432.168C764.749 432.456 764.893 432.808 764.893 433.224C764.893 433.64 764.749 433.992 764.461 434.28C764.189 434.568 763.853 434.712 763.453 434.712ZM764.509 436.848V450H762.325V436.848H764.509ZM767.081 443.376C767.081 442.032 767.353 440.856 767.897 439.848C768.441 438.824 769.185 438.032 770.129 437.472C771.089 436.912 772.161 436.632 773.345 436.632C774.369 436.632 775.321 436.872 776.201 437.352C777.081 437.816 777.753 438.432 778.217 439.2V432.24H780.425V450H778.217V447.528C777.785 448.312 777.145 448.96 776.297 449.472C775.449 449.968 774.457 450.216 773.321 450.216C772.153 450.216 771.089 449.928 770.129 449.352C769.185 448.776 768.441 447.968 767.897 446.928C767.353 445.888 767.081 444.704 767.081 443.376ZM778.217 443.4C778.217 442.408 778.017 441.544 777.617 440.808C777.217 440.072 776.673 439.512 775.985 439.128C775.313 438.728 774.569 438.528 773.753 438.528C772.937 438.528 772.193 438.72 771.521 439.104C770.849 439.488 770.313 440.048 769.913 440.784C769.513 441.52 769.313 442.384 769.313 443.376C769.313 444.384 769.513 445.264 769.913 446.016C770.313 446.752 770.849 447.32 771.521 447.72C772.193 448.104 772.937 448.296 773.753 448.296C774.569 448.296 775.313 448.104 775.985 447.72C776.673 447.32 777.217 446.752 777.617 446.016C778.017 445.264 778.217 444.392 778.217 443.4Z" fill="white"/>
</g>
<defs>
<linearGradient id="paint0_linear_1421_293" x1="-16.5" y1="245" x2="825" y2="245" gradientUnits="userSpaceOnUse">
<stop stop-color="#0C3D65"/>
<stop offset="1" stop-color="#347AB5"/>
</linearGradient>
<linearGradient id="paint1_linear_1421_293" x1="-16.5" y1="245" x2="825" y2="245" gradientUnits="userSpaceOnUse">
<stop stop-color="#6E33EA"/>
<stop offset="1" stop-color="#4E76F8"/>
</linearGradient>
</defs>
</svg>
