<svg width="825" height="490" viewBox="0 0 825 490" fill="none" xmlns="http://www.w3.org/2000/svg">
<path d="M0 50C0 22.3858 22.3858 0 50 0H775C802.614 0 825 22.3858 825 50V490H0V50Z" fill="url(#paint0_linear_1421_279)"/>
<mask id="mask0_1421_279" style="mask-type:alpha" maskUnits="userSpaceOnUse" x="0" y="0" width="825" height="490">
<path d="M0 50C0 22.3858 22.3858 0 50 0H775C802.614 0 825 22.3858 825 50V490H0V50Z" fill="url(#paint1_linear_1421_279)"/>
</mask>
<g mask="url(#mask0_1421_279)">
<circle cx="766.5" cy="45.5" r="87.5" stroke="white" stroke-opacity="0.13" stroke-width="4"/>
<circle cx="297.5" cy="181.5" r="44.5" stroke="white" stroke-opacity="0.13" stroke-width="4"/>
<circle cx="-15.5" cy="88.5" r="44.5" stroke="white" stroke-opacity="0.13" stroke-width="4"/>
<path d="M591.996 279.997C569.906 263.426 565.432 232.086 582.003 209.996V209.996C598.573 187.906 629.914 183.432 652.004 200.003L692.001 230.007L631.992 310.001L591.996 279.997Z" fill="white" fill-opacity="0.05"/>
<path d="M175.864 289.72L225.187 285.541L233.546 384.187L184.223 388.367C156.983 390.675 133.028 370.464 130.72 343.223C128.412 315.983 148.623 292.029 175.864 289.72Z" stroke="white" stroke-opacity="0.16"/>
<path d="M430.39 68.3073L451.24 66.5404L454.774 108.24L433.924 110.007C422.409 110.982 412.283 102.439 411.307 90.9238C410.331 79.4089 418.875 69.2831 430.39 68.3073Z" stroke="white" stroke-opacity="0.16"/>
<path d="M501.069 370.948C498.265 359.055 505.633 347.14 517.526 344.335V344.335C529.42 341.531 541.335 348.899 544.139 360.793L549.217 382.328L506.146 392.483L501.069 370.948Z" fill="white" fill-opacity="0.05"/>
<path d="M147.848 104.072V149H136.904V122.056L126.856 149H118.024L107.912 121.992V149H96.968V104.072H109.896L122.504 135.176L134.984 104.072H147.848ZM153.542 131.08C153.542 127.411 154.225 124.189 155.59 121.416C156.998 118.643 158.897 116.509 161.286 115.016C163.675 113.523 166.342 112.776 169.286 112.776C171.803 112.776 174.001 113.288 175.878 114.312C177.798 115.336 179.27 116.68 180.294 118.344V113.288H191.238V149H180.294V143.944C179.227 145.608 177.734 146.952 175.814 147.976C173.937 149 171.739 149.512 169.222 149.512C166.321 149.512 163.675 148.765 161.286 147.272C158.897 145.736 156.998 143.581 155.59 140.808C154.225 137.992 153.542 134.749 153.542 131.08ZM180.294 131.144C180.294 128.413 179.526 126.259 177.99 124.68C176.497 123.101 174.662 122.312 172.486 122.312C170.31 122.312 168.454 123.101 166.918 124.68C165.425 126.216 164.678 128.349 164.678 131.08C164.678 133.811 165.425 135.987 166.918 137.608C168.454 139.187 170.31 139.976 172.486 139.976C174.662 139.976 176.497 139.187 177.99 137.608C179.526 136.029 180.294 133.875 180.294 131.144ZM220.98 149L210.1 134.024V149H199.156V101.64H210.1V127.816L220.916 113.288H234.42L219.572 131.208L234.548 149H220.98ZM244.222 109.576C242.302 109.576 240.723 109.021 239.486 107.912C238.291 106.76 237.694 105.352 237.694 103.688C237.694 101.981 238.291 100.573 239.486 99.464C240.723 98.312 242.302 97.736 244.222 97.736C246.099 97.736 247.635 98.312 248.83 99.464C250.067 100.573 250.686 101.981 250.686 103.688C250.686 105.352 250.067 106.76 248.83 107.912C247.635 109.021 246.099 109.576 244.222 109.576ZM249.662 113.288V149H238.718V113.288H249.662ZM279.353 112.904C283.534 112.904 286.862 114.269 289.337 117C291.854 119.688 293.113 123.4 293.113 128.136V149H282.233V129.608C282.233 127.219 281.614 125.363 280.377 124.04C279.14 122.717 277.476 122.056 275.385 122.056C273.294 122.056 271.63 122.717 270.393 124.04C269.156 125.363 268.537 127.219 268.537 129.608V149H257.593V113.288H268.537V118.024C269.646 116.445 271.14 115.208 273.017 114.312C274.894 113.373 277.006 112.904 279.353 112.904ZM314.286 112.776C316.803 112.776 319.001 113.288 320.878 114.312C322.798 115.336 324.27 116.68 325.294 118.344V113.288H336.238V148.936C336.238 152.221 335.577 155.187 334.254 157.832C332.974 160.52 330.99 162.653 328.302 164.232C325.657 165.811 322.35 166.6 318.382 166.6C313.091 166.6 308.803 165.341 305.518 162.824C302.233 160.349 300.355 156.979 299.886 152.712H310.702C311.043 154.077 311.854 155.144 313.134 155.912C314.414 156.723 315.993 157.128 317.87 157.128C320.131 157.128 321.923 156.467 323.246 155.144C324.611 153.864 325.294 151.795 325.294 148.936V143.88C324.227 145.544 322.755 146.909 320.878 147.976C319.001 149 316.803 149.512 314.286 149.512C311.342 149.512 308.675 148.765 306.286 147.272C303.897 145.736 301.998 143.581 300.59 140.808C299.225 137.992 298.542 134.749 298.542 131.08C298.542 127.411 299.225 124.189 300.59 121.416C301.998 118.643 303.897 116.509 306.286 115.016C308.675 113.523 311.342 112.776 314.286 112.776ZM325.294 131.144C325.294 128.413 324.526 126.259 322.99 124.68C321.497 123.101 319.662 122.312 317.486 122.312C315.31 122.312 313.454 123.101 311.918 124.68C310.425 126.216 309.678 128.349 309.678 131.08C309.678 133.811 310.425 135.987 311.918 137.608C313.454 139.187 315.31 139.976 317.486 139.976C319.662 139.976 321.497 139.187 322.99 137.608C324.526 136.029 325.294 133.875 325.294 131.144ZM373.974 149.448C370.689 149.448 367.745 148.915 365.142 147.848C362.539 146.781 360.449 145.203 358.87 143.112C357.334 141.021 356.523 138.504 356.438 135.56H368.086C368.257 137.224 368.833 138.504 369.814 139.4C370.795 140.253 372.075 140.68 373.654 140.68C375.275 140.68 376.555 140.317 377.494 139.592C378.433 138.824 378.902 137.779 378.902 136.456C378.902 135.347 378.518 134.429 377.75 133.704C377.025 132.979 376.107 132.381 374.998 131.912C373.931 131.443 372.395 130.909 370.39 130.312C367.489 129.416 365.121 128.52 363.286 127.624C361.451 126.728 359.873 125.405 358.55 123.656C357.227 121.907 356.566 119.624 356.566 116.808C356.566 112.627 358.081 109.363 361.11 107.016C364.139 104.627 368.086 103.432 372.95 103.432C377.899 103.432 381.889 104.627 384.918 107.016C387.947 109.363 389.569 112.648 389.782 116.872H377.942C377.857 115.421 377.323 114.291 376.342 113.48C375.361 112.627 374.102 112.2 372.566 112.2C371.243 112.2 370.177 112.563 369.366 113.288C368.555 113.971 368.15 114.973 368.15 116.296C368.15 117.747 368.833 118.877 370.198 119.688C371.563 120.499 373.697 121.373 376.598 122.312C379.499 123.293 381.846 124.232 383.638 125.128C385.473 126.024 387.051 127.325 388.374 129.032C389.697 130.739 390.358 132.936 390.358 135.624C390.358 138.184 389.697 140.509 388.374 142.6C387.094 144.691 385.217 146.355 382.742 147.592C380.267 148.829 377.345 149.448 373.974 149.448ZM442.661 112.904C447.098 112.904 450.618 114.248 453.221 116.936C455.866 119.624 457.189 123.357 457.189 128.136V149H446.309V129.608C446.309 127.304 445.69 125.533 444.453 124.296C443.258 123.016 441.594 122.376 439.461 122.376C437.328 122.376 435.642 123.016 434.405 124.296C433.21 125.533 432.613 127.304 432.613 129.608V149H421.733V129.608C421.733 127.304 421.114 125.533 419.877 124.296C418.682 123.016 417.018 122.376 414.885 122.376C412.752 122.376 411.066 123.016 409.829 124.296C408.634 125.533 408.037 127.304 408.037 129.608V149H397.093V113.288H408.037V117.768C409.146 116.275 410.597 115.101 412.389 114.248C414.181 113.352 416.208 112.904 418.469 112.904C421.157 112.904 423.546 113.48 425.637 114.632C427.77 115.784 429.434 117.427 430.629 119.56C431.866 117.597 433.552 115.997 435.685 114.76C437.818 113.523 440.144 112.904 442.661 112.904ZM462.667 131.08C462.667 127.411 463.35 124.189 464.715 121.416C466.123 118.643 468.022 116.509 470.411 115.016C472.8 113.523 475.467 112.776 478.411 112.776C480.928 112.776 483.126 113.288 485.003 114.312C486.923 115.336 488.395 116.68 489.419 118.344V113.288H500.363V149H489.419V143.944C488.352 145.608 486.859 146.952 484.939 147.976C483.062 149 480.864 149.512 478.347 149.512C475.446 149.512 472.8 148.765 470.411 147.272C468.022 145.736 466.123 143.581 464.715 140.808C463.35 137.992 462.667 134.749 462.667 131.08ZM489.419 131.144C489.419 128.413 488.651 126.259 487.115 124.68C485.622 123.101 483.787 122.312 481.611 122.312C479.435 122.312 477.579 123.101 476.043 124.68C474.55 126.216 473.803 128.349 473.803 131.08C473.803 133.811 474.55 135.987 476.043 137.608C477.579 139.187 479.435 139.976 481.611 139.976C483.787 139.976 485.622 139.187 487.115 137.608C488.651 136.029 489.419 133.875 489.419 131.144ZM519.225 119.24C520.505 117.277 522.105 115.741 524.025 114.632C525.945 113.48 528.078 112.904 530.425 112.904V124.488H527.417C524.686 124.488 522.638 125.085 521.273 126.28C519.907 127.432 519.225 129.48 519.225 132.424V149H508.281V113.288H519.225V119.24ZM555.56 139.72V149H549.992C546.024 149 542.93 148.04 540.712 146.12C538.493 144.157 537.384 140.979 537.384 136.584V122.376H533.032V113.288H537.384V104.584H548.328V113.288H555.496V122.376H548.328V136.712C548.328 137.779 548.584 138.547 549.096 139.016C549.608 139.485 550.461 139.72 551.656 139.72H555.56ZM107.912 200.072V245H96.968V200.072H107.912ZM137.603 208.904C141.784 208.904 145.112 210.269 147.587 213C150.104 215.688 151.363 219.4 151.363 224.136V245H140.483V225.608C140.483 223.219 139.864 221.363 138.627 220.04C137.39 218.717 135.726 218.056 133.635 218.056C131.544 218.056 129.88 218.717 128.643 220.04C127.406 221.363 126.787 223.219 126.787 225.608V245H115.843V209.288H126.787V214.024C127.896 212.445 129.39 211.208 131.267 210.312C133.144 209.373 135.256 208.904 137.603 208.904ZM175.032 234.76L182.776 209.288H194.424L181.752 245H168.248L155.576 209.288H167.288L175.032 234.76ZM232.694 226.568C232.694 227.592 232.631 228.659 232.503 229.768H207.735C207.905 231.987 208.609 233.693 209.847 234.888C211.127 236.04 212.684 236.616 214.519 236.616C217.249 236.616 219.148 235.464 220.215 233.16H231.863C231.265 235.507 230.177 237.619 228.599 239.496C227.063 241.373 225.121 242.845 222.775 243.912C220.428 244.979 217.804 245.512 214.903 245.512C211.404 245.512 208.289 244.765 205.559 243.272C202.828 241.779 200.695 239.645 199.159 236.872C197.623 234.099 196.855 230.856 196.855 227.144C196.855 223.432 197.601 220.189 199.095 217.416C200.631 214.643 202.764 212.509 205.495 211.016C208.225 209.523 211.361 208.776 214.903 208.776C218.359 208.776 221.431 209.501 224.119 210.952C226.807 212.403 228.897 214.472 230.391 217.16C231.927 219.848 232.694 222.984 232.694 226.568ZM221.495 223.688C221.495 221.811 220.855 220.317 219.575 219.208C218.295 218.099 216.695 217.544 214.775 217.544C212.94 217.544 211.383 218.077 210.103 219.144C208.865 220.211 208.097 221.725 207.799 223.688H221.495ZM252.996 245.512C249.881 245.512 247.108 244.979 244.676 243.912C242.244 242.845 240.324 241.395 238.916 239.56C237.508 237.683 236.719 235.592 236.548 233.288H247.364C247.492 234.525 248.068 235.528 249.092 236.296C250.116 237.064 251.375 237.448 252.868 237.448C254.233 237.448 255.279 237.192 256.004 236.68C256.772 236.125 257.156 235.421 257.156 234.568C257.156 233.544 256.623 232.797 255.556 232.328C254.489 231.816 252.761 231.261 250.372 230.664C247.812 230.067 245.679 229.448 243.972 228.808C242.265 228.125 240.793 227.08 239.556 225.672C238.319 224.221 237.7 222.28 237.7 219.848C237.7 217.8 238.255 215.944 239.364 214.28C240.516 212.573 242.18 211.229 244.356 210.248C246.575 209.267 249.199 208.776 252.228 208.776C256.708 208.776 260.228 209.885 262.788 212.104C265.391 214.323 266.884 217.267 267.268 220.936H257.156C256.985 219.699 256.431 218.717 255.492 217.992C254.596 217.267 253.401 216.904 251.908 216.904C250.628 216.904 249.647 217.16 248.964 217.672C248.281 218.141 247.94 218.803 247.94 219.656C247.94 220.68 248.473 221.448 249.54 221.96C250.649 222.472 252.356 222.984 254.66 223.496C257.305 224.179 259.46 224.861 261.124 225.544C262.788 226.184 264.239 227.251 265.476 228.744C266.756 230.195 267.417 232.157 267.46 234.632C267.46 236.723 266.863 238.6 265.668 240.264C264.516 241.885 262.831 243.165 260.612 244.104C258.436 245.043 255.897 245.512 252.996 245.512ZM294.06 235.72V245H288.492C284.524 245 281.43 244.04 279.212 242.12C276.993 240.157 275.884 236.979 275.884 232.584V218.376H271.532V209.288H275.884V200.584H286.828V209.288H293.996V218.376H286.828V232.712C286.828 233.779 287.084 234.547 287.596 235.016C288.108 235.485 288.961 235.72 290.156 235.72H294.06ZM345.724 208.904C350.161 208.904 353.681 210.248 356.284 212.936C358.929 215.624 360.252 219.357 360.252 224.136V245H349.372V225.608C349.372 223.304 348.753 221.533 347.516 220.296C346.321 219.016 344.657 218.376 342.524 218.376C340.39 218.376 338.705 219.016 337.468 220.296C336.273 221.533 335.676 223.304 335.676 225.608V245H324.796V225.608C324.796 223.304 324.177 221.533 322.94 220.296C321.745 219.016 320.081 218.376 317.948 218.376C315.814 218.376 314.129 219.016 312.892 220.296C311.697 221.533 311.1 223.304 311.1 225.608V245H300.156V209.288H311.1V213.768C312.209 212.275 313.66 211.101 315.452 210.248C317.244 209.352 319.27 208.904 321.532 208.904C324.22 208.904 326.609 209.48 328.7 210.632C330.833 211.784 332.497 213.427 333.692 215.56C334.929 213.597 336.614 211.997 338.748 210.76C340.881 209.523 343.206 208.904 345.724 208.904ZM401.569 226.568C401.569 227.592 401.506 228.659 401.378 229.768H376.61C376.78 231.987 377.484 233.693 378.722 234.888C380.002 236.04 381.559 236.616 383.394 236.616C386.124 236.616 388.023 235.464 389.09 233.16H400.738C400.14 235.507 399.052 237.619 397.474 239.496C395.938 241.373 393.996 242.845 391.65 243.912C389.303 244.979 386.679 245.512 383.778 245.512C380.279 245.512 377.164 244.765 374.434 243.272C371.703 241.779 369.57 239.645 368.034 236.872C366.498 234.099 365.73 230.856 365.73 227.144C365.73 223.432 366.476 220.189 367.97 217.416C369.506 214.643 371.639 212.509 374.37 211.016C377.1 209.523 380.236 208.776 383.778 208.776C387.234 208.776 390.306 209.501 392.994 210.952C395.682 212.403 397.772 214.472 399.266 217.16C400.802 219.848 401.569 222.984 401.569 226.568ZM390.37 223.688C390.37 221.811 389.73 220.317 388.45 219.208C387.17 218.099 385.57 217.544 383.65 217.544C381.815 217.544 380.258 218.077 378.978 219.144C377.74 220.211 376.972 221.725 376.674 223.688H390.37ZM429.103 208.904C433.284 208.904 436.612 210.269 439.087 213C441.604 215.688 442.863 219.4 442.863 224.136V245H431.983V225.608C431.983 223.219 431.364 221.363 430.127 220.04C428.89 218.717 427.226 218.056 425.135 218.056C423.044 218.056 421.38 218.717 420.143 220.04C418.906 221.363 418.287 223.219 418.287 225.608V245H407.343V209.288H418.287V214.024C419.396 212.445 420.89 211.208 422.767 210.312C424.644 209.373 426.756 208.904 429.103 208.904ZM470.372 235.72V245H464.804C460.836 245 457.743 244.04 455.524 242.12C453.305 240.157 452.196 236.979 452.196 232.584V218.376H447.844V209.288H452.196V200.584H463.14V209.288H470.308V218.376H463.14V232.712C463.14 233.779 463.396 234.547 463.908 235.016C464.42 235.485 465.273 235.72 466.468 235.72H470.372ZM490.996 245.512C487.881 245.512 485.108 244.979 482.676 243.912C480.244 242.845 478.324 241.395 476.916 239.56C475.508 237.683 474.719 235.592 474.548 233.288H485.364C485.492 234.525 486.068 235.528 487.092 236.296C488.116 237.064 489.375 237.448 490.868 237.448C492.233 237.448 493.279 237.192 494.004 236.68C494.772 236.125 495.156 235.421 495.156 234.568C495.156 233.544 494.623 232.797 493.556 232.328C492.489 231.816 490.761 231.261 488.372 230.664C485.812 230.067 483.679 229.448 481.972 228.808C480.265 228.125 478.793 227.08 477.556 225.672C476.319 224.221 475.7 222.28 475.7 219.848C475.7 217.8 476.255 215.944 477.364 214.28C478.516 212.573 480.18 211.229 482.356 210.248C484.575 209.267 487.199 208.776 490.228 208.776C494.708 208.776 498.228 209.885 500.788 212.104C503.391 214.323 504.884 217.267 505.268 220.936H495.156C494.985 219.699 494.431 218.717 493.492 217.992C492.596 217.267 491.401 216.904 489.908 216.904C488.628 216.904 487.647 217.16 486.964 217.672C486.281 218.141 485.94 218.803 485.94 219.656C485.94 220.68 486.473 221.448 487.54 221.96C488.649 222.472 490.356 222.984 492.66 223.496C495.305 224.179 497.46 224.861 499.124 225.544C500.788 226.184 502.239 227.251 503.476 228.744C504.756 230.195 505.417 232.157 505.46 234.632C505.46 236.723 504.863 238.6 503.668 240.264C502.516 241.885 500.831 243.165 498.612 244.104C496.436 245.043 493.897 245.512 490.996 245.512ZM517.276 245.512C515.356 245.512 513.777 244.957 512.54 243.848C511.345 242.696 510.748 241.288 510.748 239.624C510.748 237.917 511.345 236.488 512.54 235.336C513.777 234.184 515.356 233.608 517.276 233.608C519.153 233.608 520.689 234.184 521.884 235.336C523.121 236.488 523.74 237.917 523.74 239.624C523.74 241.288 523.121 242.696 521.884 243.848C520.689 244.957 519.153 245.512 517.276 245.512ZM517.276 219.464C515.356 219.464 513.777 218.909 512.54 217.8C511.345 216.648 510.748 215.24 510.748 213.576C510.748 211.869 511.345 210.44 512.54 209.288C513.777 208.136 515.356 207.56 517.276 207.56C519.153 207.56 520.689 208.136 521.884 209.288C523.121 210.44 523.74 211.869 523.74 213.576C523.74 215.24 523.121 216.648 521.884 217.8C520.689 218.909 519.153 219.464 517.276 219.464ZM571.874 237.064H555.106L552.418 245H540.962L557.218 200.072H569.89L586.146 245H574.562L571.874 237.064ZM569.058 228.616L563.49 212.168L557.986 228.616H569.058ZM596.213 245.512C594.293 245.512 592.714 244.957 591.477 243.848C590.282 242.696 589.685 241.288 589.685 239.624C589.685 237.917 590.282 236.488 591.477 235.336C592.714 234.184 594.293 233.608 596.213 233.608C598.09 233.608 599.626 234.184 600.821 235.336C602.058 236.488 602.677 237.917 602.677 239.624C602.677 241.288 602.058 242.696 600.821 243.848C599.626 244.957 598.09 245.512 596.213 245.512ZM614.276 245.512C612.356 245.512 610.777 244.957 609.54 243.848C608.345 242.696 607.748 241.288 607.748 239.624C607.748 237.917 608.345 236.488 609.54 235.336C610.777 234.184 612.356 233.608 614.276 233.608C616.153 233.608 617.689 234.184 618.884 235.336C620.121 236.488 620.74 237.917 620.74 239.624C620.74 241.288 620.121 242.696 618.884 243.848C617.689 244.957 616.153 245.512 614.276 245.512ZM632.338 245.512C630.418 245.512 628.839 244.957 627.602 243.848C626.407 242.696 625.81 241.288 625.81 239.624C625.81 237.917 626.407 236.488 627.602 235.336C628.839 234.184 630.418 233.608 632.338 233.608C634.215 233.608 635.751 234.184 636.946 235.336C638.183 236.488 638.802 237.917 638.802 239.624C638.802 241.288 638.183 242.696 636.946 243.848C635.751 244.957 634.215 245.512 632.338 245.512Z" fill="white"/>
<path d="M123.192 314.92L121.368 323.56H127.992V327.4H120.552L118.488 337H114.312L116.376 327.4H106.296L104.232 337H100.056L102.12 327.4H94.584V323.56H102.936L104.76 314.92H97.32V311.08H105.576L107.64 301.48H111.816L109.752 311.08H119.832L121.896 301.48H126.072L124.008 311.08H130.68V314.92H123.192ZM119.016 314.92H108.936L107.112 323.56H117.192L119.016 314.92ZM159.043 313.336C159.043 316.12 158.083 318.44 156.163 320.296C154.275 322.12 151.379 323.032 147.475 323.032H141.043V337H136.675V303.544H147.475C151.251 303.544 154.115 304.456 156.067 306.28C158.051 308.104 159.043 310.456 159.043 313.336ZM147.475 319.432C149.907 319.432 151.699 318.904 152.851 317.848C154.003 316.792 154.579 315.288 154.579 313.336C154.579 309.208 152.211 307.144 147.475 307.144H141.043V319.432H147.475ZM162.507 323.752C162.507 321.064 163.051 318.712 164.139 316.696C165.227 314.648 166.715 313.064 168.603 311.944C170.523 310.824 172.651 310.264 174.987 310.264C177.291 310.264 179.291 310.76 180.987 311.752C182.683 312.744 183.947 313.992 184.779 315.496V310.696H189.195V337H184.779V332.104C183.915 333.64 182.619 334.92 180.891 335.944C179.195 336.936 177.211 337.432 174.939 337.432C172.603 337.432 170.491 336.856 168.603 335.704C166.715 334.552 165.227 332.936 164.139 330.856C163.051 328.776 162.507 326.408 162.507 323.752ZM184.779 323.8C184.779 321.816 184.379 320.088 183.579 318.616C182.779 317.144 181.691 316.024 180.315 315.256C178.971 314.456 177.483 314.056 175.851 314.056C174.219 314.056 172.731 314.44 171.387 315.208C170.043 315.976 168.971 317.096 168.171 318.568C167.371 320.04 166.971 321.768 166.971 323.752C166.971 325.768 167.371 327.528 168.171 329.032C168.971 330.504 170.043 331.64 171.387 332.44C172.731 333.208 174.219 333.592 175.851 333.592C177.483 333.592 178.971 333.208 180.315 332.44C181.691 331.64 182.779 330.504 183.579 329.032C184.379 327.528 184.779 325.784 184.779 323.8ZM200.611 314.968C201.379 313.464 202.467 312.296 203.875 311.464C205.315 310.632 207.059 310.216 209.107 310.216V314.728H207.955C203.059 314.728 200.611 317.384 200.611 322.696V337H196.243V310.696H200.611V314.968ZM219.144 314.296V329.8C219.144 331.08 219.416 331.992 219.96 332.536C220.504 333.048 221.448 333.304 222.792 333.304H226.008V337H222.072C219.64 337 217.816 336.44 216.6 335.32C215.384 334.2 214.776 332.36 214.776 329.8V314.296H211.368V310.696H214.776V304.072H219.144V310.696H226.008V314.296H219.144ZM241.558 306.28V302.296H250.582V337H246.166V306.28H241.558Z" fill="white"/>
<path d="M622.816 433.392V450H620.632V437.616L615.112 450H613.576L608.032 437.592V450H605.848V433.392H608.2L614.344 447.12L620.488 433.392H622.816ZM631.923 450.216C630.691 450.216 629.571 449.936 628.563 449.376C627.571 448.816 626.787 448.024 626.211 447C625.651 445.96 625.371 444.76 625.371 443.4C625.371 442.056 625.659 440.872 626.235 439.848C626.827 438.808 627.627 438.016 628.635 437.472C629.643 436.912 630.771 436.632 632.019 436.632C633.267 436.632 634.395 436.912 635.403 437.472C636.411 438.016 637.203 438.8 637.779 439.824C638.371 440.848 638.667 442.04 638.667 443.4C638.667 444.76 638.363 445.96 637.755 447C637.163 448.024 636.355 448.816 635.331 449.376C634.307 449.936 633.171 450.216 631.923 450.216ZM631.923 448.296C632.707 448.296 633.443 448.112 634.131 447.744C634.819 447.376 635.371 446.824 635.787 446.088C636.219 445.352 636.435 444.456 636.435 443.4C636.435 442.344 636.227 441.448 635.811 440.712C635.395 439.976 634.851 439.432 634.179 439.08C633.507 438.712 632.779 438.528 631.995 438.528C631.195 438.528 630.459 438.712 629.787 439.08C629.131 439.432 628.603 439.976 628.203 440.712C627.803 441.448 627.603 442.344 627.603 443.4C627.603 444.472 627.795 445.376 628.179 446.112C628.579 446.848 629.107 447.4 629.763 447.768C630.419 448.12 631.139 448.296 631.923 448.296ZM647.613 436.608C649.213 436.608 650.509 437.096 651.501 438.072C652.493 439.032 652.989 440.424 652.989 442.248V450H650.829V442.56C650.829 441.248 650.501 440.248 649.845 439.56C649.189 438.856 648.293 438.504 647.157 438.504C646.005 438.504 645.085 438.864 644.397 439.584C643.725 440.304 643.389 441.352 643.389 442.728V450H641.205V436.848H643.389V438.72C643.821 438.048 644.405 437.528 645.141 437.16C645.893 436.792 646.717 436.608 647.613 436.608ZM668.223 442.92C668.223 443.336 668.199 443.776 668.151 444.24H657.639C657.719 445.536 658.159 446.552 658.959 447.288C659.775 448.008 660.759 448.368 661.911 448.368C662.855 448.368 663.639 448.152 664.263 447.72C664.903 447.272 665.351 446.68 665.607 445.944H667.959C667.607 447.208 666.903 448.24 665.847 449.04C664.791 449.824 663.479 450.216 661.911 450.216C660.663 450.216 659.543 449.936 658.551 449.376C657.575 448.816 656.807 448.024 656.247 447C655.687 445.96 655.407 444.76 655.407 443.4C655.407 442.04 655.679 440.848 656.223 439.824C656.767 438.8 657.527 438.016 658.503 437.472C659.495 436.912 660.631 436.632 661.911 436.632C663.159 436.632 664.263 436.904 665.223 437.448C666.183 437.992 666.919 438.744 667.431 439.704C667.959 440.648 668.223 441.72 668.223 442.92ZM665.967 442.464C665.967 441.632 665.783 440.92 665.415 440.328C665.047 439.72 664.543 439.264 663.903 438.96C663.279 438.64 662.583 438.48 661.815 438.48C660.711 438.48 659.767 438.832 658.983 439.536C658.215 440.24 657.775 441.216 657.663 442.464H665.967ZM682.1 436.848L674.18 456.192H671.924L674.516 449.856L669.212 436.848H671.636L675.764 447.504L679.844 436.848H682.1ZM685.595 448.2H692.051V450H683.099V448.2L689.483 438.624H683.147V436.848H692.003V438.624L685.595 448.2ZM706.551 442.92C706.551 443.336 706.527 443.776 706.479 444.24H695.967C696.047 445.536 696.487 446.552 697.287 447.288C698.103 448.008 699.087 448.368 700.239 448.368C701.183 448.368 701.967 448.152 702.591 447.72C703.231 447.272 703.679 446.68 703.935 445.944H706.287C705.935 447.208 705.231 448.24 704.175 449.04C703.119 449.824 701.807 450.216 700.239 450.216C698.991 450.216 697.871 449.936 696.879 449.376C695.903 448.816 695.135 448.024 694.575 447C694.015 445.96 693.735 444.76 693.735 443.4C693.735 442.04 694.007 440.848 694.551 439.824C695.095 438.8 695.855 438.016 696.831 437.472C697.823 436.912 698.959 436.632 700.239 436.632C701.487 436.632 702.591 436.904 703.551 437.448C704.511 437.992 705.247 438.744 705.759 439.704C706.287 440.648 706.551 441.72 706.551 442.92ZM704.295 442.464C704.295 441.632 704.111 440.92 703.743 440.328C703.375 439.72 702.871 439.264 702.231 438.96C701.607 438.64 700.911 438.48 700.143 438.48C699.039 438.48 698.095 438.832 697.311 439.536C696.543 440.24 696.103 441.216 695.991 442.464H704.295ZM721.101 442.92C721.101 443.336 721.077 443.776 721.029 444.24H710.517C710.597 445.536 711.037 446.552 711.837 447.288C712.653 448.008 713.637 448.368 714.789 448.368C715.733 448.368 716.517 448.152 717.141 447.72C717.781 447.272 718.229 446.68 718.485 445.944H720.837C720.485 447.208 719.781 448.24 718.725 449.04C717.669 449.824 716.357 450.216 714.789 450.216C713.541 450.216 712.421 449.936 711.429 449.376C710.453 448.816 709.685 448.024 709.125 447C708.565 445.96 708.285 444.76 708.285 443.4C708.285 442.04 708.557 440.848 709.101 439.824C709.645 438.8 710.405 438.016 711.381 437.472C712.373 436.912 713.509 436.632 714.789 436.632C716.037 436.632 717.141 436.904 718.101 437.448C719.061 437.992 719.797 438.744 720.309 439.704C720.837 440.648 721.101 441.72 721.101 442.92ZM718.845 442.464C718.845 441.632 718.661 440.92 718.293 440.328C717.925 439.72 717.421 439.264 716.781 438.96C716.157 438.64 715.461 438.48 714.693 438.48C713.589 438.48 712.645 438.832 711.861 439.536C711.093 440.24 710.653 441.216 710.541 442.464H718.845ZM724.346 450.144C723.93 450.144 723.578 450 723.29 449.712C723.002 449.424 722.858 449.072 722.858 448.656C722.858 448.24 723.002 447.888 723.29 447.6C723.578 447.312 723.93 447.168 724.346 447.168C724.746 447.168 725.082 447.312 725.354 447.6C725.642 447.888 725.786 448.24 725.786 448.656C725.786 449.072 725.642 449.424 725.354 449.712C725.082 450 724.746 450.144 724.346 450.144ZM727.54 443.4C727.54 442.04 727.812 440.856 728.356 439.848C728.9 438.824 729.652 438.032 730.612 437.472C731.588 436.912 732.7 436.632 733.948 436.632C735.564 436.632 736.892 437.024 737.932 437.808C738.988 438.592 739.684 439.68 740.02 441.072H737.668C737.444 440.272 737.004 439.64 736.348 439.176C735.708 438.712 734.908 438.48 733.948 438.48C732.7 438.48 731.692 438.912 730.924 439.776C730.156 440.624 729.772 441.832 729.772 443.4C729.772 444.984 730.156 446.208 730.924 447.072C731.692 447.936 732.7 448.368 733.948 448.368C734.908 448.368 735.708 448.144 736.348 447.696C736.988 447.248 737.428 446.608 737.668 445.776H740.02C739.668 447.12 738.964 448.2 737.908 449.016C736.852 449.816 735.532 450.216 733.948 450.216C732.7 450.216 731.588 449.936 730.612 449.376C729.652 448.816 728.9 448.024 728.356 447C727.812 445.976 727.54 444.776 727.54 443.4ZM748.337 450.216C747.105 450.216 745.985 449.936 744.977 449.376C743.985 448.816 743.201 448.024 742.625 447C742.065 445.96 741.785 444.76 741.785 443.4C741.785 442.056 742.073 440.872 742.649 439.848C743.241 438.808 744.041 438.016 745.049 437.472C746.057 436.912 747.185 436.632 748.433 436.632C749.681 436.632 750.809 436.912 751.817 437.472C752.825 438.016 753.617 438.8 754.193 439.824C754.785 440.848 755.081 442.04 755.081 443.4C755.081 444.76 754.777 445.96 754.169 447C753.577 448.024 752.769 448.816 751.745 449.376C750.721 449.936 749.585 450.216 748.337 450.216ZM748.337 448.296C749.121 448.296 749.857 448.112 750.545 447.744C751.233 447.376 751.785 446.824 752.201 446.088C752.633 445.352 752.849 444.456 752.849 443.4C752.849 442.344 752.641 441.448 752.225 440.712C751.809 439.976 751.265 439.432 750.593 439.08C749.921 438.712 749.193 438.528 748.409 438.528C747.609 438.528 746.873 438.712 746.201 439.08C745.545 439.432 745.017 439.976 744.617 440.712C744.217 441.448 744.017 442.344 744.017 443.4C744.017 444.472 744.209 445.376 744.593 446.112C744.993 446.848 745.521 447.4 746.177 447.768C746.833 448.12 747.553 448.296 748.337 448.296ZM758.315 450.144C757.899 450.144 757.547 450 757.259 449.712C756.971 449.424 756.827 449.072 756.827 448.656C756.827 448.24 756.971 447.888 757.259 447.6C757.547 447.312 757.899 447.168 758.315 447.168C758.715 447.168 759.051 447.312 759.323 447.6C759.611 447.888 759.755 448.24 759.755 448.656C759.755 449.072 759.611 449.424 759.323 449.712C759.051 450 758.715 450.144 758.315 450.144ZM763.453 434.712C763.037 434.712 762.685 434.568 762.397 434.28C762.109 433.992 761.965 433.64 761.965 433.224C761.965 432.808 762.109 432.456 762.397 432.168C762.685 431.88 763.037 431.736 763.453 431.736C763.853 431.736 764.189 431.88 764.461 432.168C764.749 432.456 764.893 432.808 764.893 433.224C764.893 433.64 764.749 433.992 764.461 434.28C764.189 434.568 763.853 434.712 763.453 434.712ZM764.509 436.848V450H762.325V436.848H764.509ZM767.081 443.376C767.081 442.032 767.353 440.856 767.897 439.848C768.441 438.824 769.185 438.032 770.129 437.472C771.089 436.912 772.161 436.632 773.345 436.632C774.369 436.632 775.321 436.872 776.201 437.352C777.081 437.816 777.753 438.432 778.217 439.2V432.24H780.425V450H778.217V447.528C777.785 448.312 777.145 448.96 776.297 449.472C775.449 449.968 774.457 450.216 773.321 450.216C772.153 450.216 771.089 449.928 770.129 449.352C769.185 448.776 768.441 447.968 767.897 446.928C767.353 445.888 767.081 444.704 767.081 443.376ZM778.217 443.4C778.217 442.408 778.017 441.544 777.617 440.808C777.217 440.072 776.673 439.512 775.985 439.128C775.313 438.728 774.569 438.528 773.753 438.528C772.937 438.528 772.193 438.72 771.521 439.104C770.849 439.488 770.313 440.048 769.913 440.784C769.513 441.52 769.313 442.384 769.313 443.376C769.313 444.384 769.513 445.264 769.913 446.016C770.313 446.752 770.849 447.32 771.521 447.72C772.193 448.104 772.937 448.296 773.753 448.296C774.569 448.296 775.313 448.104 775.985 447.72C776.673 447.32 777.217 446.752 777.617 446.016C778.017 445.264 778.217 444.392 778.217 443.4Z" fill="white"/>
</g>
<defs>
<linearGradient id="paint0_linear_1421_279" x1="-16.5" y1="245" x2="825" y2="245" gradientUnits="userSpaceOnUse">
<stop stop-color="#8433EA"/>
<stop offset="1" stop-color="#4E76F8"/>
</linearGradient>
<linearGradient id="paint1_linear_1421_279" x1="-16.5" y1="245" x2="825" y2="245" gradientUnits="userSpaceOnUse">
<stop stop-color="#6E33EA"/>
<stop offset="1" stop-color="#4E76F8"/>
</linearGradient>
</defs>
</svg>
