<svg width="825" height="490" viewBox="0 0 825 490" fill="none" xmlns="http://www.w3.org/2000/svg">
<path d="M0 50C0 22.3858 22.3858 0 50 0H775C802.614 0 825 22.3858 825 50V490H0V50Z" fill="url(#paint0_linear_1421_251)"/>
<mask id="mask0_1421_251" style="mask-type:alpha" maskUnits="userSpaceOnUse" x="0" y="0" width="825" height="490">
<path d="M0 50C0 22.3858 22.3858 0 50 0H775C802.614 0 825 22.3858 825 50V490H0V50Z" fill="url(#paint1_linear_1421_251)"/>
</mask>
<g mask="url(#mask0_1421_251)">
<circle cx="766.5" cy="45.5" r="87.5" stroke="white" stroke-opacity="0.13" stroke-width="4"/>
<circle cx="297.5" cy="181.5" r="44.5" stroke="white" stroke-opacity="0.13" stroke-width="4"/>
<circle cx="-15.5" cy="88.5" r="44.5" stroke="white" stroke-opacity="0.13" stroke-width="4"/>
<path d="M591.996 279.997C569.906 263.426 565.432 232.086 582.003 209.996V209.996C598.573 187.906 629.914 183.432 652.004 200.003L692.001 230.007L631.992 310.001L591.996 279.997Z" fill="white" fill-opacity="0.05"/>
<path d="M175.864 289.72L225.187 285.541L233.546 384.187L184.223 388.367C156.983 390.675 133.028 370.464 130.72 343.223C128.412 315.983 148.623 292.029 175.864 289.72Z" stroke="white" stroke-opacity="0.16"/>
<path d="M430.39 68.3073L451.24 66.5404L454.774 108.24L433.924 110.007C422.409 110.982 412.283 102.439 411.307 90.9238C410.331 79.4089 418.875 69.2831 430.39 68.3073Z" stroke="white" stroke-opacity="0.16"/>
<path d="M501.069 370.948C498.265 359.055 505.633 347.14 517.526 344.335V344.335C529.42 341.531 541.335 348.899 544.139 360.793L549.217 382.328L506.146 392.483L501.069 370.948Z" fill="white" fill-opacity="0.05"/>
<path d="M129.288 104.072V112.84H117.384V149H106.44V112.84H94.536V104.072H129.288ZM156.733 112.904C160.829 112.904 164.114 114.269 166.589 117C169.063 119.688 170.301 123.4 170.301 128.136V149H159.421V129.608C159.421 127.219 158.802 125.363 157.565 124.04C156.327 122.717 154.663 122.056 152.573 122.056C150.482 122.056 148.818 122.717 147.581 124.04C146.343 125.363 145.725 127.219 145.725 129.608V149H134.781V101.64H145.725V118.088C146.834 116.509 148.349 115.251 150.269 114.312C152.189 113.373 154.343 112.904 156.733 112.904ZM211.569 130.568C211.569 131.592 211.506 132.659 211.378 133.768H186.61C186.78 135.987 187.484 137.693 188.722 138.888C190.002 140.04 191.559 140.616 193.394 140.616C196.124 140.616 198.023 139.464 199.09 137.16H210.738C210.14 139.507 209.052 141.619 207.474 143.496C205.938 145.373 203.996 146.845 201.65 147.912C199.303 148.979 196.679 149.512 193.778 149.512C190.279 149.512 187.164 148.765 184.434 147.272C181.703 145.779 179.57 143.645 178.034 140.872C176.498 138.099 175.73 134.856 175.73 131.144C175.73 127.432 176.476 124.189 177.97 121.416C179.506 118.643 181.639 116.509 184.37 115.016C187.1 113.523 190.236 112.776 193.778 112.776C197.234 112.776 200.306 113.501 202.994 114.952C205.682 116.403 207.772 118.472 209.266 121.16C210.802 123.848 211.569 126.984 211.569 130.568ZM200.37 127.688C200.37 125.811 199.73 124.317 198.45 123.208C197.17 122.099 195.57 121.544 193.65 121.544C191.815 121.544 190.258 122.077 188.978 123.144C187.74 124.211 186.972 125.725 186.674 127.688H200.37ZM259.642 110.472L243.578 149H232.378L248.634 111.688H228.73V102.344H259.642V110.472ZM317.63 104.072V149H306.686V130.504H289.662V149H278.718V104.072H289.662V121.672H306.686V104.072H317.63ZM323.355 131.08C323.355 127.411 324.037 124.189 325.403 121.416C326.811 118.643 328.709 116.509 331.099 115.016C333.488 113.523 336.155 112.776 339.099 112.776C341.616 112.776 343.813 113.288 345.691 114.312C347.611 115.336 349.083 116.68 350.107 118.344V113.288H361.051V149H350.107V143.944C349.04 145.608 347.547 146.952 345.627 147.976C343.749 149 341.552 149.512 339.035 149.512C336.133 149.512 333.488 148.765 331.099 147.272C328.709 145.736 326.811 143.581 325.403 140.808C324.037 137.992 323.355 134.749 323.355 131.08ZM350.107 131.144C350.107 128.413 349.339 126.259 347.803 124.68C346.309 123.101 344.475 122.312 342.299 122.312C340.123 122.312 338.267 123.101 336.731 124.68C335.237 126.216 334.491 128.349 334.491 131.08C334.491 133.811 335.237 135.987 336.731 137.608C338.267 139.187 340.123 139.976 342.299 139.976C344.475 139.976 346.309 139.187 347.803 137.608C349.339 136.029 350.107 133.875 350.107 131.144ZM379.912 118.344C380.936 116.68 382.408 115.336 384.328 114.312C386.248 113.288 388.445 112.776 390.92 112.776C393.864 112.776 396.531 113.523 398.92 115.016C401.309 116.509 403.187 118.643 404.552 121.416C405.96 124.189 406.664 127.411 406.664 131.08C406.664 134.749 405.96 137.992 404.552 140.808C403.187 143.581 401.309 145.736 398.92 147.272C396.531 148.765 393.864 149.512 390.92 149.512C388.403 149.512 386.205 149.021 384.328 148.04C382.451 147.016 380.979 145.672 379.912 144.008V149H368.968V101.64H379.912V118.344ZM395.528 131.08C395.528 128.349 394.76 126.216 393.224 124.68C391.731 123.101 389.875 122.312 387.656 122.312C385.48 122.312 383.624 123.101 382.088 124.68C380.595 126.259 379.848 128.413 379.848 131.144C379.848 133.875 380.595 136.029 382.088 137.608C383.624 139.187 385.48 139.976 387.656 139.976C389.832 139.976 391.688 139.187 393.224 137.608C394.76 135.987 395.528 133.811 395.528 131.08ZM417.91 109.576C415.99 109.576 414.411 109.021 413.174 107.912C411.979 106.76 411.382 105.352 411.382 103.688C411.382 101.981 411.979 100.573 413.174 99.464C414.411 98.312 415.99 97.736 417.91 97.736C419.787 97.736 421.323 98.312 422.518 99.464C423.755 100.573 424.374 101.981 424.374 103.688C424.374 105.352 423.755 106.76 422.518 107.912C421.323 109.021 419.787 109.576 417.91 109.576ZM423.35 113.288V149H412.406V113.288H423.35ZM451.185 139.72V149H445.617C441.649 149 438.555 148.04 436.337 146.12C434.118 144.157 433.009 140.979 433.009 136.584V122.376H428.657V113.288H433.009V104.584H443.953V113.288H451.121V122.376H443.953V136.712C443.953 137.779 444.209 138.547 444.721 139.016C445.233 139.485 446.086 139.72 447.281 139.72H451.185ZM471.809 149.512C468.694 149.512 465.921 148.979 463.489 147.912C461.057 146.845 459.137 145.395 457.729 143.56C456.321 141.683 455.531 139.592 455.361 137.288H466.177C466.305 138.525 466.881 139.528 467.905 140.296C468.929 141.064 470.187 141.448 471.681 141.448C473.046 141.448 474.091 141.192 474.817 140.68C475.585 140.125 475.969 139.421 475.969 138.568C475.969 137.544 475.435 136.797 474.369 136.328C473.302 135.816 471.574 135.261 469.185 134.664C466.625 134.067 464.491 133.448 462.785 132.808C461.078 132.125 459.606 131.08 458.369 129.672C457.131 128.221 456.513 126.28 456.513 123.848C456.513 121.8 457.067 119.944 458.177 118.28C459.329 116.573 460.993 115.229 463.169 114.248C465.387 113.267 468.011 112.776 471.041 112.776C475.521 112.776 479.041 113.885 481.601 116.104C484.203 118.323 485.697 121.267 486.081 124.936H475.969C475.798 123.699 475.243 122.717 474.305 121.992C473.409 121.267 472.214 120.904 470.721 120.904C469.441 120.904 468.459 121.16 467.777 121.672C467.094 122.141 466.753 122.803 466.753 123.656C466.753 124.68 467.286 125.448 468.353 125.96C469.462 126.472 471.169 126.984 473.473 127.496C476.118 128.179 478.273 128.861 479.937 129.544C481.601 130.184 483.051 131.251 484.289 132.744C485.569 134.195 486.23 136.157 486.273 138.632C486.273 140.723 485.675 142.6 484.481 144.264C483.329 145.885 481.643 147.165 479.425 148.104C477.249 149.043 474.71 149.512 471.809 149.512ZM522.787 149.512C519.288 149.512 516.131 148.765 513.315 147.272C510.541 145.779 508.344 143.645 506.723 140.872C505.144 138.099 504.355 134.856 504.355 131.144C504.355 127.475 505.165 124.253 506.786 121.48C508.408 118.664 510.627 116.509 513.443 115.016C516.259 113.523 519.416 112.776 522.915 112.776C526.413 112.776 529.571 113.523 532.387 115.016C535.203 116.509 537.421 118.664 539.043 121.48C540.664 124.253 541.475 127.475 541.475 131.144C541.475 134.813 540.643 138.056 538.979 140.872C537.357 143.645 535.117 145.779 532.259 147.272C529.443 148.765 526.285 149.512 522.787 149.512ZM522.787 140.04C524.877 140.04 526.648 139.272 528.099 137.736C529.592 136.2 530.339 134.003 530.339 131.144C530.339 128.285 529.613 126.088 528.163 124.552C526.755 123.016 525.005 122.248 522.915 122.248C520.781 122.248 519.011 123.016 517.603 124.552C516.195 126.045 515.491 128.243 515.491 131.144C515.491 134.003 516.173 136.2 517.539 137.736C518.947 139.272 520.696 140.04 522.787 140.04ZM565.201 122.376H559.312V149H548.369V122.376H544.401V113.288H548.369V112.264C548.369 107.869 549.627 104.541 552.145 102.28C554.662 99.976 558.353 98.824 563.217 98.824C564.027 98.824 564.625 98.8453 565.009 98.888V108.168C562.918 108.04 561.446 108.339 560.593 109.064C559.739 109.789 559.312 111.091 559.312 112.968V113.288H565.201V122.376ZM135.88 200.072V245H124.936V226.504H107.912V245H96.968V200.072H107.912V217.672H124.936V200.072H135.88ZM149.285 205.576C147.365 205.576 145.786 205.021 144.549 203.912C143.354 202.76 142.757 201.352 142.757 199.688C142.757 197.981 143.354 196.573 144.549 195.464C145.786 194.312 147.365 193.736 149.285 193.736C151.162 193.736 152.698 194.312 153.893 195.464C155.13 196.573 155.749 197.981 155.749 199.688C155.749 201.352 155.13 202.76 153.893 203.912C152.698 205.021 151.162 205.576 149.285 205.576ZM154.725 209.288V245H143.781V209.288H154.725ZM176.224 208.776C178.741 208.776 180.938 209.288 182.816 210.312C184.736 211.336 186.208 212.68 187.232 214.344V209.288H198.176V244.936C198.176 248.221 197.514 251.187 196.192 253.832C194.912 256.52 192.928 258.653 190.24 260.232C187.594 261.811 184.288 262.6 180.32 262.6C175.029 262.6 170.741 261.341 167.456 258.824C164.17 256.349 162.293 252.979 161.824 248.712H172.64C172.981 250.077 173.792 251.144 175.072 251.912C176.352 252.723 177.93 253.128 179.808 253.128C182.069 253.128 183.861 252.467 185.184 251.144C186.549 249.864 187.232 247.795 187.232 244.936V239.88C186.165 241.544 184.693 242.909 182.816 243.976C180.938 245 178.741 245.512 176.224 245.512C173.28 245.512 170.613 244.765 168.224 243.272C165.834 241.736 163.936 239.581 162.528 236.808C161.162 233.992 160.48 230.749 160.48 227.08C160.48 223.411 161.162 220.189 162.528 217.416C163.936 214.643 165.834 212.509 168.224 211.016C170.613 209.523 173.28 208.776 176.224 208.776ZM187.232 227.144C187.232 224.413 186.464 222.259 184.928 220.68C183.434 219.101 181.6 218.312 179.424 218.312C177.248 218.312 175.392 219.101 173.856 220.68C172.362 222.216 171.616 224.349 171.616 227.08C171.616 229.811 172.362 231.987 173.856 233.608C175.392 235.187 177.248 235.976 179.424 235.976C181.6 235.976 183.434 235.187 184.928 233.608C186.464 232.029 187.232 229.875 187.232 227.144ZM228.045 208.904C232.141 208.904 235.426 210.269 237.901 213C240.376 215.688 241.613 219.4 241.613 224.136V245H230.733V225.608C230.733 223.219 230.114 221.363 228.877 220.04C227.64 218.717 225.976 218.056 223.885 218.056C221.794 218.056 220.13 218.717 218.893 220.04C217.656 221.363 217.037 223.219 217.037 225.608V245H206.093V197.64H217.037V214.088C218.146 212.509 219.661 211.251 221.581 210.312C223.501 209.373 225.656 208.904 228.045 208.904ZM260.162 197.64V245H249.218V197.64H260.162ZM304.573 209.288L282.173 261.96H270.397L278.589 243.784L264.061 209.288H276.285L284.541 231.624L292.733 209.288H304.573ZM333.037 208.84V217.928H347.693V226.376H333.037V236.232H349.613V245H322.093V200.072H349.613V208.84H333.037ZM374.638 218.376H368.75V245H357.806V218.376H353.838V209.288H357.806V208.264C357.806 203.869 359.065 200.541 361.582 198.28C364.099 195.976 367.79 194.824 372.654 194.824C373.465 194.824 374.062 194.845 374.446 194.888V204.168C372.355 204.04 370.883 204.339 370.03 205.064C369.177 205.789 368.75 207.091 368.75 208.968V209.288H374.638V218.376ZM397.701 218.376H391.812V245H380.869V218.376H376.901V209.288H380.869V208.264C380.869 203.869 382.127 200.541 384.645 198.28C387.162 195.976 390.853 194.824 395.717 194.824C396.527 194.824 397.125 194.845 397.509 194.888V204.168C395.418 204.04 393.946 204.339 393.093 205.064C392.239 205.789 391.812 207.091 391.812 208.968V209.288H397.701V218.376ZM436.507 226.568C436.507 227.592 436.443 228.659 436.315 229.768H411.547C411.718 231.987 412.422 233.693 413.659 234.888C414.939 236.04 416.496 236.616 418.331 236.616C421.062 236.616 422.96 235.464 424.027 233.16H435.675C435.078 235.507 433.99 237.619 432.411 239.496C430.875 241.373 428.934 242.845 426.587 243.912C424.24 244.979 421.616 245.512 418.715 245.512C415.216 245.512 412.102 244.765 409.371 243.272C406.64 241.779 404.507 239.645 402.971 236.872C401.435 234.099 400.667 230.856 400.667 227.144C400.667 223.432 401.414 220.189 402.907 217.416C404.443 214.643 406.576 212.509 409.307 211.016C412.038 209.523 415.174 208.776 418.715 208.776C422.171 208.776 425.243 209.501 427.931 210.952C430.619 212.403 432.71 214.472 434.203 217.16C435.739 219.848 436.507 222.984 436.507 226.568ZM425.307 223.688C425.307 221.811 424.667 220.317 423.387 219.208C422.107 218.099 420.507 217.544 418.587 217.544C416.752 217.544 415.195 218.077 413.915 219.144C412.678 220.211 411.91 221.725 411.611 223.688H425.307ZM440.105 227.144C440.105 223.432 440.851 220.189 442.345 217.416C443.881 214.643 445.993 212.509 448.681 211.016C451.411 209.523 454.526 208.776 458.025 208.776C462.505 208.776 466.238 209.949 469.225 212.296C472.254 214.643 474.238 217.949 475.177 222.216H463.529C462.547 219.485 460.649 218.12 457.833 218.12C455.827 218.12 454.227 218.909 453.033 220.488C451.838 222.024 451.241 224.243 451.241 227.144C451.241 230.045 451.838 232.285 453.033 233.864C454.227 235.4 455.827 236.168 457.833 236.168C460.649 236.168 462.547 234.803 463.529 232.072H475.177C474.238 236.253 472.254 239.539 469.225 241.928C466.195 244.317 462.462 245.512 458.025 245.512C454.526 245.512 451.411 244.765 448.681 243.272C445.993 241.779 443.881 239.645 442.345 236.872C440.851 234.099 440.105 230.856 440.105 227.144ZM500.935 235.72V245H495.367C491.399 245 488.305 244.04 486.087 242.12C483.868 240.157 482.759 236.979 482.759 232.584V218.376H478.407V209.288H482.759V200.584H493.703V209.288H500.871V218.376H493.703V232.712C493.703 233.779 493.959 234.547 494.471 235.016C494.983 235.485 495.836 235.72 497.031 235.72H500.935ZM512.535 205.576C510.615 205.576 509.036 205.021 507.799 203.912C506.604 202.76 506.007 201.352 506.007 199.688C506.007 197.981 506.604 196.573 507.799 195.464C509.036 194.312 510.615 193.736 512.535 193.736C514.412 193.736 515.948 194.312 517.143 195.464C518.38 196.573 518.999 197.981 518.999 199.688C518.999 201.352 518.38 202.76 517.143 203.912C515.948 205.021 514.412 205.576 512.535 205.576ZM517.975 209.288V245H507.031V209.288H517.975ZM541.97 234.76L549.714 209.288H561.362L548.69 245H535.186L522.514 209.288H534.226L541.97 234.76ZM599.632 226.568C599.632 227.592 599.568 228.659 599.44 229.768H574.672C574.843 231.987 575.547 233.693 576.784 234.888C578.064 236.04 579.621 236.616 581.456 236.616C584.187 236.616 586.085 235.464 587.152 233.16H598.8C598.203 235.507 597.115 237.619 595.536 239.496C594 241.373 592.059 242.845 589.712 243.912C587.365 244.979 584.741 245.512 581.84 245.512C578.341 245.512 575.227 244.765 572.496 243.272C569.765 241.779 567.632 239.645 566.096 236.872C564.56 234.099 563.792 230.856 563.792 227.144C563.792 223.432 564.539 220.189 566.032 217.416C567.568 214.643 569.701 212.509 572.432 211.016C575.163 209.523 578.299 208.776 581.84 208.776C585.296 208.776 588.368 209.501 591.056 210.952C593.744 212.403 595.835 214.472 597.328 217.16C598.864 219.848 599.632 222.984 599.632 226.568ZM588.432 223.688C588.432 221.811 587.792 220.317 586.512 219.208C585.232 218.099 583.632 217.544 581.712 217.544C579.877 217.544 578.32 218.077 577.04 219.144C575.803 220.211 575.035 221.725 574.736 223.688H588.432ZM610.526 245.512C608.606 245.512 607.027 244.957 605.79 243.848C604.595 242.696 603.998 241.288 603.998 239.624C603.998 237.917 604.595 236.488 605.79 235.336C607.027 234.184 608.606 233.608 610.526 233.608C612.403 233.608 613.939 234.184 615.134 235.336C616.371 236.488 616.99 237.917 616.99 239.624C616.99 241.288 616.371 242.696 615.134 243.848C613.939 244.957 612.403 245.512 610.526 245.512ZM628.588 245.512C626.668 245.512 625.089 244.957 623.852 243.848C622.657 242.696 622.06 241.288 622.06 239.624C622.06 237.917 622.657 236.488 623.852 235.336C625.089 234.184 626.668 233.608 628.588 233.608C630.465 233.608 632.001 234.184 633.196 235.336C634.433 236.488 635.052 237.917 635.052 239.624C635.052 241.288 634.433 242.696 633.196 243.848C632.001 244.957 630.465 245.512 628.588 245.512ZM646.651 245.512C644.731 245.512 643.152 244.957 641.915 243.848C640.72 242.696 640.123 241.288 640.123 239.624C640.123 237.917 640.72 236.488 641.915 235.336C643.152 234.184 644.731 233.608 646.651 233.608C648.528 233.608 650.064 234.184 651.259 235.336C652.496 236.488 653.115 237.917 653.115 239.624C653.115 241.288 652.496 242.696 651.259 243.848C650.064 244.957 648.528 245.512 646.651 245.512Z" fill="white"/>
<path d="M123.192 314.92L121.368 323.56H127.992V327.4H120.552L118.488 337H114.312L116.376 327.4H106.296L104.232 337H100.056L102.12 327.4H94.584V323.56H102.936L104.76 314.92H97.32V311.08H105.576L107.64 301.48H111.816L109.752 311.08H119.832L121.896 301.48H126.072L124.008 311.08H130.68V314.92H123.192ZM119.016 314.92H108.936L107.112 323.56H117.192L119.016 314.92ZM159.043 313.336C159.043 316.12 158.083 318.44 156.163 320.296C154.275 322.12 151.379 323.032 147.475 323.032H141.043V337H136.675V303.544H147.475C151.251 303.544 154.115 304.456 156.067 306.28C158.051 308.104 159.043 310.456 159.043 313.336ZM147.475 319.432C149.907 319.432 151.699 318.904 152.851 317.848C154.003 316.792 154.579 315.288 154.579 313.336C154.579 309.208 152.211 307.144 147.475 307.144H141.043V319.432H147.475ZM162.507 323.752C162.507 321.064 163.051 318.712 164.139 316.696C165.227 314.648 166.715 313.064 168.603 311.944C170.523 310.824 172.651 310.264 174.987 310.264C177.291 310.264 179.291 310.76 180.987 311.752C182.683 312.744 183.947 313.992 184.779 315.496V310.696H189.195V337H184.779V332.104C183.915 333.64 182.619 334.92 180.891 335.944C179.195 336.936 177.211 337.432 174.939 337.432C172.603 337.432 170.491 336.856 168.603 335.704C166.715 334.552 165.227 332.936 164.139 330.856C163.051 328.776 162.507 326.408 162.507 323.752ZM184.779 323.8C184.779 321.816 184.379 320.088 183.579 318.616C182.779 317.144 181.691 316.024 180.315 315.256C178.971 314.456 177.483 314.056 175.851 314.056C174.219 314.056 172.731 314.44 171.387 315.208C170.043 315.976 168.971 317.096 168.171 318.568C167.371 320.04 166.971 321.768 166.971 323.752C166.971 325.768 167.371 327.528 168.171 329.032C168.971 330.504 170.043 331.64 171.387 332.44C172.731 333.208 174.219 333.592 175.851 333.592C177.483 333.592 178.971 333.208 180.315 332.44C181.691 331.64 182.779 330.504 183.579 329.032C184.379 327.528 184.779 325.784 184.779 323.8ZM200.611 314.968C201.379 313.464 202.467 312.296 203.875 311.464C205.315 310.632 207.059 310.216 209.107 310.216V314.728H207.955C203.059 314.728 200.611 317.384 200.611 322.696V337H196.243V310.696H200.611V314.968ZM219.144 314.296V329.8C219.144 331.08 219.416 331.992 219.96 332.536C220.504 333.048 221.448 333.304 222.792 333.304H226.008V337H222.072C219.64 337 217.816 336.44 216.6 335.32C215.384 334.2 214.776 332.36 214.776 329.8V314.296H211.368V310.696H214.776V304.072H219.144V310.696H226.008V314.296H219.144ZM241.558 306.28V302.296H250.582V337H246.166V306.28H241.558Z" fill="white"/>
<path d="M622.816 433.392V450H620.632V437.616L615.112 450H613.576L608.032 437.592V450H605.848V433.392H608.2L614.344 447.12L620.488 433.392H622.816ZM631.923 450.216C630.691 450.216 629.571 449.936 628.563 449.376C627.571 448.816 626.787 448.024 626.211 447C625.651 445.96 625.371 444.76 625.371 443.4C625.371 442.056 625.659 440.872 626.235 439.848C626.827 438.808 627.627 438.016 628.635 437.472C629.643 436.912 630.771 436.632 632.019 436.632C633.267 436.632 634.395 436.912 635.403 437.472C636.411 438.016 637.203 438.8 637.779 439.824C638.371 440.848 638.667 442.04 638.667 443.4C638.667 444.76 638.363 445.96 637.755 447C637.163 448.024 636.355 448.816 635.331 449.376C634.307 449.936 633.171 450.216 631.923 450.216ZM631.923 448.296C632.707 448.296 633.443 448.112 634.131 447.744C634.819 447.376 635.371 446.824 635.787 446.088C636.219 445.352 636.435 444.456 636.435 443.4C636.435 442.344 636.227 441.448 635.811 440.712C635.395 439.976 634.851 439.432 634.179 439.08C633.507 438.712 632.779 438.528 631.995 438.528C631.195 438.528 630.459 438.712 629.787 439.08C629.131 439.432 628.603 439.976 628.203 440.712C627.803 441.448 627.603 442.344 627.603 443.4C627.603 444.472 627.795 445.376 628.179 446.112C628.579 446.848 629.107 447.4 629.763 447.768C630.419 448.12 631.139 448.296 631.923 448.296ZM647.613 436.608C649.213 436.608 650.509 437.096 651.501 438.072C652.493 439.032 652.989 440.424 652.989 442.248V450H650.829V442.56C650.829 441.248 650.501 440.248 649.845 439.56C649.189 438.856 648.293 438.504 647.157 438.504C646.005 438.504 645.085 438.864 644.397 439.584C643.725 440.304 643.389 441.352 643.389 442.728V450H641.205V436.848H643.389V438.72C643.821 438.048 644.405 437.528 645.141 437.16C645.893 436.792 646.717 436.608 647.613 436.608ZM668.223 442.92C668.223 443.336 668.199 443.776 668.151 444.24H657.639C657.719 445.536 658.159 446.552 658.959 447.288C659.775 448.008 660.759 448.368 661.911 448.368C662.855 448.368 663.639 448.152 664.263 447.72C664.903 447.272 665.351 446.68 665.607 445.944H667.959C667.607 447.208 666.903 448.24 665.847 449.04C664.791 449.824 663.479 450.216 661.911 450.216C660.663 450.216 659.543 449.936 658.551 449.376C657.575 448.816 656.807 448.024 656.247 447C655.687 445.96 655.407 444.76 655.407 443.4C655.407 442.04 655.679 440.848 656.223 439.824C656.767 438.8 657.527 438.016 658.503 437.472C659.495 436.912 660.631 436.632 661.911 436.632C663.159 436.632 664.263 436.904 665.223 437.448C666.183 437.992 666.919 438.744 667.431 439.704C667.959 440.648 668.223 441.72 668.223 442.92ZM665.967 442.464C665.967 441.632 665.783 440.92 665.415 440.328C665.047 439.72 664.543 439.264 663.903 438.96C663.279 438.64 662.583 438.48 661.815 438.48C660.711 438.48 659.767 438.832 658.983 439.536C658.215 440.24 657.775 441.216 657.663 442.464H665.967ZM682.1 436.848L674.18 456.192H671.924L674.516 449.856L669.212 436.848H671.636L675.764 447.504L679.844 436.848H682.1ZM685.595 448.2H692.051V450H683.099V448.2L689.483 438.624H683.147V436.848H692.003V438.624L685.595 448.2ZM706.551 442.92C706.551 443.336 706.527 443.776 706.479 444.24H695.967C696.047 445.536 696.487 446.552 697.287 447.288C698.103 448.008 699.087 448.368 700.239 448.368C701.183 448.368 701.967 448.152 702.591 447.72C703.231 447.272 703.679 446.68 703.935 445.944H706.287C705.935 447.208 705.231 448.24 704.175 449.04C703.119 449.824 701.807 450.216 700.239 450.216C698.991 450.216 697.871 449.936 696.879 449.376C695.903 448.816 695.135 448.024 694.575 447C694.015 445.96 693.735 444.76 693.735 443.4C693.735 442.04 694.007 440.848 694.551 439.824C695.095 438.8 695.855 438.016 696.831 437.472C697.823 436.912 698.959 436.632 700.239 436.632C701.487 436.632 702.591 436.904 703.551 437.448C704.511 437.992 705.247 438.744 705.759 439.704C706.287 440.648 706.551 441.72 706.551 442.92ZM704.295 442.464C704.295 441.632 704.111 440.92 703.743 440.328C703.375 439.72 702.871 439.264 702.231 438.96C701.607 438.64 700.911 438.48 700.143 438.48C699.039 438.48 698.095 438.832 697.311 439.536C696.543 440.24 696.103 441.216 695.991 442.464H704.295ZM721.101 442.92C721.101 443.336 721.077 443.776 721.029 444.24H710.517C710.597 445.536 711.037 446.552 711.837 447.288C712.653 448.008 713.637 448.368 714.789 448.368C715.733 448.368 716.517 448.152 717.141 447.72C717.781 447.272 718.229 446.68 718.485 445.944H720.837C720.485 447.208 719.781 448.24 718.725 449.04C717.669 449.824 716.357 450.216 714.789 450.216C713.541 450.216 712.421 449.936 711.429 449.376C710.453 448.816 709.685 448.024 709.125 447C708.565 445.96 708.285 444.76 708.285 443.4C708.285 442.04 708.557 440.848 709.101 439.824C709.645 438.8 710.405 438.016 711.381 437.472C712.373 436.912 713.509 436.632 714.789 436.632C716.037 436.632 717.141 436.904 718.101 437.448C719.061 437.992 719.797 438.744 720.309 439.704C720.837 440.648 721.101 441.72 721.101 442.92ZM718.845 442.464C718.845 441.632 718.661 440.92 718.293 440.328C717.925 439.72 717.421 439.264 716.781 438.96C716.157 438.64 715.461 438.48 714.693 438.48C713.589 438.48 712.645 438.832 711.861 439.536C711.093 440.24 710.653 441.216 710.541 442.464H718.845ZM724.346 450.144C723.93 450.144 723.578 450 723.29 449.712C723.002 449.424 722.858 449.072 722.858 448.656C722.858 448.24 723.002 447.888 723.29 447.6C723.578 447.312 723.93 447.168 724.346 447.168C724.746 447.168 725.082 447.312 725.354 447.6C725.642 447.888 725.786 448.24 725.786 448.656C725.786 449.072 725.642 449.424 725.354 449.712C725.082 450 724.746 450.144 724.346 450.144ZM727.54 443.4C727.54 442.04 727.812 440.856 728.356 439.848C728.9 438.824 729.652 438.032 730.612 437.472C731.588 436.912 732.7 436.632 733.948 436.632C735.564 436.632 736.892 437.024 737.932 437.808C738.988 438.592 739.684 439.68 740.02 441.072H737.668C737.444 440.272 737.004 439.64 736.348 439.176C735.708 438.712 734.908 438.48 733.948 438.48C732.7 438.48 731.692 438.912 730.924 439.776C730.156 440.624 729.772 441.832 729.772 443.4C729.772 444.984 730.156 446.208 730.924 447.072C731.692 447.936 732.7 448.368 733.948 448.368C734.908 448.368 735.708 448.144 736.348 447.696C736.988 447.248 737.428 446.608 737.668 445.776H740.02C739.668 447.12 738.964 448.2 737.908 449.016C736.852 449.816 735.532 450.216 733.948 450.216C732.7 450.216 731.588 449.936 730.612 449.376C729.652 448.816 728.9 448.024 728.356 447C727.812 445.976 727.54 444.776 727.54 443.4ZM748.337 450.216C747.105 450.216 745.985 449.936 744.977 449.376C743.985 448.816 743.201 448.024 742.625 447C742.065 445.96 741.785 444.76 741.785 443.4C741.785 442.056 742.073 440.872 742.649 439.848C743.241 438.808 744.041 438.016 745.049 437.472C746.057 436.912 747.185 436.632 748.433 436.632C749.681 436.632 750.809 436.912 751.817 437.472C752.825 438.016 753.617 438.8 754.193 439.824C754.785 440.848 755.081 442.04 755.081 443.4C755.081 444.76 754.777 445.96 754.169 447C753.577 448.024 752.769 448.816 751.745 449.376C750.721 449.936 749.585 450.216 748.337 450.216ZM748.337 448.296C749.121 448.296 749.857 448.112 750.545 447.744C751.233 447.376 751.785 446.824 752.201 446.088C752.633 445.352 752.849 444.456 752.849 443.4C752.849 442.344 752.641 441.448 752.225 440.712C751.809 439.976 751.265 439.432 750.593 439.08C749.921 438.712 749.193 438.528 748.409 438.528C747.609 438.528 746.873 438.712 746.201 439.08C745.545 439.432 745.017 439.976 744.617 440.712C744.217 441.448 744.017 442.344 744.017 443.4C744.017 444.472 744.209 445.376 744.593 446.112C744.993 446.848 745.521 447.4 746.177 447.768C746.833 448.12 747.553 448.296 748.337 448.296ZM758.315 450.144C757.899 450.144 757.547 450 757.259 449.712C756.971 449.424 756.827 449.072 756.827 448.656C756.827 448.24 756.971 447.888 757.259 447.6C757.547 447.312 757.899 447.168 758.315 447.168C758.715 447.168 759.051 447.312 759.323 447.6C759.611 447.888 759.755 448.24 759.755 448.656C759.755 449.072 759.611 449.424 759.323 449.712C759.051 450 758.715 450.144 758.315 450.144ZM763.453 434.712C763.037 434.712 762.685 434.568 762.397 434.28C762.109 433.992 761.965 433.64 761.965 433.224C761.965 432.808 762.109 432.456 762.397 432.168C762.685 431.88 763.037 431.736 763.453 431.736C763.853 431.736 764.189 431.88 764.461 432.168C764.749 432.456 764.893 432.808 764.893 433.224C764.893 433.64 764.749 433.992 764.461 434.28C764.189 434.568 763.853 434.712 763.453 434.712ZM764.509 436.848V450H762.325V436.848H764.509ZM767.081 443.376C767.081 442.032 767.353 440.856 767.897 439.848C768.441 438.824 769.185 438.032 770.129 437.472C771.089 436.912 772.161 436.632 773.345 436.632C774.369 436.632 775.321 436.872 776.201 437.352C777.081 437.816 777.753 438.432 778.217 439.2V432.24H780.425V450H778.217V447.528C777.785 448.312 777.145 448.96 776.297 449.472C775.449 449.968 774.457 450.216 773.321 450.216C772.153 450.216 771.089 449.928 770.129 449.352C769.185 448.776 768.441 447.968 767.897 446.928C767.353 445.888 767.081 444.704 767.081 443.376ZM778.217 443.4C778.217 442.408 778.017 441.544 777.617 440.808C777.217 440.072 776.673 439.512 775.985 439.128C775.313 438.728 774.569 438.528 773.753 438.528C772.937 438.528 772.193 438.72 771.521 439.104C770.849 439.488 770.313 440.048 769.913 440.784C769.513 441.52 769.313 442.384 769.313 443.376C769.313 444.384 769.513 445.264 769.913 446.016C770.313 446.752 770.849 447.32 771.521 447.72C772.193 448.104 772.937 448.296 773.753 448.296C774.569 448.296 775.313 448.104 775.985 447.72C776.673 447.32 777.217 446.752 777.617 446.016C778.017 445.264 778.217 444.392 778.217 443.4Z" fill="white"/>
</g>
<defs>
<linearGradient id="paint0_linear_1421_251" x1="-16.5" y1="245" x2="825" y2="245" gradientUnits="userSpaceOnUse">
<stop stop-color="#8433EA"/>
<stop offset="1" stop-color="#4E76F8"/>
</linearGradient>
<linearGradient id="paint1_linear_1421_251" x1="-16.5" y1="245" x2="825" y2="245" gradientUnits="userSpaceOnUse">
<stop stop-color="#6E33EA"/>
<stop offset="1" stop-color="#4E76F8"/>
</linearGradient>
</defs>
</svg>
