<svg width="202" height="44" viewBox="0 0 202 44" fill="none" xmlns="http://www.w3.org/2000/svg">
<mask id="mask0_3_3628" style="mask-type:luminance" maskUnits="userSpaceOnUse" x="0" y="2" width="41" height="41">
<path d="M40.4 2H0V42.5263H40.4V2Z" fill="white"/>
</mask>
<g mask="url(#mask0_3_3628)">
<path d="M34.4623 36.5601C38.2717 32.7638 40.4073 27.6216 40.3999 22.2632C40.3959 21.9325 40.2608 21.6166 40.0237 21.3842C39.7867 21.1516 39.467 21.0213 39.1339 21.0213C38.8005 21.0213 38.4809 21.1516 38.2438 21.3842C38.0068 21.6166 37.8717 21.9325 37.8676 22.2632C37.873 26.9591 36.0005 31.4653 32.6616 34.7916C31.0408 36.4436 29.1031 37.7566 26.9627 38.6533C24.8224 39.5497 22.5229 40.0116 20.1999 40.0116C17.8769 40.0116 15.5775 39.5497 13.4372 38.6533C11.2969 37.7566 9.35914 36.4436 7.73827 34.7916C4.40388 31.462 2.53231 26.9576 2.53231 22.2625C2.53231 17.5672 4.40388 13.0628 7.73827 9.73309C9.34969 8.09381 11.2729 6.78839 13.3963 5.89253C15.5198 4.99668 17.8013 4.52819 20.1085 4.51425C20.6011 4.52957 21.0682 4.73536 21.4102 5.08772C21.7522 5.44005 21.942 5.91111 21.939 6.4004C21.9363 6.88968 21.741 7.3585 21.3949 7.70689C21.0488 8.05527 20.5793 8.25563 20.0865 8.26526C20.0409 8.26535 19.9952 8.26787 19.9499 8.27278C16.4398 8.38501 13.1092 9.84003 10.6545 12.3336C8.0623 14.9242 6.60743 18.4275 6.60743 22.079C6.60743 25.7306 8.0623 29.2338 10.6545 31.8244C11.9209 33.1123 13.434 34.1357 15.1047 34.8344C16.7754 35.5331 18.5701 35.893 20.3829 35.893C22.1957 35.893 23.9904 35.5331 25.6611 34.8344C27.3317 34.1357 28.8448 33.1123 30.1112 31.8244C32.7075 29.2366 34.1629 25.7315 34.1577 22.079C34.1631 21.5038 34.0535 20.9329 33.8355 20.3999C33.6173 19.8669 33.295 19.382 32.8871 18.9733C32.4791 18.5646 31.9937 18.2402 31.4588 18.0188C30.9238 17.7974 30.3501 17.6834 29.7705 17.6834C29.1908 17.6834 28.6171 17.7974 28.0822 18.0188C27.5473 18.2402 27.0619 18.5646 26.6539 18.9733C26.2459 19.382 25.9237 19.8669 25.7055 20.3999C25.4874 20.9329 25.3779 21.5038 25.3832 22.079C25.3832 22.1157 25.3856 22.1502 25.3886 22.1854C25.3856 22.2206 25.3832 22.2559 25.3832 22.2918C25.3915 23.2948 25.0994 24.2776 24.544 25.1157C23.9887 25.9537 23.1951 26.6089 22.2641 26.9985C21.333 27.3879 20.3062 27.4941 19.3143 27.3035C18.3223 27.1128 17.4097 26.634 16.6924 25.9276C15.975 25.2212 15.4851 24.3193 15.285 23.3361C15.0848 22.3529 15.1833 21.3328 15.5681 20.4054C15.9528 19.4778 16.6064 18.6847 17.4459 18.1265C18.2855 17.5684 19.2731 17.2704 20.2835 17.2703C20.4511 17.2724 20.6174 17.2413 20.7727 17.1791C20.9281 17.1168 21.0695 17.0245 21.1887 16.9076C21.3079 16.7907 21.4026 16.6514 21.4671 16.4979C21.5318 16.3444 21.5651 16.1797 21.5651 16.0134C21.5651 15.847 21.5318 15.6823 21.4671 15.5288C21.4026 15.3753 21.3079 15.2361 21.1887 15.1191C21.0695 15.0022 20.9281 14.9099 20.7727 14.8477C20.6174 14.7854 20.4511 14.7544 20.2835 14.7564C18.784 14.7646 17.3206 15.2136 16.0778 16.0467C14.8351 16.8797 13.8687 18.0595 13.3007 19.4372C12.7326 20.8148 12.5883 22.3287 12.8859 23.7877C13.1836 25.2467 13.9099 26.5854 14.9731 27.6352C16.0364 28.6848 17.389 29.3983 18.8603 29.6858C20.3315 29.973 21.8557 29.8213 23.2402 29.2498C24.6247 28.6782 25.8078 27.7124 26.64 26.4741C27.4723 25.2357 27.9163 23.7804 27.9163 22.2918C27.9163 22.2551 27.9139 22.2206 27.9109 22.1854C27.9139 22.1502 27.9163 22.115 27.9163 22.079C27.9113 21.8341 27.9556 21.5907 28.0467 21.3629C28.1376 21.1353 28.2736 20.9278 28.4462 20.753C28.619 20.578 28.8252 20.439 29.0526 20.3441C29.2801 20.2493 29.5245 20.2004 29.7712 20.2004C30.0179 20.2004 30.2623 20.2493 30.4898 20.3441C30.7173 20.439 30.9235 20.578 31.0962 20.753C31.2688 20.9278 31.4048 21.1353 31.4957 21.3629C31.5868 21.5907 31.6312 21.8341 31.6262 22.079C31.6295 25.0693 30.4371 27.9386 28.311 30.0567C27.2801 31.1081 26.0475 31.9437 24.6859 32.5143C23.3243 33.085 21.8612 33.3788 20.3832 33.3788C18.9054 33.3788 17.4424 33.085 16.0808 32.5143C14.7192 31.9437 13.4866 31.1081 12.4557 30.0567C10.3324 27.9368 9.14055 25.0686 9.14055 22.079C9.14055 19.0894 10.3324 16.2213 12.4557 14.1014C13.4874 13.0513 14.7201 12.2165 16.0813 11.646C17.4426 11.0755 18.9049 10.7808 20.3825 10.7792C20.4961 10.7789 20.6092 10.7634 20.7188 10.733C21.7968 10.5689 22.7755 10.0154 23.4677 9.17887C24.1598 8.34229 24.5164 7.28148 24.4691 6.19994C24.4218 5.11839 23.9738 4.09226 23.2112 3.31841C22.4486 2.54456 21.4252 2.07746 20.3371 2.00673C20.2916 2.00181 20.2458 1.9993 20.1999 1.99921C20.1744 1.99921 20.1491 1.99921 20.1236 1.99921C20.1111 1.99921 20.0989 1.99921 20.0867 1.99921C20.0745 1.99921 20.0619 2.00067 20.0497 2.00104C17.4174 2.02159 14.8153 2.55921 12.3933 3.58289C9.97129 4.60657 7.77738 6.09608 5.93802 7.96553C2.13482 11.7659 0.000297546 16.9054 0.000297546 22.2625C0.000297546 27.6194 2.13482 32.7588 5.93802 36.5592C7.79438 38.4476 10.0125 39.9485 12.4619 40.9729C14.9113 41.9976 17.5424 42.5255 20.2003 42.5255C22.8583 42.5255 25.4893 41.9976 27.9388 40.9729C30.3882 39.9485 32.6062 38.4476 34.4626 36.5592L34.4623 36.5601Z" fill="url(#paint0_linear_3_3628)"/>
</g>
<path d="M76.1013 13.344V33H71.3133V21.212L66.9173 33H63.0533L58.6293 21.184V33H53.8413V13.344H59.4973L65.0133 26.952L70.4733 13.344H76.1013ZM86.6564 33.224C85.1257 33.224 83.7444 32.8973 82.5124 32.244C81.2991 31.5907 80.3377 30.6573 79.6284 29.444C78.9377 28.2307 78.5924 26.812 78.5924 25.188C78.5924 23.5827 78.9471 22.1733 79.6564 20.96C80.3657 19.728 81.3364 18.7853 82.5684 18.132C83.8004 17.4787 85.1817 17.152 86.7124 17.152C88.2431 17.152 89.6244 17.4787 90.8564 18.132C92.0884 18.7853 93.0591 19.728 93.7684 20.96C94.4777 22.1733 94.8324 23.5827 94.8324 25.188C94.8324 26.7933 94.4684 28.212 93.7404 29.444C93.0311 30.6573 92.0511 31.5907 90.8004 32.244C89.5684 32.8973 88.1871 33.224 86.6564 33.224ZM86.6564 29.08C87.5711 29.08 88.3457 28.744 88.9804 28.072C89.6337 27.4 89.9604 26.4387 89.9604 25.188C89.9604 23.9373 89.6431 22.976 89.0084 22.304C88.3924 21.632 87.6271 21.296 86.7124 21.296C85.7791 21.296 85.0044 21.632 84.3884 22.304C83.7724 22.9573 83.4644 23.9187 83.4644 25.188C83.4644 26.4387 83.7631 27.4 84.3604 28.072C84.9764 28.744 85.7417 29.08 86.6564 29.08ZM106.893 17.208C108.722 17.208 110.178 17.8053 111.261 19C112.362 20.176 112.913 21.8 112.913 23.872V33H108.153V24.516C108.153 23.4707 107.882 22.6587 107.341 22.08C106.799 21.5013 106.071 21.212 105.157 21.212C104.242 21.212 103.514 21.5013 102.973 22.08C102.431 22.6587 102.161 23.4707 102.161 24.516V33H97.3725V17.376H102.161V19.448C102.646 18.7573 103.299 18.216 104.121 17.824C104.942 17.4133 105.866 17.208 106.893 17.208ZM130.968 24.936C130.968 25.384 130.94 25.8507 130.884 26.336H120.048C120.122 27.3067 120.43 28.0533 120.972 28.576C121.532 29.08 122.213 29.332 123.016 29.332C124.21 29.332 125.041 28.828 125.508 27.82H130.604C130.342 28.8467 129.866 29.7707 129.176 30.592C128.504 31.4133 127.654 32.0573 126.628 32.524C125.601 32.9907 124.453 33.224 123.184 33.224C121.653 33.224 120.29 32.8973 119.096 32.244C117.901 31.5907 116.968 30.6573 116.296 29.444C115.624 28.2307 115.288 26.812 115.288 25.188C115.288 23.564 115.614 22.1453 116.268 20.932C116.94 19.7187 117.873 18.7853 119.068 18.132C120.262 17.4787 121.634 17.152 123.184 17.152C124.696 17.152 126.04 17.4693 127.216 18.104C128.392 18.7387 129.306 19.644 129.96 20.82C130.632 21.996 130.968 23.368 130.968 24.936ZM126.068 23.676C126.068 22.8547 125.788 22.2013 125.228 21.716C124.668 21.2307 123.968 20.988 123.128 20.988C122.325 20.988 121.644 21.2213 121.084 21.688C120.542 22.1547 120.206 22.8173 120.076 23.676H126.068ZM149.454 17.376L139.654 40.42H134.502L138.086 32.468L131.73 17.376H137.078L140.69 27.148L144.274 17.376H149.454ZM155.665 29.052H162.441V33H150.317V29.192L156.813 21.324H150.373V17.376H162.301V21.184L155.665 29.052ZM179.804 24.936C179.804 25.384 179.776 25.8507 179.72 26.336H168.884C168.958 27.3067 169.266 28.0533 169.808 28.576C170.368 29.08 171.049 29.332 171.852 29.332C173.046 29.332 173.877 28.828 174.344 27.82H179.44C179.178 28.8467 178.702 29.7707 178.012 30.592C177.34 31.4133 176.49 32.0573 175.464 32.524C174.437 32.9907 173.289 33.224 172.02 33.224C170.489 33.224 169.126 32.8973 167.932 32.244C166.737 31.5907 165.804 30.6573 165.132 29.444C164.46 28.2307 164.124 26.812 164.124 25.188C164.124 23.564 164.45 22.1453 165.104 20.932C165.776 19.7187 166.709 18.7853 167.904 18.132C169.098 17.4787 170.47 17.152 172.02 17.152C173.532 17.152 174.876 17.4693 176.052 18.104C177.228 18.7387 178.142 19.644 178.796 20.82C179.468 21.996 179.804 23.368 179.804 24.936ZM174.904 23.676C174.904 22.8547 174.624 22.2013 174.064 21.716C173.504 21.2307 172.804 20.988 171.964 20.988C171.161 20.988 170.48 21.2213 169.92 21.688C169.378 22.1547 169.042 22.8173 168.912 23.676H174.904ZM197.058 24.936C197.058 25.384 197.03 25.8507 196.974 26.336H186.138C186.212 27.3067 186.52 28.0533 187.062 28.576C187.622 29.08 188.303 29.332 189.106 29.332C190.3 29.332 191.131 28.828 191.598 27.82H196.694C196.432 28.8467 195.956 29.7707 195.266 30.592C194.594 31.4133 193.744 32.0573 192.718 32.524C191.691 32.9907 190.543 33.224 189.274 33.224C187.743 33.224 186.38 32.8973 185.186 32.244C183.991 31.5907 183.058 30.6573 182.386 29.444C181.714 28.2307 181.378 26.812 181.378 25.188C181.378 23.564 181.704 22.1453 182.358 20.932C183.03 19.7187 183.963 18.7853 185.158 18.132C186.352 17.4787 187.724 17.152 189.274 17.152C190.786 17.152 192.13 17.4693 193.306 18.104C194.482 18.7387 195.396 19.644 196.05 20.82C196.722 21.996 197.058 23.368 197.058 24.936ZM192.158 23.676C192.158 22.8547 191.878 22.2013 191.318 21.716C190.758 21.2307 190.058 20.988 189.218 20.988C188.415 20.988 187.734 21.2213 187.174 21.688C186.632 22.1547 186.296 22.8173 186.166 23.676H192.158Z" fill="#335EEA"/>
<defs>
<linearGradient id="paint0_linear_3_3628" x1="5.85825" y1="36.4871" x2="31.3482" y2="11.3595" gradientUnits="userSpaceOnUse">
<stop stop-color="#335EEA"/>
<stop offset="0.123" stop-color="#4966C5"/>
<stop offset="0.284" stop-color="#657ECF"/>
<stop offset="0.465" stop-color="#8898CF"/>
<stop offset="0.663" stop-color="#F5CB5D"/>
<stop offset="0.87" stop-color="#F1C759"/>
<stop offset="0.99" stop-color="#FFCD4C"/>
</linearGradient>
</defs>
</svg>
