<svg width="1366" height="511" viewBox="0 0 1366 511" fill="none" xmlns="http://www.w3.org/2000/svg">
<g clip-path="url(#clip0_1_3617)">
<g clip-path="url(#clip1_1_3617)">
<path d="M15.7 234.327H-9.53651C-16.1885 234.327 -21.581 239.719 -21.581 246.371V246.38C-21.581 253.032 -16.1885 258.424 -9.53651 258.424H15.7C22.352 258.424 27.7445 253.032 27.7445 246.38V246.371C27.7445 239.719 22.352 234.327 15.7 234.327Z" stroke="#DDDDDD" stroke-miterlimit="10"/>
<path d="M110.152 136.415H63.776C61.3278 136.415 58.9799 135.443 57.2487 133.712C55.5176 131.98 54.545 129.633 54.545 127.184C54.5439 125.971 54.7818 124.77 55.2452 123.649C55.7086 122.528 56.3884 121.51 57.2457 120.652C58.103 119.793 59.121 119.113 60.2415 118.648C61.362 118.184 62.5631 117.945 63.776 117.945H110.152C111.366 117.944 112.568 118.182 113.69 118.646C114.812 119.11 115.832 119.79 116.691 120.648C117.55 121.506 118.231 122.525 118.696 123.647C119.161 124.768 119.4 125.97 119.4 127.184C119.399 128.398 119.159 129.599 118.693 130.719C118.228 131.84 117.547 132.858 116.688 133.715C115.829 134.572 114.81 135.252 113.688 135.715C112.567 136.179 111.365 136.416 110.152 136.415Z" stroke="#DDDDDD" stroke-miterlimit="10"/>
<path d="M253.904 387.998H216.504C215.393 387.998 214.327 387.557 213.541 386.771C212.755 385.985 212.314 384.919 212.314 383.808C212.314 382.696 212.755 381.63 213.541 380.845C214.327 380.059 215.393 379.617 216.504 379.617H253.904C255.015 379.617 256.081 380.059 256.867 380.845C257.653 381.63 258.094 382.696 258.094 383.808C258.094 384.919 257.653 385.985 256.867 386.771C256.081 387.557 255.015 387.998 253.904 387.998Z" stroke="#DDDDDD" stroke-miterlimit="10"/>
<path d="M314.764 103.886C326.12 109.317 333.609 103.036 340.188 99.8909C342.955 98.5566 346.1 98.2256 349.085 98.9543C352.07 99.6831 354.709 101.426 356.55 103.886L356.04 128.349C356.04 128.349 346.75 125.051 341.463 128.349C336.176 131.647 329.852 139.773 314.747 128.799L314.764 103.886Z" fill="#EDEDED" stroke="#DDDDDD" stroke-width="2" stroke-linecap="round" stroke-linejoin="round"/>
<path d="M358.48 205.384C357.852 205.384 357.25 205.136 356.806 204.693C356.361 204.25 356.11 203.649 356.108 203.021V99.4997C356.108 99.1887 356.169 98.8807 356.289 98.5935C356.408 98.3062 356.583 98.0454 356.803 97.8258C357.023 97.6063 357.285 97.4324 357.573 97.3142C357.86 97.1959 358.169 97.1356 358.48 97.1367C358.791 97.1356 359.099 97.1959 359.386 97.3142C359.674 97.4324 359.936 97.6063 360.156 97.8258C360.376 98.0454 360.551 98.3062 360.67 98.5935C360.79 98.8807 360.851 99.1887 360.851 99.4997V203.021C360.849 203.649 360.598 204.25 360.153 204.693C359.709 205.136 359.107 205.384 358.48 205.384Z" fill="#F9F9F9" stroke="#EDEDED" stroke-width="2" stroke-linecap="round" stroke-linejoin="round"/>
<path d="M340.604 206.166H376.542" stroke="#DDDDDD" stroke-width="2" stroke-linecap="round" stroke-linejoin="round"/>
<path d="M312.69 246.371H298.248V277.073H261.495V312.501" stroke="#DDDDDD" stroke-width="2" stroke-linecap="round" stroke-linejoin="round"/>
<path d="M24.744 445.909H-12.0185V476.373H-66.665V496.356H-178.542" stroke="#DDDDDD" stroke-width="2" stroke-linecap="round" stroke-linejoin="round"/>
<path d="M169.924 342.285V367.641H123.803V394.96H77.7925V422.347H31.901V445.909" stroke="#EDEDED" stroke-width="2" stroke-linecap="round" stroke-linejoin="round"/>
<path d="M251.099 313.037H212.619V342.285H183.549" stroke="#DDDDDD" stroke-width="2" stroke-linecap="round" stroke-linejoin="round"/>
<path d="M15.7 234.327H-9.53651C-16.1885 234.327 -21.581 239.719 -21.581 246.371V246.38C-21.581 253.032 -16.1885 258.424 -9.53651 258.424H15.7C22.352 258.424 27.7445 253.032 27.7445 246.38V246.371C27.7445 239.719 22.352 234.327 15.7 234.327Z" stroke="#DDDDDD" stroke-miterlimit="10"/>
<path d="M110.152 136.415H63.776C61.3278 136.415 58.9799 135.443 57.2487 133.712C55.5176 131.98 54.545 129.633 54.545 127.184C54.5439 125.971 54.7818 124.77 55.2452 123.649C55.7086 122.528 56.3884 121.51 57.2457 120.652C58.103 119.793 59.121 119.113 60.2415 118.648C61.362 118.184 62.5631 117.945 63.776 117.945H110.152C111.366 117.944 112.568 118.182 113.69 118.646C114.812 119.11 115.832 119.79 116.691 120.648C117.55 121.506 118.231 122.525 118.696 123.647C119.161 124.768 119.4 125.97 119.4 127.184C119.399 128.398 119.159 129.599 118.693 130.719C118.228 131.84 117.547 132.858 116.688 133.715C115.829 134.572 114.81 135.252 113.688 135.715C112.567 136.179 111.365 136.416 110.152 136.415Z" stroke="#DDDDDD" stroke-miterlimit="10"/>
<path d="M253.904 387.998H216.504C215.393 387.998 214.327 387.557 213.541 386.771C212.755 385.985 212.314 384.919 212.314 383.808C212.314 382.696 212.755 381.63 213.541 380.845C214.327 380.059 215.393 379.617 216.504 379.617H253.904C255.015 379.617 256.081 380.059 256.867 380.845C257.653 381.63 258.094 382.696 258.094 383.808C258.094 384.919 257.653 385.985 256.867 386.771C256.081 387.557 255.015 387.998 253.904 387.998Z" stroke="#DDDDDD" stroke-miterlimit="10"/>
<path d="M314.764 103.886C326.12 109.317 333.609 103.036 340.188 99.8909C342.955 98.5566 346.1 98.2256 349.085 98.9543C352.07 99.6831 354.709 101.426 356.55 103.886L356.04 128.349C356.04 128.349 346.75 125.051 341.463 128.349C336.176 131.647 329.852 139.773 314.747 128.799L314.764 103.886Z" fill="#EDEDED" stroke="#DDDDDD" stroke-width="2" stroke-linecap="round" stroke-linejoin="round"/>
<path d="M358.48 205.384C357.852 205.384 357.25 205.136 356.806 204.693C356.361 204.25 356.11 203.649 356.108 203.021V99.4997C356.108 99.1887 356.169 98.8807 356.289 98.5935C356.408 98.3062 356.583 98.0454 356.803 97.8258C357.023 97.6063 357.285 97.4324 357.573 97.3142C357.86 97.1959 358.169 97.1356 358.48 97.1367C358.791 97.1356 359.099 97.1959 359.386 97.3142C359.674 97.4324 359.936 97.6063 360.156 97.8258C360.376 98.0454 360.551 98.3062 360.67 98.5935C360.79 98.8807 360.851 99.1887 360.851 99.4997V203.021C360.849 203.649 360.598 204.25 360.153 204.693C359.709 205.136 359.107 205.384 358.48 205.384Z" fill="#F9F9F9" stroke="#EDEDED" stroke-width="2" stroke-linecap="round" stroke-linejoin="round"/>
<path d="M340.604 206.166H376.542" stroke="#DDDDDD" stroke-width="2" stroke-linecap="round" stroke-linejoin="round"/>
<path d="M312.69 246.371H298.248V277.073H261.495V312.501" stroke="#DDDDDD" stroke-width="2" stroke-linecap="round" stroke-linejoin="round"/>
<path d="M24.744 445.909H-12.0185V476.373H-66.665V496.356H-178.542" stroke="#DDDDDD" stroke-width="2" stroke-linecap="round" stroke-linejoin="round"/>
<path d="M169.924 342.285V367.641H123.803V394.96H77.7925V422.347H31.901V445.909" stroke="#EDEDED" stroke-width="2" stroke-linecap="round" stroke-linejoin="round"/>
<path d="M251.099 313.037H212.619V342.285H183.549" stroke="#DDDDDD" stroke-width="2" stroke-linecap="round" stroke-linejoin="round"/>
<path d="M232.986 119.143C232.986 119.143 232.816 119.534 232.51 120.197C232.204 120.86 231.906 121.447 231.464 122.28C231.167 122.858 230.835 123.478 230.461 124.133C230.24 124.532 230.002 124.983 229.747 125.365L229.501 125.765C228.94 126.691 228.319 127.652 227.639 128.595C227.163 129.258 226.662 129.921 226.135 130.559C222.004 135.565 218.536 133.466 218.536 133.466C217.567 134.308 216.763 135.323 216.164 136.458C215.325 138.013 214.717 139.683 214.362 141.413C204.612 148.519 198.425 139.152 201.323 130.822C205.267 127.108 208.785 122.965 211.812 118.472C208.667 114.29 213.903 110.643 216.309 113.04L221.519 110.626C232.501 107.719 232.986 119.143 232.986 119.143Z" fill="#FEBD9D"/>
<path d="M213.214 114.095C214.591 114.095 215.764 114.656 215.501 116.772" stroke="#EF8A66" stroke-width="0.75" stroke-linecap="round" stroke-linejoin="round"/>
<path d="M214.6 117.775C212.603 116.534 214.354 114.902 215.45 115.93" stroke="#EF8A66" stroke-width="0.75" stroke-linecap="round" stroke-linejoin="round"/>
<path d="M224.375 128.349C222.938 127.899 222.318 126.08 222.675 124.507C218.85 127.176 221.706 130.338 224.375 128.349Z" fill="white" stroke="#EF8A66" stroke-width="0.75" stroke-linecap="round" stroke-linejoin="round"/>
<path d="M225.361 126.131C226.653 126.131 227.783 126.352 228.089 123.912C228.165 123.217 228.408 122.552 228.798 121.971C229.187 121.391 229.711 120.914 230.325 120.58" stroke="#EF8A66" stroke-width="0.75" stroke-linecap="round" stroke-linejoin="round"/>
<path d="M211.812 118.472C212.281 119.129 212.939 119.627 213.699 119.9" stroke="#EF8A66" stroke-width="0.75" stroke-linecap="round" stroke-linejoin="round"/>
<path d="M225.259 121.6C225.259 121.768 225.309 121.932 225.402 122.072C225.496 122.212 225.628 122.321 225.784 122.385C225.939 122.45 226.11 122.466 226.275 122.434C226.44 122.401 226.591 122.32 226.71 122.201C226.829 122.082 226.91 121.931 226.943 121.766C226.975 121.601 226.959 121.43 226.894 121.275C226.83 121.119 226.721 120.987 226.581 120.893C226.441 120.8 226.277 120.75 226.109 120.75C225.884 120.75 225.667 120.84 225.508 120.999C225.349 121.158 225.259 121.375 225.259 121.6Z" fill="#683F1D"/>
<path d="M230.461 124.15C230.24 124.55 230.002 125 229.747 125.383H229.688C229.462 125.383 229.246 125.293 229.086 125.134C228.927 124.974 228.838 124.758 228.838 124.533C228.838 124.307 228.927 124.091 229.086 123.932C229.246 123.772 229.462 123.683 229.688 123.683C229.847 123.68 230.005 123.722 230.142 123.805C230.278 123.888 230.389 124.007 230.461 124.15Z" fill="#683F1D"/>
<path d="M238.026 118.336C237.958 119.722 236.683 121.107 234.533 121.141C232.535 121.141 231.065 118.889 231.396 116.67C231.396 116.67 227.996 117.461 227.427 113.032C227.427 113.032 224.656 115.293 223.177 111.621C221.502 113.1 219.971 114.734 218.604 116.5C216.904 118.88 216.054 118.549 216.003 117.537C215.952 116.526 217.014 114.851 217.142 114.647C217.023 114.039 216.728 113.48 216.292 113.041C217.894 110.78 219.634 108.62 221.502 106.572C224.758 102.96 227.877 103.223 227.376 105.96C230.725 103.886 235.383 106.564 233.181 110.72C236.284 109.87 239.666 113.61 236.419 115.88C236.908 116.074 237.324 116.414 237.612 116.854C237.899 117.293 238.044 117.811 238.026 118.336Z" fill="#604730"/>
<path d="M224.936 117.35C224.528 118.583 228.336 119.9 228.906 118.625C229.475 117.35 225.454 115.744 224.936 117.35Z" fill="#604730"/>
<path d="M232.51 120.198C232.255 120.733 231.906 121.447 231.464 122.28C230.708 121.43 230.01 120.308 230.257 119.875C230.648 119.186 231.711 119.671 232.51 120.198Z" fill="#604730"/>
<path d="M218.535 133.5C217.567 134.342 216.763 135.357 216.164 136.492C211.234 132.777 214.37 128.544 214.37 128.544C215.23 130.577 216.681 132.303 218.535 133.5Z" fill="#F4A789"/>
<path d="M238.026 118.336C237.958 119.722 236.683 121.107 234.533 121.141C232.535 121.141 231.065 118.889 231.396 116.67C231.396 116.67 227.996 117.461 227.427 113.032C227.427 113.032 224.656 115.293 223.177 111.621C221.502 113.1 219.971 114.734 218.604 116.5C216.904 118.88 216.054 118.549 216.003 117.537C215.952 116.526 217.014 114.851 217.142 114.647C218.245 113.972 219.167 113.039 219.828 111.927C221.987 108.706 224.205 106.717 226.118 109.097C228.03 111.477 230.24 109.097 231.082 111.978C231.881 114.741 233.683 118.999 238.026 118.336Z" fill="#473526"/>
<path d="M225.65 105.102C225.761 107.592 223.559 110.584 223.559 110.584" stroke="#896442" stroke-width="0.75" stroke-linecap="round" stroke-linejoin="round"/>
<path d="M228.115 112.072C228.567 111.246 229.195 110.529 229.954 109.973C230.714 109.416 231.586 109.033 232.51 108.85" stroke="#896442" stroke-width="0.75" stroke-linecap="round" stroke-linejoin="round"/>
<path d="M231.821 115.922C233.051 115.171 234.48 114.813 235.918 114.894" stroke="#896442" stroke-width="0.75" stroke-linecap="round" stroke-linejoin="round"/>
<path d="M218.383 111.4C218.84 111.599 219.242 111.908 219.552 112.3C219.862 112.691 220.07 113.153 220.159 113.644" stroke="#896442" stroke-width="0.75" stroke-linecap="round" stroke-linejoin="round"/>
<path d="M221.995 122.935C220.865 123.249 219.632 122.314 219.233 120.861C218.833 119.407 219.428 117.971 220.559 117.665C221.689 117.359 222.93 118.285 223.321 119.739C223.712 121.192 223.1 122.629 221.995 122.935Z" fill="#F4AF90"/>
<path d="M229.501 125.765C228.94 126.692 228.319 127.652 227.639 128.596C227.564 128.443 227.515 128.28 227.494 128.111C227.496 127.546 227.698 126.999 228.066 126.569C228.433 126.139 228.942 125.854 229.501 125.765Z" fill="#F4AF90"/>
<path d="M245.702 234.268C244.452 245.734 235.935 240.218 224.043 238.637L217.447 238.373L173.579 236.673L169.915 236.529L182.665 200.574C210.86 208.938 247.283 219.665 245.702 234.268Z" fill="#FFCD4C"/>
<path d="M217.447 238.373L173.579 236.673L174.888 227.085L180.88 211.7C180.88 211.7 190.995 211.088 187.918 219.936C184.841 228.785 186.074 235.058 202.054 230.884C211.71 228.343 215.756 233.723 217.447 238.373Z" fill="#F6C135"/>
<path d="M193.783 187.05C186.312 196.783 182.266 217.871 181.331 230.528C180.659 239.64 179.291 263.108 175.865 282.735C164.042 308.09 147.747 296.114 148.665 278.247V278.153C150.255 265.063 149.515 253.86 148.062 249.177C146.09 242.955 141.219 222.215 140.412 213.706C138.593 195.006 142.8 179.06 148.912 169.957L193.783 187.05Z" fill="#FFCD4C"/>
<path d="M180.88 236.937C181.059 234.387 181.212 232.236 181.331 230.562C181.928 223.241 183.105 215.979 184.85 208.844" stroke="#B48919" stroke-width="0.75" stroke-linecap="round" stroke-linejoin="round"/>
<path d="M153.4 183.489C146.515 229.797 159.758 247.239 157.743 273.181C157.018 280.331 155.707 287.41 153.825 294.346" stroke="#B48919" stroke-width="0.75" stroke-linecap="round" stroke-linejoin="round"/>
<path d="M151.453 205.385C156.494 200.038 159.421 193.042 159.69 185.699" stroke="#B48919" stroke-width="0.75" stroke-linecap="round" stroke-linejoin="round"/>
<path d="M181.543 194.045C181.543 194.045 179.384 203.99 178.517 206.795C178.517 206.795 181.544 207.28 182.623 205.376C183.703 203.472 185.725 195.176 185.725 195.176" stroke="#B48919" stroke-width="0.75" stroke-linecap="round" stroke-linejoin="round"/>
<path d="M231.829 174.53L227.494 192.975C226.304 199.069 225.981 204.025 225.31 207.629C224.383 212.661 222.76 215.211 217.311 214.922L217.09 214.862L216.308 214.65L215.79 214.497L215.11 214.267C214.812 214.157 214.523 214.046 214.26 213.927C213.767 213.729 213.285 213.505 212.815 213.256L212.305 212.975C211.55 212.552 210.836 212.059 210.171 211.505C210.041 211.404 209.916 211.296 209.797 211.182C208.814 210.321 207.968 209.315 207.29 208.198C207.101 207.896 206.928 207.584 206.771 207.263C206.358 206.45 206.033 205.595 205.803 204.713C205.76 204.56 205.726 204.416 205.692 204.271C205.658 204.127 205.616 203.931 205.59 203.77C205.565 203.608 205.539 203.481 205.513 203.336C205.395 202.591 205.364 201.836 205.42 201.084C205.709 197.973 209.559 165.877 209.559 165.877L210.97 162.392L212.857 157.725L231.829 174.53Z" fill="#C3DCF8"/>
<path d="M225.31 207.629C224.383 212.661 222.76 215.211 217.311 214.922L217.073 214.862L216.291 214.65L215.773 214.497L215.093 214.267C214.796 214.157 214.507 214.046 214.243 213.927C213.75 213.729 213.268 213.505 212.798 213.256L212.288 212.975C211.533 212.552 210.819 212.059 210.155 211.505C210.024 211.404 209.899 211.296 209.781 211.182C208.797 210.321 207.951 209.315 207.273 208.198C207.084 207.896 206.911 207.584 206.755 207.263C206.341 206.45 206.016 205.595 205.785 204.713C205.743 204.56 205.709 204.416 205.675 204.271C205.641 204.127 205.598 203.931 205.573 203.77C205.547 203.608 205.522 203.481 205.496 203.336C205.378 202.591 205.347 201.836 205.403 201.084C205.692 197.973 209.542 165.877 209.542 165.877L210.954 162.392C214.005 168.231 217.617 177.692 213.41 184.126C206.933 194.037 207.885 210.119 220.729 208.028C222.243 207.777 223.775 207.644 225.31 207.629Z" fill="#D6E4FA"/>
<path d="M219.241 159.918C218.108 160.802 216.974 161.754 215.841 162.774C204.995 172.626 195.143 188.274 192.364 189.974C188.36 192.371 178.976 190.994 169.975 188.708C163.201 187.024 156.564 184.833 150.119 182.154C144.671 179.604 143.319 178.032 144.228 176.009C145.138 173.986 150.552 161.346 150.552 161.346L149.218 160.029L134.453 145.477C143.2 138.881 154.649 131.511 165.164 127.414C172.295 124.643 178.985 123.385 184.111 124.864L219.241 159.918Z" fill="#C3DCF8"/>
<path d="M219.241 159.918C218.108 160.802 216.974 161.754 215.841 162.774C204.434 162.961 193.554 170.73 183.94 162.383C172.04 152.056 182.81 144.406 175.44 134.333C172.843 130.992 169.254 128.558 165.189 127.38C172.321 124.609 179.011 123.351 184.136 124.83L219.241 159.918Z" fill="#D0E5F7"/>
<path d="M169.984 188.691C163.21 187.007 156.573 184.816 150.127 182.137C144.679 179.587 143.327 178.015 144.237 175.992C145.146 173.969 150.561 161.329 150.561 161.329L149.226 160.012C153.476 155.541 159.367 149.336 159.69 148.962C160.208 148.35 172.644 152.498 172.644 152.498C172.644 152.498 172.228 166.412 160.846 167.738C149.465 169.064 151.496 178.125 161.585 179.358C168.071 180.131 169.669 185.163 169.984 188.691Z" fill="#D6E4FA"/>
<path d="M135.27 144.856C117.241 155.32 132.533 191.062 172.27 155.371C176.461 135.285 153.885 132.761 135.27 144.856Z" fill="#D6E4FA"/>
<path d="M219.241 159.918C215.942 162.541 212.876 165.445 210.078 168.596" stroke="#7DBAFE" stroke-width="0.75" stroke-linecap="round" stroke-linejoin="round"/>
<path d="M132.15 349.553C132.15 349.553 124.5 359.541 125.588 367.641H162.019C162.019 367.641 145.818 358.172 144.977 351.236L132.15 349.553Z" fill="#683F1D"/>
<path d="M176.231 280.593C176.112 281.324 175.993 282.046 175.865 282.76C174.539 290.41 172.899 297.431 170.867 302.829C163.6 322.124 151.317 352.307 151.317 352.307L127.9 350.361C129.6 345.796 138.1 326.408 146.251 291.651C147.293 287.217 148.085 282.727 148.623 278.204C148.666 277.881 148.7 277.55 148.734 277.227C150.493 266.695 172.788 256.555 176.231 280.593Z" fill="#F4C855"/>
<path d="M157.956 267.035C157.956 269.041 157.913 271.081 157.752 273.181C155.729 299.14 135.227 349.961 135.065 350.964" stroke="#B48919" stroke-width="0.75" stroke-linecap="round" stroke-linejoin="round"/>
<path d="M221.23 294.94C221.23 294.94 217.762 304.936 218.807 313.037H251.107C251.107 313.037 234.915 303.568 234.108 296.623L221.23 294.94Z" fill="#683F1D"/>
<path d="M245.973 241.084C243.313 260.991 238.221 297.762 238.221 297.762H217.065L224.043 238.636C224.137 228.343 231.124 217.386 238.264 222.18C248.099 228.827 246.492 237.2 245.973 241.084Z" fill="#F4C855"/>
<path d="M262.421 216.137C262.421 216.137 253.921 216.443 243.951 216.443C235.731 216.443 226.526 216.239 220.346 215.474C219.87 215.414 219.411 215.346 218.961 215.261C218.757 215.261 218.552 215.193 218.357 215.151C218.161 215.108 218.017 215.091 217.847 215.049C217.55 214.989 217.261 214.913 216.997 214.845L216.147 214.598L215.952 214.539L215.229 214.292L215.102 214.25L214.252 213.927C214.22 213.919 214.191 213.905 214.166 213.884C204.527 207.747 204.238 201.007 209.5 196.884C213.197 193.943 219.649 192.294 227.529 193.017L260.951 199.706L262.421 216.137Z" fill="#C3DCF8"/>
<path d="M243.951 216.443C235.731 216.443 226.526 216.239 220.346 215.474C219.87 215.414 219.411 215.346 218.961 215.261C218.757 215.261 218.552 215.193 218.357 215.151C218.161 215.108 218.017 215.091 217.847 215.049C217.55 214.989 217.261 214.913 216.997 214.845L216.147 214.598L215.952 214.539L215.229 214.292L215.102 214.25L214.252 213.927C214.22 213.919 214.191 213.905 214.166 213.884C204.527 207.747 204.238 201.007 209.5 196.884C209.415 203.684 212.806 209.354 220.737 208.062C231.6 206.243 240.993 210.561 243.951 216.443Z" fill="#D6E4FA"/>
<path d="M227.503 193C225.251 192.622 222.982 192.358 220.703 192.209" stroke="#C3DCF8" stroke-width="0.75" stroke-linecap="round" stroke-linejoin="round"/>
<path d="M312.69 246.372L302.923 242.538L288.151 236.724C288.151 236.724 213.266 162.596 177.396 126.989C167.527 117.189 160.608 110.312 159.018 108.697C153.731 103.308 166.252 89.1471 172.941 95.0461C173.46 95.5136 180.404 102.246 190.842 112.403C226.704 147.253 303.892 222.529 303.892 222.529L309.061 236.503L312.69 246.372Z" fill="#F9F9F9" stroke="#DDDDDD" stroke-width="2" stroke-linecap="round" stroke-linejoin="round"/>
<path d="M197.005 127.796L293.276 220.931" stroke="#EDEDED" stroke-linecap="round" stroke-linejoin="round"/>
<path d="M192.9 134.095L288.32 226.414" stroke="#EDEDED" stroke-linecap="round" stroke-linejoin="round"/>
<path d="M309.035 236.503C306.361 237.748 304.201 239.88 302.923 242.538L288.151 236.724C288.151 236.724 288.558 231.803 294.015 232.559C292.842 229.372 295.197 225.759 299.226 228.36C299.226 228.36 298.376 223.167 303.867 222.529L309.035 236.503Z" fill="#F9F9F9" stroke="#EDEDED" stroke-width="2" stroke-linecap="round" stroke-linejoin="round"/>
<path d="M312.69 246.371L302.923 242.538C304.201 239.88 306.361 237.747 309.035 236.503L312.69 246.371Z" fill="#DDDDDD" stroke="#DDDDDD" stroke-width="2" stroke-linecap="round" stroke-linejoin="round"/>
<path d="M190.842 112.403C186.363 117.257 181.45 122.603 177.396 126.989C167.527 117.189 160.608 110.312 159.018 108.697C153.731 103.308 166.252 89.1471 172.941 95.0461C173.46 95.5136 180.404 102.246 190.842 112.403Z" stroke="#EDEDED" stroke-width="2" stroke-linecap="round" stroke-linejoin="round"/>
<path d="M185.929 107.626L172.168 121.804" stroke="#EDEDED" stroke-width="2" stroke-linecap="round" stroke-linejoin="round"/>
<path d="M254.797 205.384C262.217 199.162 263.9 199.239 264.589 200.055C265.277 200.871 262.2 204.441 261.189 205.384C261.189 205.384 267.47 200.675 269.289 201.806C271.108 202.936 268.72 205.384 268.72 205.384C268.72 205.384 272.222 205.325 269.969 209.09C269.969 209.09 271.788 209.09 270.726 210.969C269.663 212.847 263.135 217.327 260.755 216.188C258.375 215.049 251.21 208.402 254.797 205.384Z" fill="#FEBD9D"/>
<path d="M258.018 202.801C262.744 199.205 263.968 199.401 264.588 200.055C265.209 200.71 262.2 204.441 261.188 205.385C261.188 205.385 267.47 200.676 269.289 201.806C271.108 202.937 268.719 205.385 268.719 205.385C268.719 205.385 272.222 205.325 269.969 209.091C269.969 209.091 271.788 209.091 270.726 210.969" stroke="#EF8A66" stroke-width="0.75" stroke-linecap="round" stroke-linejoin="round"/>
<path d="M268.728 205.385L262.098 209.669" stroke="#EF8A66" stroke-width="0.75" stroke-linecap="round" stroke-linejoin="round"/>
<path d="M263.858 212.899L269.978 209.091" stroke="#EF8A66" stroke-width="0.75" stroke-linecap="round" stroke-linejoin="round"/>
<path d="M261.197 205.385L259.276 206.957" stroke="#EF8A66" stroke-width="0.75" stroke-linecap="round" stroke-linejoin="round"/>
<path d="M183.422 152.447C184.225 148.999 184.132 145.402 183.15 142L175.662 145.57C175.662 145.57 178.39 153.05 183.422 152.447Z" fill="#D6E4FA"/>
<path d="M175.56 132.489C177.662 132.278 179.749 131.931 181.807 131.452C182.258 131.197 185.488 128.613 186.907 127.678C188.327 126.743 194.098 123.011 194.642 123.36C195.186 123.708 195.381 125.4 194.344 126.641C194.344 126.641 200.643 123.963 203.363 123.64C205.582 123.377 205.148 125.468 203.661 126.428C206.041 125.374 208.871 126.428 205.649 128.723C207.825 128.349 208.956 130.024 205.547 132.489C207.434 131.452 208.718 132.863 206.984 134.622C204.162 137.495 198.356 139.722 196.52 140.419C194.684 141.116 183.048 143.7 178.535 146.25C178.535 146.25 174.65 139.272 175.56 132.489Z" fill="#FEBD9D"/>
<path d="M186.915 127.678C188.352 126.743 194.107 123.011 194.651 123.36C195.195 123.708 195.39 125.4 194.353 126.641C194.353 126.641 200.651 123.963 203.371 123.64C205.59 123.377 205.157 125.468 203.669 126.428C206.049 125.374 208.879 126.428 205.658 128.723C207.834 128.349 208.964 130.024 205.556 132.489C207.443 131.452 208.726 132.863 206.992 134.622" stroke="#EF8A66" stroke-width="0.75" stroke-linecap="round" stroke-linejoin="round"/>
<path d="M194.353 126.641L191.098 128.239" stroke="#EF8A66" stroke-width="0.75" stroke-linecap="round" stroke-linejoin="round"/>
<path d="M203.669 126.428L197.005 129.522" stroke="#EF8A66" stroke-width="0.75" stroke-linecap="round" stroke-linejoin="round"/>
<path d="M205.658 128.723L198.424 132.489" stroke="#EF8A66" stroke-width="0.75" stroke-linecap="round" stroke-linejoin="round"/>
<path d="M205.556 132.489L199.887 135.71" stroke="#EF8A66" stroke-width="0.75" stroke-linecap="round" stroke-linejoin="round"/>
<path d="M178.9 130.168C167.264 131.35 146.268 134.835 130.526 146.225C124.432 150.628 124.526 169.175 141.16 167.636C157.795 166.098 183.448 152.447 183.448 152.447C183.448 152.447 176.852 150.993 178.9 130.168Z" fill="#C3DCF8"/>
<path d="M151.453 165.596C166.66 161.346 183.422 152.447 183.422 152.447C183.422 152.447 176.852 150.993 178.875 130.168C169.974 131.03 161.184 132.798 152.643 135.447" stroke="#7DBAFE" stroke-width="0.75" stroke-linecap="round" stroke-linejoin="round"/>
<path d="M67.278 313.887C67.278 313.887 43.1635 368.176 31.204 390.608C11.28 404.65 8.17749 390.2 11.348 378.572C12.725 375.699 16.771 362.864 21.004 348.371C24.591 336.08 28.3055 322.608 30.643 313.037L57.9195 313.666L67.278 313.887Z" fill="#A5BCE5"/>
<path d="M58.6505 317.1C56.2535 334.287 35.2585 324.342 33.227 334.287C32.2155 339.259 28.365 344.232 21.004 348.405C24.591 336.114 28.3055 322.642 30.643 313.071L57.9195 313.7C58.5946 314.696 58.8567 315.915 58.6505 317.1Z" fill="#83ADDF"/>
<path d="M40.9025 325.838C38.684 326.858 40.0525 328.107 40.6815 329.96C41.3105 331.813 38.021 331.363 38.1315 333.87C38.242 336.378 39.4575 334.975 38.1315 338.749C36.848 342.396 22.296 379.031 17.3065 387.038" stroke="#B4C6ED" stroke-width="0.75" stroke-linecap="round" stroke-linejoin="round"/>
<path d="M96.858 314.201C96.858 314.201 67.108 320.321 46.895 322.208C34.5445 323.373 26.2485 319.318 22.2025 313.224C20.9212 311.274 20.0365 309.092 19.5989 306.8C19.1614 304.509 19.1796 302.154 19.6525 299.87C29.6995 287.97 41.421 284.451 51.1705 284.069C58.0815 283.806 64.9699 285.008 71.3835 287.596C95.8805 285.514 109.565 286.551 116.935 289.73C129.6 304.86 114.495 310.427 96.858 314.201Z" fill="#A5BCE5"/>
<path d="M33.839 290.792C33.38 299.292 36.848 302.241 55.14 301.978C75.268 301.689 103.344 299.853 104.848 300.116C107.917 300.652 101.95 305.514 104.058 305.59C106.837 305.701 109.838 306.109 108.308 308.013C106.778 309.917 105.129 310.691 106.259 311.872" stroke="#B4C6ED" stroke-width="0.75" stroke-linecap="round" stroke-linejoin="round"/>
<path d="M28.7645 319.182C33.244 321.664 39.3045 322.922 46.895 322.217C54.9955 321.46 64.6175 320.024 73.245 318.57" stroke="#83ADDF" stroke-width="0.75" stroke-linecap="round" stroke-linejoin="round"/>
<path d="M103.615 277.15C103.029 279.496 101.397 281.697 98.167 283.474C97.7845 283.593 97.3935 283.703 97.0025 283.805C96.6115 283.907 96.28 283.967 95.9145 284.035L95.2345 284.128L94.767 284.179H94.5375C94.1465 284.179 93.7555 284.222 93.3645 284.222C87.049 284.222 80.232 280.184 75.1235 269.202C75.1235 269.202 71.9105 275.305 71.0265 279.224C70.8959 279.744 70.819 280.277 70.797 280.813C70.7592 283.096 70.9701 285.376 71.426 287.613C71.426 287.613 58.8375 287.749 50.448 290.214C42.0585 292.679 32.649 297.244 19.695 299.887C19.695 299.887 20.3325 293.937 22.5255 290.86C21.7011 290.559 21.0017 289.99 20.5394 289.244C20.077 288.498 19.8784 287.618 19.9755 286.746C20.2645 284.315 22.6785 283.227 25.7385 278.51C26.7282 276.969 27.6087 275.362 28.3735 273.699C33.2015 263.303 32.105 260.651 31.476 259.648L25.6875 265.87C15.292 277.031 -5.601 299.428 -7.029 300.797C-8.95 302.624 -11.942 303.347 -13.03 302.616C-13.693 302.174 -18.13 305.71 -21.53 308.566C-23.7485 310.436 -25.5335 312.017 -25.5335 312.017L-38.2155 304.367C-38.2155 304.367 -34.6455 301.409 -30.9565 298.272C-27.055 294.966 -23.0175 291.472 -22.89 291.047C-22.618 290.197 -23.4425 288.098 -21.6235 286.194C-20 284.494 10.9145 249.763 21.6075 237.455C22.993 235.857 24.047 234.641 24.642 233.919C29.8525 227.637 32.989 224.569 40.486 222.707L77.0955 223.498C77.0955 223.498 87.627 221.568 89.8455 228.164C90.16 229.133 90.4915 230.459 90.8315 232.032C92.8035 241.263 94.852 258.824 94.852 258.824C94.852 258.824 105.655 268.871 103.615 277.15Z" fill="#FFCD4C"/>
<path d="M40.741 249.559C40.741 253.902 38.497 260.133 35.879 262.462C32.683 265.284 37.494 275.526 32.1475 278.476C31.1838 279.082 30.0686 279.403 28.9303 279.403C27.7919 279.403 26.6767 279.082 25.713 278.476C26.7028 276.936 27.5833 275.328 28.348 273.665C33.176 263.269 32.0795 260.617 31.4505 259.614C35.097 255.849 38.5055 252.066 40.741 249.559Z" fill="#EAB62F"/>
<path d="M103.615 277.15C103.029 279.496 101.397 281.697 98.167 283.474C97.7845 283.593 97.3935 283.703 97.0025 283.805C96.6115 283.907 96.28 283.967 95.9145 284.035L95.2345 284.128L94.767 284.179H94.5375C94.1465 284.179 93.7555 284.222 93.3645 284.222C87.049 284.222 80.232 280.184 75.1235 269.202C80.776 256.877 81.031 250.74 79.7135 244.892C81.0788 245.215 82.3317 245.9 83.34 246.875C84.3483 247.851 85.0747 249.08 85.4425 250.434C87.661 257.889 76.815 266.899 82.561 272.415C87.661 277.269 96.6285 269.712 99.8585 275.331C100.193 276.008 100.745 276.555 101.425 276.885C102.105 277.214 102.876 277.307 103.615 277.15Z" fill="#F2BF3A"/>
<path d="M90.755 232.006C87.2615 231.726 82.816 232.465 80.351 237.106C75.8715 245.606 60.988 256.656 50.5585 243.575C42.407 233.375 35.0375 232.627 21.5565 237.395C22.942 235.797 23.996 234.582 24.591 233.859C29.8015 227.578 32.938 224.509 40.435 222.648L77.0445 223.438C77.0445 223.438 87.576 221.509 89.7945 228.105C90.0835 229.108 90.415 230.4 90.755 232.006Z" fill="#F7C135"/>
<path d="M23.7665 298.944L25.713 291.311" stroke="#EAB62F" stroke-width="0.75" stroke-linecap="round" stroke-linejoin="round"/>
<path d="M27.2855 298.017L29.062 290.155" stroke="#EAB62F" stroke-width="0.75" stroke-linecap="round" stroke-linejoin="round"/>
<path d="M30.643 297.014L32.1475 290.155" stroke="#EAB62F" stroke-width="0.75" stroke-linecap="round" stroke-linejoin="round"/>
<path d="M34.638 295.705L35.8705 289.636" stroke="#EAB62F" stroke-width="0.75" stroke-linecap="round" stroke-linejoin="round"/>
<path d="M38.548 294.328L39.347 288.863" stroke="#EAB62F" stroke-width="0.75" stroke-linecap="round" stroke-linejoin="round"/>
<path d="M42.1095 293.028L42.4325 289.381" stroke="#EAB62F" stroke-width="0.75" stroke-linecap="round" stroke-linejoin="round"/>
<path d="M43.3335 246.55C43.3335 246.55 42.3475 247.697 40.741 249.525C38.5055 252.075 35.097 255.815 31.4505 259.597" stroke="#D7A526" stroke-width="0.75" stroke-linecap="round" stroke-linejoin="round"/>
<path d="M75.1065 269.194C80.759 256.869 81.014 250.732 79.6965 244.884C79.1525 242.393 78.311 239.971 77.495 237.14" stroke="#D7A526" stroke-width="0.75" stroke-linecap="round" stroke-linejoin="round"/>
<path d="M37.7065 229.006L43.3335 225.232" stroke="#BC942F" stroke-width="0.75" stroke-linecap="round" stroke-linejoin="round"/>
<path d="M43.818 232.27L46.8525 227.263" stroke="#BC942F" stroke-width="0.75" stroke-linecap="round" stroke-linejoin="round"/>
<path d="M49.105 233.528L50.5585 228.683" stroke="#BC942F" stroke-width="0.75" stroke-linecap="round" stroke-linejoin="round"/>
<path d="M52.6325 234.029L53.678 229.431" stroke="#BC942F" stroke-width="0.75" stroke-linecap="round" stroke-linejoin="round"/>
<path d="M56.1005 234.777L56.7295 229.89" stroke="#BC942F" stroke-width="0.75" stroke-linecap="round" stroke-linejoin="round"/>
<path d="M61.9315 234.777V230.23" stroke="#BC942F" stroke-width="0.75" stroke-linecap="round" stroke-linejoin="round"/>
<path d="M66.36 230.23L67.0315 234.777" stroke="#BC942F" stroke-width="0.75" stroke-linecap="round" stroke-linejoin="round"/>
<path d="M69.505 229.669L70.644 234.777" stroke="#BC942F" stroke-width="0.75" stroke-linecap="round" stroke-linejoin="round"/>
<path d="M72.344 229.006L73.9165 233.154" stroke="#BC942F" stroke-width="0.75" stroke-linecap="round" stroke-linejoin="round"/>
<path d="M74.6305 227.867L76.6875 232.27" stroke="#BC942F" stroke-width="0.75" stroke-linecap="round" stroke-linejoin="round"/>
<path d="M77.189 227.867L79.773 229.89" stroke="#BC942F" stroke-width="0.75" stroke-linecap="round" stroke-linejoin="round"/>
<path d="M78.481 225.529L81.66 227.119" stroke="#BC942F" stroke-width="0.75" stroke-linecap="round" stroke-linejoin="round"/>
<path d="M70.0405 219.222C69.4115 218.933 68.723 218.636 67.9835 218.372C66.1916 217.704 64.2847 217.397 62.3735 217.471C55.8115 217.548 40.435 222.724 40.435 222.724C40.7665 223.183 44.787 227.646 52.981 229.337C61.175 231.029 69.573 230.187 73.1685 228.759C74.2196 228.305 75.1318 227.58 75.8125 226.659C76.4932 225.738 76.9183 224.653 77.0445 223.515C77.0445 223.515 75.336 221.636 70.0405 219.222Z" fill="#FAB796"/>
<path d="M109.242 380.688C113.807 377.416 118.048 382.091 107.542 384.811" stroke="#83ADDF" stroke-width="0.75" stroke-linecap="round" stroke-linejoin="round"/>
<path d="M104.95 383.4C107.1 378.198 110.262 373.829 111.75 374.951C113.569 376.336 106.599 383.825 106.599 383.825" stroke="#83ADDF" stroke-width="0.75" stroke-linecap="round" stroke-linejoin="round"/>
<path d="M114.861 394.96H86.165C86.0545 391.041 90.4745 382.269 90.959 379.413C90.959 379.354 90.959 379.294 90.959 379.218C91.4945 376.047 92.999 364.334 92.999 364.334L108.392 365.303L104.253 379.354C105.722 381.5 107.371 383.516 109.183 385.38C112.464 388.84 118.916 389.333 119.519 391.764C120.123 394.195 116.62 394.96 114.861 394.96Z" fill="#B4C6ED"/>
<path d="M108.418 365.303L104.278 379.354C104.278 379.354 95.9315 379.286 90.9845 379.218C91.52 376.047 93.0245 364.334 93.0245 364.334L108.418 365.303Z" fill="#FEBD9D"/>
<path d="M124.542 305.123C122.791 318.349 110.704 367.641 110.704 367.641H90.8825L96.8325 314.312C96.8431 314.276 96.8431 314.237 96.8325 314.201C96.722 313.513 93.135 291.022 112.507 288.276C114.017 288.639 115.495 289.125 116.926 289.73C124.5 292.977 125.418 298.451 124.542 305.123Z" fill="#A5BCE5"/>
<path d="M97.878 300.321C101.83 300.134 104.423 300.041 104.848 300.117C107.917 300.653 101.95 305.515 104.058 305.591C106.837 305.702 109.838 306.11 108.308 308.014C106.608 310.071 105.018 310.742 106.395 312.009C109.005 314.397 104.551 316.667 104.245 319.412C103.939 322.158 98.9405 363.476 98.9405 363.476" stroke="#B4C6ED" stroke-width="0.75" stroke-linecap="round" stroke-linejoin="round"/>
<path d="M120.369 228.989C119.111 232.389 117.76 235.39 117.76 235.39L117.624 235.925L115.074 246.287C115.074 246.287 117.079 246.822 117.028 248.582C116.977 250.341 113.271 264.791 109.693 272.943C109.54 273.308 109.353 273.665 109.166 274.031C108.979 274.396 108.886 274.558 108.733 274.813C108.415 275.345 108.075 275.864 107.713 276.368C107.543 276.606 107.373 276.836 107.194 277.057C107.016 277.278 106.803 277.541 106.59 277.771C106.378 278 106.191 278.221 105.987 278.442C105.554 278.893 105.137 279.292 104.618 279.734L103.896 280.329C102.691 281.286 101.376 282.094 99.9775 282.735H99.918L99.068 283.092C98.779 283.202 98.49 283.313 98.218 283.406C92.3445 281.902 90.415 278.051 90.279 273.835C90.0495 266.814 94.835 258.773 94.835 258.773C94.8314 258.759 94.8314 258.745 94.835 258.731C95.1155 257.932 99.731 245.063 100.675 244C101.618 242.938 103.488 243.635 103.488 243.635L106.795 233.12L107.517 230.817C107.517 230.817 107.254 230.264 106.897 229.457C106.123 227.8 105.553 226.056 105.197 224.263C105.001 222.215 106.896 220.931 108.426 220.693C108.426 220.693 108.571 217.174 109.744 215.746C109.926 215.459 110.186 215.229 110.494 215.083C110.802 214.937 111.144 214.881 111.482 214.922C111.82 214.963 112.14 215.099 112.404 215.314C112.668 215.529 112.866 215.814 112.974 216.137C113.34 214.913 116.017 214.743 116.085 217.157C116.188 216.738 116.446 216.373 116.809 216.137C117.171 215.901 117.609 215.812 118.034 215.888C118.46 215.964 118.84 216.198 119.099 216.545C119.357 216.891 119.474 217.323 119.426 217.752C119.426 217.752 121.389 215.848 122.409 219.452C122.877 221.339 121.678 225.419 120.369 228.989Z" fill="#FFCD4C"/>
<path d="M109.251 234.778C109.251 234.778 106.539 243.771 106.539 243.609" stroke="#D7A526" stroke-width="0.75" stroke-linecap="round" stroke-linejoin="round"/>
<path d="M111.367 235.628L109.489 243.431" stroke="#D7A526" stroke-width="0.75" stroke-linecap="round" stroke-linejoin="round"/>
<path d="M114.529 236.095L112.855 244.162" stroke="#D7A526" stroke-width="0.75" stroke-linecap="round" stroke-linejoin="round"/>
<path d="M94.75 258.799C93.05 263.703 91.911 267.35 92.115 268.591" stroke="#D7A526" stroke-width="0.75" stroke-linecap="round" stroke-linejoin="round"/>
<path d="M109.2 274.031C109.064 274.294 108.919 274.558 108.766 274.813C108.449 275.346 108.109 275.864 107.747 276.368C107.577 276.606 107.406 276.836 107.228 277.057C107.049 277.278 106.837 277.541 106.624 277.771C106.412 278 106.225 278.221 106.021 278.442C105.588 278.893 105.171 279.292 104.652 279.734L103.93 280.329C102.728 281.29 101.412 282.098 100.011 282.735H99.952L99.102 283.092C98.813 283.202 98.524 283.313 98.252 283.406C92.3785 281.902 90.449 278.051 90.313 273.835C94.1975 273.223 98.048 272.016 99.935 275.297C102.018 279.105 106.471 276.3 109.2 274.031Z" fill="#E4B334"/>
<path d="M117.759 235.39L117.623 235.925C115.896 236.198 114.134 236.178 112.413 235.866C110.328 235.449 108.381 234.513 106.752 233.146L107.474 230.842C107.474 230.842 105.332 226.337 105.137 224.289C104.941 222.24 106.837 220.957 108.367 220.719C108.367 220.719 108.511 217.2 109.684 215.772C109.867 215.484 110.127 215.254 110.435 215.108C110.742 214.962 111.085 214.907 111.423 214.948C111.761 214.989 112.08 215.124 112.344 215.339C112.608 215.554 112.806 215.84 112.914 216.163C113.28 214.939 115.957 214.76 116.025 217.183C116.128 216.763 116.387 216.398 116.749 216.162C117.111 215.926 117.549 215.837 117.975 215.913C118.4 215.989 118.781 216.224 119.039 216.57C119.298 216.917 119.414 217.348 119.366 217.778C119.366 217.778 121.329 215.874 122.349 219.478C123.369 223.082 117.759 235.39 117.759 235.39Z" fill="#FEBD9D"/>
<path d="M106.539 228.7C105.896 227.283 105.425 225.793 105.137 224.263C104.941 222.206 106.837 220.931 108.367 220.693C108.367 220.693 108.511 217.174 109.684 215.746C109.867 215.459 110.127 215.229 110.435 215.083C110.742 214.937 111.085 214.881 111.423 214.922C111.761 214.963 112.08 215.099 112.344 215.314C112.608 215.529 112.806 215.814 112.914 216.137C113.28 214.913 115.957 214.735 116.025 217.157C116.128 216.738 116.387 216.373 116.749 216.137C117.111 215.901 117.549 215.812 117.975 215.888C118.4 215.964 118.781 216.198 119.039 216.545C119.298 216.891 119.414 217.323 119.366 217.752C119.366 217.752 121.329 215.848 122.349 219.452" stroke="#EF8A66" stroke-width="0.75" stroke-linecap="round" stroke-linejoin="round"/>
<path d="M108.35 220.719C111.027 220.234 113.314 220.489 113.39 221.399C113.467 222.308 110.279 223.6 110.279 223.6C110.279 223.6 114.351 224.144 112.974 229.006" stroke="#EF8A66" stroke-width="0.75" stroke-linecap="round" stroke-linejoin="round"/>
<path d="M112.855 215.993C112.855 215.993 112.277 219.809 112.005 220.557" stroke="#EF8A66" stroke-width="0.75" stroke-linecap="round" stroke-linejoin="round"/>
<path d="M113.543 221.416C114.572 221.696 115.558 220.651 116.093 216.86" stroke="#EF8A66" stroke-width="0.75" stroke-linecap="round" stroke-linejoin="round"/>
<path d="M114.81 220.931C114.902 221.393 115.159 221.806 115.533 222.092C115.906 222.378 116.372 222.518 116.841 222.487" stroke="#EF8A66" stroke-width="0.75" stroke-linecap="round" stroke-linejoin="round"/>
<path d="M119.4 217.778C118.55 218.432 116.34 222.419 117.513 223.405C118.881 224.544 119.978 221.705 119.978 221.705" stroke="#EF8A66" stroke-width="0.75" stroke-linecap="round" stroke-linejoin="round"/>
<path d="M31.204 390.608C29.8072 393.337 28.2607 395.988 26.5715 398.547C18.25 410.251 -18.5635 445.033 -18.5635 445.033L-30.948 429.079L11.3565 378.563C18.607 369.23 37.545 371.449 31.204 390.608Z" fill="#A5BCE5"/>
<path d="M14.68 390.497C5.27899 401.768 -25.9245 435.547 -25.9245 435.547" stroke="#B4C6ED" stroke-width="0.75" stroke-linecap="round" stroke-linejoin="round"/>
<path d="M23.9875 373.327C22.0284 378.017 19.8093 382.595 17.3405 387.038" stroke="#B4C6ED" stroke-width="0.75" stroke-linecap="round" stroke-linejoin="round"/>
<path d="M81.4815 216.536C78.5405 215.686 78.481 217.981 79.8665 218.916C81.252 219.851 80.5465 222.767 77.0955 223.166C76.781 223.209 75.965 223.328 74.979 223.43C73.1345 223.617 70.729 223.77 70.015 223.37C69.301 222.971 69.2585 221.857 69.5135 220.684C69.556 220.446 69.6325 220.208 69.7005 219.953C70.0971 218.714 70.6064 217.513 71.222 216.366C72.8593 216.331 74.4578 215.862 75.8545 215.006C79.008 212.907 79.093 208.699 77.818 204.313C77.4984 203.217 77.1123 202.141 76.662 201.092C76.3135 200.242 75.9225 199.392 75.506 198.601C71.664 191.113 66.2155 191.121 66.2155 191.121C68.6295 195.252 66.3345 198.057 64.9235 198.771C63.5125 199.485 61.974 199.97 62.0505 202.809C62.127 205.648 60.852 206.073 60.002 205.928C57.3245 205.435 55.4205 207.467 56.602 209.694C57.7835 211.921 61.0985 211.224 62.0845 210.17C62.0845 210.17 64.048 211.487 64.1585 213.06C64.269 214.632 61.2345 216.519 62.671 218.967C62.9438 219.398 63.0927 219.895 63.1012 220.405C63.1097 220.914 62.9775 221.416 62.7192 221.856C62.4609 222.295 62.0865 222.654 61.6371 222.895C61.1877 223.135 60.6808 223.247 60.172 223.217C58.9281 223.069 57.6672 223.263 56.5255 223.778C56.2506 223.913 55.9888 224.072 55.7435 224.254C55.5694 224.384 55.4047 224.526 55.2505 224.679C53.9585 225.988 52.998 227.595 49.921 226.889C46.844 226.184 46.3 221.9 46.3 221.9C41.9395 222.095 39.024 222.622 38.7435 219.069C38.514 216.247 41.676 215.236 43.3505 214.93C43.6788 214.886 43.9871 214.747 44.2374 214.53C44.4878 214.313 44.6692 214.027 44.7595 213.709C44.8498 213.39 44.845 213.052 44.7457 212.735C44.6464 212.419 44.4569 212.139 44.2005 211.929C42.577 210.688 43.7925 208.767 46.164 207.951C48.5355 207.135 47.6515 201.865 47.864 199.298C48.1955 194.708 52.4455 190.713 58.149 190.441C58.149 190.441 61.0985 184.058 68.2385 185.154C75.3785 186.251 78.617 193.153 78.2855 196.332C77.954 199.511 77.9115 202.894 81.354 203.055C84.7965 203.217 86.7345 205.333 85.4935 207.45C84.2525 209.566 83.3685 211.156 85.978 212.898C88.5875 214.641 84.4225 217.361 81.4815 216.536Z" fill="#604730"/>
<path d="M66.207 191.079C68.621 195.21 66.326 198.015 64.915 198.729C63.504 199.443 61.9655 199.928 62.042 202.767C62.1185 205.606 60.8435 206.031 59.9935 205.886C57.316 205.393 55.412 207.425 56.5935 209.652C57.775 211.879 61.09 211.182 62.076 210.128C62.076 210.128 64.0395 211.445 64.15 213.018C64.2605 214.59 61.226 216.477 62.6625 218.925C62.9353 219.356 63.0842 219.853 63.0927 220.362C63.1012 220.872 62.9691 221.374 62.7108 221.813C62.4525 222.253 62.078 222.612 61.6286 222.852C61.1792 223.093 60.6723 223.204 60.1635 223.175C58.9196 223.027 57.6587 223.221 56.517 223.736C56.2421 223.87 55.9803 224.03 55.735 224.212C51.298 222.257 47.9235 219.18 49.717 216.783C52.063 213.655 53.6865 215.372 52.3435 210.383C51.0005 205.393 52.301 202.197 55.5735 201.883C58.846 201.568 61.94 199.333 60.308 196.043C58.676 192.754 63.878 185.69 70.508 188.648C73.993 190.204 75.268 194.292 75.557 198.525C71.6555 191.071 66.207 191.079 66.207 191.079Z" fill="#473526"/>
<path d="M75.8545 214.981C75.523 217.48 73.976 219.919 69.5135 220.667C69.556 220.429 69.6325 220.191 69.7005 219.936C70.0971 218.697 70.6064 217.496 71.222 216.349C72.8601 216.311 74.4587 215.839 75.8545 214.981Z" fill="#473526"/>
<path d="M69.7005 219.936C69.267 221.373 69.1395 222.809 70.015 223.336C70.695 223.736 73.1345 223.583 74.979 223.396C68.1025 229.057 62.382 228.19 56.4915 223.77C57.6332 223.254 58.8941 223.06 60.138 223.209C60.6467 223.238 61.1537 223.126 61.6031 222.886C62.0525 222.646 62.4269 222.286 62.6852 221.847C62.9435 221.408 63.0757 220.906 63.0672 220.396C63.0587 219.887 62.9098 219.389 62.637 218.959C61.2005 216.511 64.235 214.632 64.1245 213.051C64.014 211.47 62.0505 210.161 62.0505 210.161C61.0645 211.215 57.724 211.912 56.568 209.685C55.412 207.458 57.316 205.435 59.968 205.92C60.818 206.064 62.1015 205.639 62.0165 202.8C61.9315 199.961 63.4785 199.528 64.8895 198.763C66.3005 197.998 68.5955 195.21 66.1815 191.113C66.1815 191.113 71.6385 191.113 75.4805 198.61C75.897 199.417 76.288 200.25 76.6365 201.1C77.0868 202.15 77.4729 203.226 77.7925 204.322C79.4925 210.272 78.7445 215.89 71.1965 216.375C70.5809 217.522 70.0716 218.722 69.675 219.962L69.7005 219.936Z" fill="#FEBD9D"/>
<path d="M77.818 204.288C77.4952 204.406 77.1452 204.428 76.8102 204.351C76.4753 204.274 76.1699 204.102 75.931 203.855C75.37 203.132 75.693 201.908 76.662 201.058C77.111 202.111 77.497 203.19 77.818 204.288Z" fill="#EF8A66"/>
<path d="M69.318 201.942C69.3178 202.057 69.3412 202.172 69.3865 202.278C69.4319 202.384 69.4983 202.479 69.5818 202.559C69.6653 202.638 69.7641 202.7 69.8721 202.74C69.9802 202.78 70.0953 202.798 70.2105 202.792C70.3765 202.784 70.5365 202.727 70.6706 202.629C70.8047 202.53 70.907 202.395 70.9649 202.239C71.0227 202.083 71.0336 201.914 70.9962 201.752C70.9587 201.59 70.8746 201.442 70.7542 201.328C70.6338 201.213 70.4824 201.136 70.3188 201.107C70.1552 201.077 69.9865 201.096 69.8336 201.162C69.6808 201.227 69.5505 201.336 69.4588 201.475C69.3672 201.613 69.3182 201.776 69.318 201.942Z" fill="#683F1D"/>
<path d="M73.1175 200.098C73.1175 200.323 73.207 200.539 73.3665 200.699C73.5259 200.858 73.742 200.948 73.9675 200.948C74.0828 200.948 74.1969 200.924 74.3029 200.879C74.4089 200.834 74.5046 200.767 74.5841 200.684C74.6636 200.6 74.7253 200.502 74.7654 200.393C74.8055 200.285 74.8232 200.17 74.8175 200.055C74.8175 199.83 74.7279 199.613 74.5685 199.454C74.4091 199.295 74.1929 199.205 73.9675 199.205C73.8522 199.205 73.7381 199.228 73.6321 199.274C73.5261 199.319 73.4304 199.385 73.3509 199.469C73.2714 199.552 73.2097 199.651 73.1696 199.759C73.1294 199.867 73.1117 199.982 73.1175 200.098Z" fill="#683F1D"/>
<path d="M71.222 216.341C70.6064 217.488 70.0971 218.688 69.7005 219.928C68.7926 219.619 68.0188 219.006 67.5095 218.193C67.0002 217.381 66.7863 216.417 66.904 215.465C68.2914 215.972 69.7469 216.267 71.222 216.341Z" fill="#FA9E71"/>
<path d="M58.149 208.751C58.7355 207.238 60.699 207.518 61.549 208.402" stroke="#EF8A66" stroke-width="0.75" stroke-linecap="round" stroke-linejoin="round"/>
<path d="M59.577 209.516C59.5213 209.326 59.5107 209.126 59.5461 208.932C59.5815 208.737 59.6619 208.554 59.7808 208.396C59.8998 208.238 60.054 208.111 60.2311 208.023C60.4083 207.936 60.6034 207.891 60.801 207.892" stroke="#EF8A66" stroke-width="0.75" stroke-linecap="round" stroke-linejoin="round"/>
<path d="M62.059 210.161C62.3535 209.798 62.5652 209.374 62.6795 208.92" stroke="#EF8A66" stroke-width="0.75" stroke-linecap="round" stroke-linejoin="round"/>
<path d="M70.1 206.243C70.7233 206.77 71.4886 207.1 72.2994 207.193C73.1103 207.285 73.9303 207.135 74.656 206.762" stroke="#EF8A66" stroke-width="0.75" stroke-linecap="round" stroke-linejoin="round"/>
<path d="M75.4975 204.178C75.8885 202.92 75.6335 202.019 74.18 201.781C73.4799 201.621 72.8591 201.218 72.428 200.644C71.9969 200.069 71.7834 199.361 71.8255 198.644" stroke="#EF8A66" stroke-width="0.75" stroke-linecap="round" stroke-linejoin="round"/>
<path d="M66.1645 198.95C66.1645 199.961 69.9385 199.494 70.253 198.372C70.508 197.488 66.139 197.046 66.1645 198.95Z" fill="#604730"/>
<path d="M73.5595 194.326C72.6415 193.892 71.3835 197.539 72.5225 197.819C73.0835 197.964 75.71 195.354 73.5595 194.326Z" fill="#604730"/>
<path d="M58.098 190.45C59.5218 190.553 60.9126 190.928 62.195 191.555" stroke="#896442" stroke-width="0.75" stroke-linecap="round" stroke-linejoin="round"/>
<path d="M60.495 197.021C57.673 198.066 54.2815 199.834 54.1795 203.226C54.0775 206.617 55.531 209.694 51.043 211.904C46.555 214.114 50.805 219.775 50.805 219.775" stroke="#896442" stroke-width="0.75" stroke-linecap="round" stroke-linejoin="round"/>
<path d="M55.803 220.701C58.54 218.466 55.565 215.652 58.54 213.553" stroke="#896442" stroke-width="0.75" stroke-linecap="round" stroke-linejoin="round"/>
<path d="M63.453 194.564C58.863 192.753 53.559 195.031 52.403 196.969" stroke="#896442" stroke-width="0.75" stroke-linecap="round" stroke-linejoin="round"/>
<path d="M69.301 204.9C69.114 205.852 67.856 206.396 66.513 206.115C65.17 205.835 64.2265 204.849 64.4135 203.905C64.6005 202.962 65.8585 202.409 67.21 202.69C68.5615 202.97 69.4965 203.973 69.301 204.9Z" fill="#EF8A66"/>
<path d="M8.16053 431.646C8.16053 431.646 21.361 439.678 23.979 441.047C26.597 442.415 26.9625 445.909 26.9625 445.909H-4.91248C-4.91248 445.909 -6.42547 437.927 -5.61797 433.159L8.16053 431.646Z" fill="#223762"/>
<path d="M8.16053 431.646L-7.94698 434.834L-28.5 379.652C-33.2855 366.851 -38.4365 355.452 -27.888 351.432C-16.0645 351.84 -10.429 355.605 -5.60097 369.129C-0.534973 383.4 8.16053 431.646 8.16053 431.646Z" fill="#F4D366"/>
</g>
<g clip-path="url(#clip2_1_3617)">
<path d="M1439.3 109.706H1093.35V389.286H1439.3V109.706Z" stroke="#EDEDED" stroke-width="2.14516" stroke-linecap="round" stroke-linejoin="round"/>
<path d="M1288.19 147.377H1233.03V174.345L1218.95 177.709L1210.54 142.436L1282.9 125.168L1288.19 147.377Z" stroke="#EDEDED" stroke-width="1.07258" stroke-miterlimit="10"/>
<path d="M1238.25 334.183H1206.74V375.455H1238.25V334.183Z" fill="#EDEDED"/>
<path d="M1188.83 340.501H1157.32V375.446H1188.83V340.501Z" stroke="#DDDDDD" stroke-width="1.07258" stroke-linecap="round" stroke-linejoin="round"/>
<path d="M1386.52 226.886H1355.01V375.455H1386.52V226.886Z" stroke="#DDDDDD" stroke-width="1.07258" stroke-linecap="round" stroke-linejoin="round"/>
<path d="M1337.1 226.886H1305.59V375.455H1337.1V226.886Z" fill="#EDEDED"/>
<path d="M1379.46 122.825L1336.09 150.632L1349.67 159.01C1341.41 172.358 1298.32 228.463 1298.32 228.463L1249.64 233.022C1231.63 267.557 1190.3 328.312 1190.3 328.312H1063.11V358.726L1200.35 357.249L1267.3 255.021L1314.25 253.936L1370.03 168.93L1380.74 172.968L1379.46 122.825Z" fill="#DDDDDD" stroke="#EDEDED" stroke-width="1.07258" stroke-linecap="round" stroke-linejoin="round"/>
<path d="M1287.67 282.791H1256.17V375.456H1287.67V282.791Z" stroke="#DDDDDD" stroke-width="1.07258" stroke-linecap="round" stroke-linejoin="round"/>
<path d="M1458.92 389.286H1073.74V405.122H1458.92V389.286Z" stroke="#DDDDDD" stroke-width="2.14516" stroke-linecap="round" stroke-linejoin="round"/>
<path d="M1259.1 157.67C1259.08 157.61 1259.05 157.558 1259 157.521C1258.94 157.485 1258.88 157.467 1258.82 157.469H1254.95C1254.89 157.467 1254.83 157.485 1254.78 157.521C1254.73 157.558 1254.69 157.61 1254.67 157.67L1249.14 172.585C1249.13 172.619 1249.13 172.652 1249.14 172.686V172.795C1249.14 172.876 1249.16 172.954 1249.22 173.014C1249.28 173.069 1249.36 173.098 1249.45 173.096H1253.28C1253.34 173.102 1253.4 173.085 1253.46 173.048C1253.51 173.012 1253.54 172.957 1253.56 172.895L1254.41 170.662H1259.41L1260.24 172.895C1260.26 172.957 1260.29 173.012 1260.35 173.048C1260.4 173.085 1260.46 173.102 1260.52 173.096H1264.37C1264.45 173.097 1264.53 173.067 1264.58 173.014C1264.64 172.954 1264.67 172.876 1264.66 172.795V172.686C1264.67 172.655 1264.67 172.625 1264.66 172.594L1259.1 157.67ZM1255.82 166.787L1256.88 163.897L1257.97 166.787H1255.82Z" fill="#EDEDED"/>
<path d="M1277.48 159.293C1276.86 158.693 1276.13 158.224 1275.32 157.916C1274.47 157.606 1273.57 157.452 1272.66 157.46H1266.71C1266.66 157.456 1266.62 157.461 1266.58 157.475C1266.54 157.489 1266.51 157.512 1266.48 157.542C1266.45 157.571 1266.43 157.607 1266.41 157.647C1266.4 157.686 1266.39 157.729 1266.4 157.77V172.786C1266.39 172.87 1266.42 172.951 1266.48 173.014C1266.54 173.07 1266.62 173.1 1266.71 173.096H1272.63C1273.54 173.105 1274.44 172.95 1275.29 172.64C1276.1 172.332 1276.84 171.864 1277.45 171.263C1278.13 170.573 1278.64 169.733 1278.93 168.811C1279.64 166.509 1279.64 164.048 1278.93 161.745C1278.65 160.826 1278.15 159.986 1277.48 159.293ZM1274.11 168.355C1273.8 168.692 1273.42 168.959 1273 169.137C1272.58 169.315 1272.13 169.399 1271.67 169.385H1270.95C1270.93 169.389 1270.91 169.387 1270.9 169.381C1270.88 169.374 1270.86 169.364 1270.84 169.35C1270.83 169.335 1270.82 169.318 1270.81 169.299C1270.81 169.28 1270.81 169.259 1270.81 169.24V161.299C1270.81 161.189 1270.86 161.144 1270.95 161.144H1271.67C1272.13 161.127 1272.59 161.211 1273.01 161.389C1273.43 161.567 1273.8 161.835 1274.11 162.174C1274.72 163.09 1275.05 164.167 1275.05 165.269C1275.05 166.371 1274.72 167.448 1274.11 168.364V168.355Z" fill="#EDEDED"/>
<path d="M1290.97 167.097C1290.77 166.534 1290.46 166.016 1290.05 165.574C1289.68 165.175 1289.26 164.829 1288.8 164.544C1288.36 164.282 1287.89 164.089 1287.39 163.969C1287.01 163.88 1286.65 163.739 1286.31 163.55C1286.06 163.416 1285.85 163.229 1285.68 163.003C1285.57 162.856 1285.49 162.697 1285.42 162.529C1285.39 162.417 1285.36 162.3 1285.36 162.183C1285.37 162.077 1285.39 161.972 1285.42 161.873C1285.48 161.731 1285.56 161.597 1285.65 161.471C1285.79 161.288 1285.98 161.154 1286.2 161.089C1286.49 160.982 1286.8 160.936 1287.11 160.952C1288.07 160.973 1289.03 161.092 1289.97 161.307C1290.01 161.32 1290.06 161.322 1290.1 161.313C1290.14 161.303 1290.18 161.282 1290.21 161.253C1290.28 161.201 1290.32 161.126 1290.34 161.043L1290.63 157.998C1290.63 157.919 1290.6 157.842 1290.56 157.779C1290.51 157.72 1290.44 157.681 1290.36 157.67C1289.23 157.542 1288.09 157.476 1286.95 157.469C1285.41 157.38 1283.89 157.783 1282.59 158.618C1282.07 158.997 1281.65 159.502 1281.37 160.084C1281.09 160.667 1280.97 161.31 1281 161.955C1281 162.629 1281.12 163.3 1281.35 163.933C1281.55 164.495 1281.86 165.012 1282.26 165.456C1282.63 165.846 1283.05 166.186 1283.51 166.468C1283.94 166.735 1284.42 166.932 1284.91 167.051C1285.29 167.131 1285.66 167.273 1286 167.47C1286.25 167.599 1286.46 167.787 1286.63 168.017C1286.73 168.162 1286.8 168.318 1286.86 168.482C1286.9 168.593 1286.93 168.711 1286.93 168.829C1286.93 168.938 1286.9 169.046 1286.86 169.148C1286.81 169.295 1286.74 169.433 1286.64 169.558C1286.51 169.732 1286.32 169.862 1286.11 169.932C1285.82 170.037 1285.5 170.081 1285.2 170.06C1284.27 170.04 1283.36 169.927 1282.46 169.722C1282.42 169.709 1282.37 169.706 1282.33 169.714C1282.29 169.722 1282.25 169.741 1282.21 169.768C1282.18 169.793 1282.15 169.825 1282.13 169.863C1282.1 169.901 1282.09 169.943 1282.09 169.987L1281.79 173.032C1281.8 173.111 1281.82 173.187 1281.87 173.251C1281.92 173.31 1281.98 173.349 1282.06 173.36C1283.16 173.492 1284.26 173.555 1285.37 173.551C1287.47 173.551 1288.98 173.184 1289.93 172.448C1290.41 172.036 1290.79 171.515 1291.04 170.927C1291.29 170.339 1291.39 169.701 1291.34 169.066C1291.34 168.392 1291.21 167.725 1290.97 167.097Z" fill="#EDEDED"/>
<path d="M1458.92 93.8696H1073.74V109.706H1458.92V93.8696Z" stroke="#DDDDDD" stroke-width="2.14516" stroke-linecap="round" stroke-linejoin="round"/>
<path d="M1307.41 147.377H1233.02V183.635H1307.41V147.377Z" stroke="#DDDDDD" stroke-width="2.14516" stroke-linecap="round" stroke-linejoin="round"/>
<path d="M1361.12 242.43C1361.16 245.896 1360.39 249.322 1358.86 252.434C1357.33 255.545 1355.1 258.255 1352.33 260.345C1349.11 262.709 1345.22 263.986 1341.23 263.991H1341.17C1338.66 263.982 1336.18 263.461 1333.88 262.46C1326.53 259.305 1321.33 251.519 1321.33 242.403C1321.33 242.22 1321.33 242.047 1321.33 241.883C1321.38 238.834 1322.05 235.826 1323.3 233.047C1324.56 230.268 1326.37 227.776 1328.63 225.728C1330.97 223.635 1333.79 222.143 1336.83 221.379C1338.29 221.009 1339.78 220.822 1341.28 220.823C1349.17 220.823 1355.99 225.81 1359.2 233.03C1359.91 234.616 1360.44 236.281 1360.76 237.99C1361.02 239.454 1361.15 240.942 1361.12 242.43Z" fill="#FFCD4C"/>
<path d="M1341.17 264.01C1338.66 264.001 1336.18 263.48 1333.88 262.478C1326.53 259.324 1321.33 251.538 1321.33 242.421C1321.33 242.239 1321.33 242.065 1321.33 241.901C1321.38 238.852 1322.05 235.845 1323.3 233.066C1324.56 230.286 1326.37 227.795 1328.63 225.746C1327.01 246.761 1329.28 257.601 1341.17 264.01Z" fill="#FCC71F"/>
<path d="M1400.91 179.66C1400.36 181.401 1399.72 183.179 1399.01 184.984C1398.35 186.644 1397.63 188.321 1396.83 190.017C1396.58 190.546 1396.31 191.084 1396.05 191.612C1395.22 193.29 1394.33 194.976 1393.37 196.663C1393.05 197.228 1392.72 197.794 1392.39 198.359C1386.72 207.702 1380.29 216.563 1373.16 224.853C1371.52 226.767 1369.85 228.654 1368.14 230.496L1366.94 231.782C1365.66 233.131 1364.38 234.444 1363.08 235.72C1362.29 236.495 1361.5 237.27 1360.71 238.008C1351.04 247.125 1341.06 253.726 1332.97 253.908C1332.21 253.931 1331.46 253.888 1330.71 253.781C1328.49 253.543 1326.41 252.581 1324.8 251.046C1322.64 248.94 1321.49 245.767 1321.36 241.929C1321.13 234.708 1324.48 225.081 1331.39 215.49L1332.58 213.821C1339.37 204.084 1349.4 187.564 1360.52 174.135C1370.73 161.8 1381.87 152.063 1392.32 152.537C1393.16 152.575 1393.99 152.682 1394.81 152.856C1403.88 154.734 1405.22 165.857 1400.91 179.66Z" fill="#FFCD4C"/>
<path d="M1332.55 241.646C1331.08 243.375 1330.3 245.591 1330.38 247.861C1330.45 250.131 1331.37 252.29 1332.96 253.917C1332.2 253.94 1331.45 253.897 1330.7 253.79C1328.48 253.552 1326.41 252.59 1324.79 251.055C1322.63 248.949 1321.48 245.776 1321.35 241.938C1321.13 234.717 1324.47 225.089 1331.38 215.498L1332.57 213.83C1334.68 215.908 1336.13 218.557 1336.76 221.452C1337.3 223.762 1337.5 226.14 1337.34 228.508C1337.08 233.404 1335.38 238.318 1332.55 241.646Z" fill="#FCC71F"/>
<path d="M1399.01 184.984C1397.15 189.605 1394.94 194.077 1392.39 198.358C1386.72 207.701 1380.29 216.562 1373.16 224.852C1369.93 228.636 1366.54 232.319 1363.08 235.729" stroke="#2D4777" stroke-width="0.804435" stroke-linecap="round" stroke-linejoin="round"/>
<path d="M1400.91 179.66C1396.04 173.688 1390.64 170.452 1381.76 170.406C1376.29 170.406 1369.44 171.582 1360.56 174.099C1370.78 161.763 1381.92 152.026 1392.36 152.5C1393.2 152.539 1394.03 152.646 1394.85 152.82C1403.88 154.734 1405.22 165.857 1400.91 179.66Z" fill="#FFE05C"/>
<path d="M1472.39 171.473C1469.21 171.232 1466.01 171.447 1462.88 172.111C1457.41 173.26 1450.9 176.095 1446.87 182.878C1444.5 186.812 1441.41 190.264 1437.76 193.053C1428.24 200.346 1415.38 202.525 1407.19 188.904C1405.32 185.681 1403.23 182.592 1400.93 179.66C1396.07 173.688 1390.67 170.452 1381.79 170.406C1376.32 170.406 1369.46 171.582 1360.59 174.099C1370.8 161.763 1381.94 152.026 1392.39 152.501C1396.32 152.209 1406.28 153.54 1420.86 153.832C1427.03 153.965 1433.14 155.079 1438.96 157.132C1441.51 158.044 1451.79 161.025 1457.92 163.951C1461.69 165.255 1466.75 167.954 1472.39 171.473Z" fill="#FFE05C"/>
<path d="M1439.8 249.352L1396.61 222.325L1357.38 285.009L1400.57 312.036L1439.8 249.352Z" fill="#EDEDED"/>
<path d="M1433.16 252.222L1396.93 229.548L1364.02 282.139L1400.25 304.813L1433.16 252.222Z" fill="#F9F9F9"/>
<path d="M1400.95 268.076C1399.92 270.264 1394.17 280.913 1391.71 285.444C1391.03 286.702 1390.61 287.486 1390.61 287.486C1390.61 287.486 1374.56 281.104 1360.26 275.123C1351.76 271.559 1343.85 268.158 1340.37 266.344C1338.12 265.209 1335.96 263.917 1333.89 262.478C1329.23 259.205 1325.97 255.476 1324.77 251.046C1323.58 246.615 1324.51 241.218 1328.35 234.918C1329.35 233.302 1330.66 231.9 1332.2 230.792C1333.74 229.685 1335.49 228.893 1337.34 228.463C1339.33 227.972 1341.39 227.773 1343.43 227.87L1344.12 227.916C1344.85 227.916 1345.58 228.044 1346.32 228.162L1346.97 228.271L1347.71 228.417L1348.93 228.691H1348.98L1349.63 228.864L1349.93 228.955C1350.18 229.028 1350.44 229.101 1350.67 229.183L1351.44 229.429L1352.2 229.685C1352.45 229.785 1352.71 229.876 1352.96 229.985C1354.23 230.482 1355.47 231.048 1356.68 231.681C1356.9 231.781 1357.12 231.9 1357.33 232.019C1357.54 232.137 1357.96 232.356 1358.24 232.538L1359.03 233.012H1359.09C1360.13 233.641 1361.18 234.334 1362.22 235.091C1362.49 235.282 1362.76 235.474 1363.02 235.674C1364.34 236.659 1365.66 237.762 1366.97 238.957C1382.41 253.07 1400.59 267.62 1401.05 267.62C1401.14 267.666 1401.09 267.784 1400.95 268.076Z" fill="#FFCD4C"/>
<path d="M1360.26 275.123C1351.76 271.559 1343.85 268.158 1340.37 266.344C1338.12 265.209 1335.96 263.917 1333.89 262.478C1329.23 259.205 1325.97 255.476 1324.77 251.046C1323.58 246.615 1324.51 241.217 1328.35 234.918C1329.35 233.302 1330.66 231.9 1332.2 230.792C1333.74 229.685 1335.49 228.893 1337.34 228.463C1337.06 233.404 1335.37 238.318 1332.53 241.646C1331.06 243.375 1330.28 245.591 1330.36 247.861C1330.44 250.131 1331.36 252.29 1332.94 253.917C1335.47 256.652 1339.78 258.421 1345.53 257.664C1347.9 257.354 1350.23 258.448 1352.31 260.345C1356.25 263.855 1359.33 270.136 1360.26 275.123Z" fill="#FCC71F"/>
<path d="M1342.76 227.852C1350.05 227.952 1358.76 231.499 1367.04 239.011C1382.54 253.179 1400.77 267.784 1401.12 267.675" stroke="#2D4777" stroke-width="0.804435" stroke-linecap="round" stroke-linejoin="round"/>
<path d="M1124.97 234.426C1122.97 237.79 1120.8 241.172 1118.5 244.454C1112.59 252.933 1105.94 260.865 1099.72 266.526C1078.62 285.754 1071.59 265.87 1073.57 257.738C1075.15 251.237 1092.35 227.15 1102.25 213.785C1104.73 210.439 1106.75 207.777 1107.95 206.209C1113.99 198.423 1121.46 194.357 1131.53 197.42C1140.65 200.191 1135.25 217.094 1124.97 234.426Z" fill="#C3DCF8"/>
<path d="M1124.97 234.425C1123.32 232.976 1121.81 231.384 1120.45 229.666C1115.16 223.065 1111.81 215.79 1102.22 213.794C1104.7 210.448 1106.71 207.785 1107.92 206.217C1113.95 198.432 1121.43 194.365 1131.49 197.429C1140.65 200.191 1135.25 217.094 1124.97 234.425Z" fill="#D0E5F7"/>
<path d="M1085.55 339.516C1079.42 360.713 1064.4 402.696 1064.58 403.517C1064.64 403.891 1064.96 408.431 1065.29 413.463C1065.74 420.046 1066.21 427.476 1066.21 427.476C1066.21 427.476 1024.5 440.686 1020.92 439.729C1017.35 438.772 1018.03 433.666 1023.54 429.536C1024.7 428.625 1026.38 427.239 1028.33 425.543C1035.55 419.216 1046.25 409.032 1046.25 409.032C1046.25 409.032 1055.81 328.001 1057.39 320.516C1058.97 313.031 1065.52 305.099 1075.3 305.929C1085.41 306.786 1091.66 318.319 1085.55 339.516Z" fill="#FEBD9D"/>
<path d="M1066.2 427.476C1066.2 427.476 1024.49 440.687 1020.91 439.729C1017.34 438.772 1018.02 433.667 1023.53 429.537C1024.69 428.625 1026.37 427.239 1028.32 425.543C1035.95 427.121 1044.12 424.559 1048.37 421.377C1053.33 417.522 1059.09 414.819 1065.22 413.463C1065.71 420.037 1066.2 427.476 1066.2 427.476Z" fill="#6792E1"/>
<path d="M1226.43 230.934C1226.63 229.393 1226.53 227.214 1222.11 224.862L1220.65 231.499C1220.65 231.499 1226.08 233.623 1226.43 230.934Z" fill="#A7CAF0"/>
<path d="M1205.71 224.087C1207.13 217.349 1207.75 216.729 1207.54 213.456C1207.33 210.183 1206.92 206.272 1212.32 199.717C1217.73 193.162 1220.92 188.011 1221.99 188.54C1223.05 189.069 1222.34 193.791 1220.3 198.35C1220.3 198.35 1234.66 190.144 1237.68 188.987C1240.7 187.829 1238.74 193.326 1232.71 196.28C1232.71 196.28 1242.2 190.555 1244.51 191.029C1246.81 191.503 1242.56 194.84 1239.27 196.982C1239.27 196.982 1245.49 193.071 1246.72 194.356C1247.95 195.642 1244.52 198.377 1241.66 200.091C1241.66 200.091 1245.39 198.149 1246.01 199.115C1246.63 200.082 1246.01 201.158 1242.36 203.464C1238.72 205.771 1230.75 209.673 1224.64 216.675L1223.05 233.997C1223.05 233.997 1208.72 236.322 1205.71 224.087Z" fill="#FEBD9D"/>
<path d="M1214.58 196.955C1218.65 191.776 1221.11 188.093 1222.02 188.54C1223.09 189.077 1222.38 193.791 1220.34 198.349C1220.34 198.349 1234.7 190.144 1237.71 188.986C1240.73 187.828 1238.78 193.326 1232.75 196.28C1232.75 196.28 1242.24 190.554 1244.54 191.029C1246.85 191.503 1242.59 194.839 1239.31 196.982C1239.31 196.982 1245.53 193.071 1246.76 194.356C1247.99 195.642 1244.56 198.377 1241.7 200.091C1241.7 200.091 1245.43 198.149 1246.05 199.115C1246.67 200.082 1246.05 201.157 1242.4 203.464" stroke="#EF8A66" stroke-width="0.804435" stroke-linecap="round" stroke-linejoin="round"/>
<path d="M1221.4 209.819C1222.02 204.941 1225.28 203.327 1228.02 202.616" stroke="#EF8A66" stroke-width="0.804435" stroke-linecap="round" stroke-linejoin="round"/>
<path d="M1227.75 197.812C1231.67 197.985 1235.78 201.604 1236.05 202.935" stroke="#EF8A66" stroke-width="0.804435" stroke-linecap="round" stroke-linejoin="round"/>
<path d="M1229.7 198.158C1229.76 198.158 1235.08 194.876 1235.08 194.876" stroke="#EF8A66" stroke-width="0.804435" stroke-linecap="round" stroke-linejoin="round"/>
<path d="M1240.29 196.289L1233.6 200.182" stroke="#EF8A66" stroke-width="0.804435" stroke-linecap="round" stroke-linejoin="round"/>
<path d="M1242.47 199.58L1237.41 202.415" stroke="#EF8A66" stroke-width="0.804435" stroke-linecap="round" stroke-linejoin="round"/>
<path d="M1193.88 289.255C1200.67 296.102 1213.65 291.944 1218.25 273.756C1222.84 255.568 1226.45 230.907 1226.45 230.907C1218.9 229.245 1211.84 225.807 1205.88 220.878C1199.24 238.902 1185.06 280.357 1193.88 289.255Z" fill="#C3DCF8"/>
<path d="M1205.85 220.887C1201.47 232.857 1193.73 255.166 1191.62 271.413" stroke="#6792E1" stroke-width="0.804435" stroke-linecap="round" stroke-linejoin="round"/>
<path d="M1060.83 311.636C1056.96 330.691 1050.23 345.998 1043.18 362.6C1036.12 379.202 1028.88 399.979 1028.88 403.216V417.903C1028.88 417.903 981.784 425.908 979.65 425.908C977.517 425.908 976.004 421.349 980.562 418.095C981.702 417.292 984.017 415.542 986.862 413.372C995.505 406.808 1008.97 396.351 1008.97 396.351C1008.97 396.351 1025.1 329.168 1028.81 307.543C1034.86 272.634 1066.05 285.808 1060.83 311.636Z" fill="#FEBD9D"/>
<path d="M1054.57 334.182C1056.19 329.542 1057.66 324.783 1058.94 319.787C1065.99 321.227 1074.44 322.421 1085.01 324.299" stroke="#EF8A66" stroke-width="0.804435" stroke-linecap="round" stroke-linejoin="round"/>
<path d="M1028.88 404.392V417.885C1028.88 417.885 981.784 425.89 979.65 425.89C977.517 425.89 976.004 421.331 980.562 418.077C981.702 417.274 984.017 415.524 986.862 413.354C995.413 415.314 1005.51 412.059 1010.96 409.607C1016.65 407.014 1022.69 405.258 1028.88 404.392Z" fill="#6792E1"/>
<path d="M1082.27 274.849C1091.13 274.849 1098.31 268.42 1098.31 260.49C1098.31 252.56 1091.13 246.131 1082.27 246.131C1073.41 246.131 1066.23 252.56 1066.23 260.49C1066.23 268.42 1073.41 274.849 1082.27 274.849Z" fill="#C3DCF8"/>
<path d="M1184.19 204.795C1183.6 205.163 1182.99 205.495 1182.37 205.789C1172.44 210.557 1167.13 209.18 1166.14 204.485C1165.14 199.79 1154.75 203.327 1154.14 195.031C1153.53 186.734 1157.21 184.026 1156.52 179.796C1156.52 179.796 1157 178.702 1157.74 177.407C1159.3 174.672 1162.02 171.162 1164.04 174.745C1167.04 180.051 1168.9 179.486 1174.43 180.106C1179.97 180.726 1182.51 184.564 1180.82 187.336C1178.75 190.709 1179.85 192.168 1185.89 192.724C1191.33 193.225 1192.16 200.017 1184.19 204.795Z" fill="#DD6819"/>
<path d="M1184.19 204.795C1183.6 205.164 1182.99 205.495 1182.37 205.789C1172.44 210.557 1167.13 209.18 1166.14 204.485C1165.14 199.79 1154.75 203.327 1154.14 195.031C1153.53 186.734 1157.21 184.027 1156.52 179.796C1156.52 179.796 1157 178.702 1157.74 177.408C1165.03 179.65 1167.11 183.48 1166.4 186.789C1165.49 191.001 1169.2 196.535 1178.42 195.778C1183.04 195.395 1184.2 200.072 1184.19 204.795Z" fill="#CC5E0D"/>
<path d="M1179.03 322.768C1175.46 327.726 1170.65 331.661 1165.08 334.182C1165.08 334.182 1165.08 332.815 1164.76 330.535C1163.69 321.765 1159.15 299.538 1140.02 288.37L1138.68 288.123H1138.56L1129.04 286.355C1129.04 286.355 1126.56 276.454 1124.77 268.695C1122.99 260.937 1118.63 254.008 1118.46 245.821C1118.46 245.365 1118.46 244.909 1118.46 244.462C1118.53 239.138 1119.65 234.051 1120.42 229.666C1120.76 227.858 1120.99 226.031 1121.11 224.196C1121.36 218.561 1116.92 212.252 1116.5 208.323C1116.07 204.394 1116.5 196.115 1126.82 196.991C1128.51 197.127 1130.05 197.264 1131.49 197.401C1132.93 197.538 1134.46 197.711 1135.77 197.875C1136.23 197.93 1136.68 198.003 1137.14 198.075C1138.96 198.322 1140.77 198.7 1142.54 199.206C1143.96 199.614 1145.33 200.183 1146.63 200.902C1150.63 203.135 1159.79 200.282 1160.91 199.926H1161.02C1163.01 199.799 1164.77 199.653 1166.34 199.516C1167.91 199.379 1169.21 199.27 1170.39 199.151C1173.88 198.787 1175.93 198.486 1177 198.358C1177.62 198.358 1178.53 206.919 1179.49 218.415C1180.02 224.67 1180.56 231.79 1181.09 238.874C1182.16 253.598 1183.18 268.185 1183.77 274.43C1183.86 275.442 1183.95 276.253 1184.02 276.791C1184.96 283.456 1190.53 306.54 1179.03 322.768Z" fill="#C3DCF8"/>
<path d="M1179.54 218.407C1176.65 220.18 1173.94 222.209 1171.42 224.47C1161.24 233.386 1153.94 243.743 1138.59 240.789C1133.57 239.937 1128.87 237.731 1125 234.407C1123.36 232.958 1121.85 231.366 1120.49 229.648C1120.83 227.841 1121.06 226.014 1121.18 224.178C1121.44 218.544 1117 212.235 1116.57 208.305C1116.14 204.376 1116.57 196.098 1126.9 196.973C1128.58 197.11 1130.13 197.247 1131.57 197.383C1133.01 197.52 1134.54 197.693 1135.84 197.857C1138.13 198.119 1140.4 198.564 1142.62 199.188C1144.04 199.596 1145.41 200.165 1146.7 200.884C1150.7 203.118 1159.86 200.264 1160.99 199.909H1161.1C1165 199.644 1168.07 199.371 1170.47 199.134C1173.95 198.769 1176 198.468 1177.07 198.341C1177.67 198.35 1178.57 206.91 1179.54 218.407Z" fill="#D0E5F7"/>
<path d="M1155.94 264.921C1157.17 273.965 1158.97 282.923 1161.31 291.743L1138.68 288.096H1138.56C1138.56 288.096 1137.92 273.509 1133.63 260.162C1131.39 253.115 1130.46 245.717 1130.89 238.336C1131.3 232.173 1132.32 226.066 1133.93 220.102C1135.64 212.894 1136.72 205.552 1137.15 198.158C1138.19 198.304 1139.15 198.468 1140.05 198.659L1140.67 198.796C1141.34 198.942 1141.97 199.106 1142.56 199.288C1143.98 199.696 1145.35 200.265 1146.65 200.984C1150.65 203.218 1159.81 200.364 1160.93 200.008H1161.04C1162.28 199.917 1163.44 199.844 1164.51 199.753L1165.14 199.698L1166.36 199.598C1164.64 204.859 1157.55 226.694 1155.23 238.208C1154.99 239.485 1154.79 240.634 1154.66 241.609C1153.99 246.86 1154.69 255.822 1155.94 264.921Z" fill="white"/>
<path d="M1166.42 199.507C1164.71 204.768 1157.61 226.603 1155.3 238.117C1150.28 241.102 1144.31 242.058 1138.6 240.789C1135.96 240.296 1133.39 239.466 1130.95 238.318C1131.37 232.155 1132.38 226.048 1133.99 220.084C1135.7 212.876 1136.78 205.534 1137.22 198.14C1138.26 198.286 1139.21 198.45 1140.12 198.641L1140.74 198.778C1141.41 198.924 1142.03 199.088 1142.62 199.27C1144.05 199.678 1145.42 200.247 1146.71 200.966C1150.71 203.2 1159.87 200.346 1161 199.99H1161.1C1162.34 199.899 1163.5 199.826 1164.57 199.735L1165.21 199.68L1166.42 199.507Z" fill="#F9F9F9"/>
<path d="M1165.58 225.946L1170.87 238.008C1169.36 240.588 1160.02 257.518 1155.94 264.921C1154.69 255.804 1153.99 246.86 1154.68 241.518C1155.94 231.617 1164.47 205.351 1166.37 199.507C1167.91 199.388 1169.25 199.261 1170.43 199.142L1172.05 222.044C1170.87 222.828 1165.58 225.946 1165.58 225.946Z" fill="#A7CAF0"/>
<path d="M1133.95 220.048C1132 227.898 1128.16 243.114 1133.63 260.162C1129.05 253.494 1125.79 246.011 1124.03 238.118L1129.95 224.862L1126.93 220.887C1126.93 220.887 1130.22 211.77 1135.77 197.903C1136.23 197.958 1136.68 198.03 1137.14 198.103C1136.71 205.497 1135.64 212.839 1133.95 220.048Z" fill="#A7CAF0"/>
<path d="M1163.82 198.495C1166.04 197.839 1167.88 198.495 1167.83 199.407C1167.72 201.841 1163.48 216.538 1161.64 217.285C1161.31 217.422 1159.2 210.657 1156.81 209.837C1154.42 209.016 1150.01 210.138 1150.11 210.083C1150.21 210.028 1159.05 196.964 1163.82 198.495Z" fill="#683F1D"/>
<path d="M1142.72 197.966C1146.46 203.017 1145.95 206.81 1144.58 206.983C1143.22 207.156 1141.55 207.028 1139.9 208.761C1138.25 210.493 1135.63 213.319 1135.43 212.954C1134.46 211.131 1136.12 199.279 1136.84 198.048C1137.75 196.535 1141.7 196.599 1142.72 197.966Z" fill="#683F1D"/>
<path d="M1145.61 215.653C1145.15 225.29 1142.92 228.982 1141.57 234.927C1140.22 240.871 1141.41 248.967 1143.59 258.293C1145.77 267.62 1145.65 272.643 1145.61 273.664C1145.56 274.685 1143.41 280.539 1148.12 282.781" stroke="#DDDDDD" stroke-width="1.07258" stroke-linecap="round" stroke-linejoin="round"/>
<path d="M1163.83 198.495C1163.83 198.495 1149.34 213.292 1145.95 211.095C1142.56 208.897 1141.26 200.501 1141.63 197.684C1141.77 196.772 1142.02 195.04 1142.31 193.125C1142.9 189.278 1143.64 184.592 1143.76 183.58C1144.16 175.374 1157.61 168.309 1161.46 177.398C1160.9 184.517 1161.71 191.677 1163.83 198.495Z" fill="#FEBD9D"/>
<path d="M1142.31 193.089C1142.9 189.242 1143.64 184.555 1143.76 183.543L1152.53 180.489C1153.45 187.974 1149.64 192.223 1142.31 193.089Z" fill="#F4A789"/>
<path d="M1118.5 244.463C1118.57 239.138 1119.69 234.051 1120.45 229.666C1120.79 227.858 1121.03 226.031 1121.15 224.196C1121.26 221.461 1120.31 218.625 1119.22 215.945" stroke="#6792E1" stroke-width="0.804435" stroke-linecap="round" stroke-linejoin="round"/>
<path d="M1164.28 292.399C1158.7 291.068 1140.02 288.379 1140.02 288.379" stroke="#6792E1" stroke-width="0.804435" stroke-linecap="round" stroke-linejoin="round"/>
<path d="M1048.93 284.048C1039.17 284.048 1024.58 299.784 1034.64 308.91C1046.08 319.24 1058.99 319.686 1085.01 324.309C1085.01 324.309 1098.3 284.076 1048.93 284.048Z" fill="#FEBD9D"/>
<path d="M1164.76 330.508C1153.21 333.243 1128.59 331.018 1113.84 329.377C1110 328.94 1106.81 328.557 1104.73 328.311C1103.1 328.119 1102.12 328.01 1101.99 328.028C1073.34 330.69 1069.78 324.427 1057.69 308.946C1045.6 293.466 1048.77 284.996 1048.93 284.048C1071.3 282.225 1109.65 283.902 1129.08 286.355L1140.02 288.342C1144.78 291.121 1148.97 294.771 1152.38 299.1C1161.32 310.359 1163.98 324.062 1164.76 330.508Z" fill="#FFCD4C"/>
<path d="M1085.55 323.67C1094.83 326.405 1104.7 328.311 1104.7 328.311" stroke="#E6AC17" stroke-width="0.804435" stroke-linecap="round" stroke-linejoin="round"/>
<path d="M1164.76 330.508C1153.21 333.243 1128.59 331.019 1113.84 329.378C1120.73 324.272 1128.06 324.473 1136.2 325.996C1152.97 329.123 1156.17 323.115 1152.14 316.724C1148.61 311.089 1147.09 303.121 1152.38 299.101C1161.32 310.36 1163.98 324.063 1164.76 330.508Z" fill="#FCC71F"/>
<path d="M1205.62 291.114C1195.46 296.338 1188.46 285.07 1183.85 274.439C1182.94 272.297 1182.08 270.2 1181.34 268.249C1178.19 260.044 1173.14 240.743 1171.45 224.488C1170.07 211.259 1170.98 200.009 1177.03 198.35C1184.24 196.371 1192.25 199.562 1196.95 212.991C1197.88 215.729 1198.62 218.528 1199.16 221.37C1203.49 243.606 1216.2 285.672 1205.62 291.114Z" fill="#C3DCF8"/>
<path d="M1183.81 274.44C1182.9 272.297 1182.05 270.2 1181.31 268.249C1178.86 261.867 1175.23 248.739 1172.97 235.565" stroke="#6792E1" stroke-width="0.804435" stroke-linecap="round" stroke-linejoin="round"/>
<path d="M1196.96 212.991C1190.8 213.351 1184.82 215.21 1179.54 218.407C1176.65 220.18 1173.94 222.209 1171.42 224.47C1170.07 211.259 1170.98 200.009 1177.03 198.35C1184.25 196.371 1192.26 199.562 1196.96 212.991Z" fill="#D0E5F7"/>
<path d="M1165.3 169.522C1161.81 176.222 1135.02 168.61 1135.02 168.61C1130.67 167.343 1128.49 165.629 1128.64 162.994C1128.79 160.359 1132.88 160.259 1131.82 157.752C1131.29 156.528 1130.98 155.219 1130.91 153.886C1130.84 151.479 1131.74 148.717 1135.27 146.483C1141.47 142.544 1149.98 147.832 1149.98 147.832C1149.98 147.832 1153.87 144.578 1160.92 148.197C1164.49 150.02 1166.46 153.758 1167.07 157.861C1167.67 161.837 1167.05 165.902 1165.3 169.522Z" fill="#DD6819"/>
<path d="M1165.3 169.522C1161.81 176.223 1135.02 168.61 1135.02 168.61C1130.67 167.343 1128.49 165.629 1128.64 162.994C1128.79 160.359 1132.88 160.259 1131.82 157.752C1131.29 156.529 1130.98 155.219 1130.91 153.886C1136.68 147.796 1149.87 147.049 1151.29 152.728C1152.92 159.192 1155.99 169.458 1167.08 157.861C1167.67 161.838 1167.05 165.903 1165.3 169.522Z" fill="#CC5E0D"/>
<path d="M1149.04 151.288C1154.09 147.86 1158.79 150.449 1160.1 154.223C1162.01 159.693 1155.54 165.428 1162.01 170.306" stroke="#FF79A0" stroke-width="0.804435" stroke-linecap="round" stroke-linejoin="round"/>
<path d="M1134.32 154.889C1134.77 149.765 1142.69 144.86 1150 147.796" stroke="#FF79A0" stroke-width="0.804435" stroke-linecap="round" stroke-linejoin="round"/>
<path d="M1161.46 177.363C1161.46 177.363 1154.12 184.492 1146.13 186.79C1138.13 189.087 1131.54 184.319 1132.18 173.005C1132.18 172.813 1132.18 172.622 1132.18 172.439C1132.29 171.063 1132.45 169.704 1132.67 168.428C1134.36 158.673 1139.42 151.616 1147.84 154.26C1150.42 155.063 1148 164.17 1149.74 168.273C1149.84 168.526 1149.97 168.767 1150.12 168.993C1150.69 169.834 1151.46 170.525 1152.36 171.008C1155.21 172.585 1159.09 172.23 1160.34 169.823C1162.16 166.34 1167.12 164.654 1168.84 170.516C1170.13 174.719 1165.51 178.53 1161.46 177.363Z" fill="#FEBD9D"/>
<path d="M1152.4 171.008C1151.59 171.975 1150.52 172.698 1149.33 173.095C1146.96 174.007 1144.69 173.706 1144.24 172.512C1143.79 171.318 1145.35 169.631 1147.72 168.756C1148.38 168.502 1149.07 168.339 1149.77 168.272C1149.87 168.525 1150 168.767 1150.16 168.993C1150.73 169.834 1151.5 170.525 1152.4 171.008Z" fill="#F4AF90"/>
<path d="M1134.61 172.457C1134.2 173.059 1133.29 173.223 1132.18 173.004C1132.18 172.813 1132.18 172.622 1132.18 172.439C1132.29 171.063 1132.45 169.704 1132.67 168.428C1134.41 169.786 1135.25 171.5 1134.61 172.457Z" fill="#F4AF90"/>
<path d="M1136.1 166.076C1136.1 166.276 1136.16 166.472 1136.27 166.638C1136.38 166.805 1136.54 166.934 1136.72 167.011C1136.91 167.087 1137.11 167.108 1137.31 167.068C1137.5 167.029 1137.68 166.933 1137.82 166.792C1137.97 166.65 1138.06 166.47 1138.1 166.273C1138.14 166.077 1138.12 165.874 1138.04 165.689C1137.97 165.504 1137.84 165.346 1137.67 165.235C1137.5 165.123 1137.31 165.064 1137.11 165.064C1136.84 165.064 1136.58 165.171 1136.39 165.36C1136.2 165.55 1136.1 165.808 1136.1 166.076Z" fill="#683F1D"/>
<path d="M1141.7 167.616C1141.7 167.885 1141.81 168.142 1142 168.332C1142.19 168.522 1142.45 168.628 1142.72 168.628C1142.98 168.628 1143.24 168.522 1143.43 168.332C1143.62 168.142 1143.73 167.885 1143.73 167.616C1143.73 167.348 1143.62 167.091 1143.43 166.901C1143.24 166.711 1142.98 166.604 1142.72 166.604C1142.45 166.604 1142.19 166.711 1142 166.901C1141.81 167.091 1141.7 167.348 1141.7 167.616Z" fill="#683F1D"/>
<path d="M1161.64 173.141C1162.73 170.406 1165.12 169.111 1166.91 170.406" stroke="#EF8A66" stroke-width="0.804435" stroke-linecap="round" stroke-linejoin="round"/>
<path d="M1162.01 172.357C1164.91 170.142 1166.91 175.092 1162.26 175.092" stroke="#EF8A66" stroke-width="0.804435" stroke-linecap="round" stroke-linejoin="round"/>
<path d="M1133.41 161.18C1133.13 162.502 1138.8 164.307 1139.33 161.663C1139.72 159.758 1133.71 159.758 1133.41 161.18Z" fill="#DD6819"/>
<path d="M1142.76 162.028C1142.14 164.325 1148.58 165.529 1149.27 163.979C1149.86 162.666 1143.45 159.42 1142.76 162.028Z" fill="#DD6819"/>
<path d="M1136.91 172.275C1135.66 170.306 1136.32 168.847 1137.96 168.847C1139.98 168.847 1140.64 167.023 1140.55 164.471" stroke="#EF8A66" stroke-width="0.804435" stroke-linecap="round" stroke-linejoin="round"/>
<path d="M1136.87 174.281C1139.47 174.6 1142.93 172.996 1142.93 172.996C1142.93 172.996 1142.76 177.554 1139.9 177.955C1137.04 178.356 1136.87 174.281 1136.87 174.281Z" fill="white" stroke="#EF8A66" stroke-width="0.804435" stroke-linecap="round" stroke-linejoin="round"/>
<path d="M1066.61 147.44C1063.94 145.726 1060.86 146.2 1059.96 148.562C1058.66 151.971 1061.11 154.269 1063.86 155.162L1066.61 147.44Z" fill="#F9F9F9" stroke="#DDDDDD" stroke-width="1.07258" stroke-linecap="round" stroke-linejoin="round"/>
<path d="M1098.86 170.306C1103.22 172.084 1105.58 173.114 1106.3 172.549C1107.02 171.984 1110.35 164.344 1110 163.523C1109.64 162.703 1102.81 159.01 1102.81 159.01L1098.86 170.306Z" fill="#DDDDDD" stroke="#EDEDED" stroke-width="1.07258" stroke-linecap="round" stroke-linejoin="round"/>
<path d="M1074.68 202.771C1075.36 199.863 1085.14 197.502 1088.44 196.955V206.774C1088.44 206.774 1078.1 208.925 1074.68 202.771Z" fill="#A7CAF0"/>
<path d="M1078.82 207.138C1080.5 199.006 1081.64 197.11 1081.11 196.089C1080.58 195.068 1077.16 191.731 1076.75 188.312C1076.34 184.893 1079.96 179.149 1081.24 177.372C1082.52 175.594 1084.29 174.235 1089.88 175.12C1095.47 176.004 1097.66 176.77 1097.72 179.532C1097.79 182.295 1095.25 200.975 1095.25 200.975C1095.25 200.975 1090.83 214.906 1078.82 207.138Z" fill="#FEBD9D"/>
<path d="M1085.77 166.386C1084.61 171.856 1081.57 181.018 1080.43 185.413C1079.29 189.807 1080.03 192.178 1083.67 192.916C1087.3 193.655 1089.52 187.364 1090.26 183.234C1091 179.104 1092.99 168.847 1092.99 168.847L1085.77 166.386Z" fill="#F9F9F9" stroke="#DDDDDD" stroke-width="1.07258" stroke-linecap="round" stroke-linejoin="round"/>
<path d="M1069.55 268.75C1081.95 278.998 1089.77 257.646 1092.65 238.911C1094.43 226.345 1095.31 213.667 1095.25 200.975C1095.25 200.975 1084.91 203.856 1074.68 202.798C1071.52 217.987 1059.44 260.399 1069.55 268.75Z" fill="#C3DCF8"/>
<path d="M1086.46 261.293C1089.37 255.048 1091.44 246.751 1092.65 238.911C1094.43 226.345 1095.31 213.667 1095.25 200.975" stroke="#6792E1" stroke-width="0.804435" stroke-linecap="round" stroke-linejoin="round"/>
<path d="M1100.57 170.524C1099.15 171.09 1095.91 171.254 1091.69 170.752C1084.53 169.857 1077.57 167.732 1071.13 164.471L1079.94 145.325C1086.56 147.238 1092.82 150.239 1098.46 154.205C1101.65 156.439 1103.93 158.554 1104.73 159.949C1105.52 161.344 1103.92 169.184 1100.57 170.524Z" fill="#F9F9F9" stroke="#DDDDDD" stroke-width="1.07258" stroke-linecap="round" stroke-linejoin="round"/>
<path d="M1100.57 170.525C1099.15 171.09 1095.91 171.254 1091.69 170.753C1095.93 165.975 1098.93 160.788 1098.46 154.251C1101.65 156.485 1103.93 158.6 1104.73 159.995C1105.52 161.39 1103.92 169.185 1100.57 170.525Z" fill="#F9F9F9" stroke="#EDEDED" stroke-width="1.07258" stroke-linecap="round" stroke-linejoin="round"/>
<path d="M1072.93 165.857C1075.28 165.164 1082.51 151.069 1081.47 146.93C1080.43 142.791 1071.59 133.254 1071.59 133.254C1071.59 133.254 1060.3 152.819 1058.21 167.288C1058.21 167.306 1069.51 166.869 1072.93 165.857Z" fill="#DDDDDD" stroke="#EDEDED" stroke-width="1.07258" stroke-linecap="round" stroke-linejoin="round"/>
<path d="M1059.16 139.983L1055.69 134.257" stroke="#DDDDDD" stroke-width="1.07258" stroke-linecap="round" stroke-linejoin="round"/>
<path d="M1045.57 143.967L1051.7 146.447" stroke="#DDDDDD" stroke-width="1.07258" stroke-linecap="round" stroke-linejoin="round"/>
<path d="M1044.85 156.33L1051.19 155.19" stroke="#DDDDDD" stroke-width="1.07258" stroke-linecap="round" stroke-linejoin="round"/>
<path d="M1075.77 184.082C1078.3 182.778 1085.29 190.464 1081.04 190.956C1078.52 191.266 1072.04 185.996 1075.77 184.082Z" fill="#FEBD9D" stroke="#EF8A66" stroke-width="0.804435" stroke-linecap="round" stroke-linejoin="round"/>
<path d="M1076.32 179.815C1078.86 178.511 1086.35 186.26 1082.14 186.789C1079.62 187.099 1072.59 181.729 1076.32 179.815Z" fill="#FEBD9D" stroke="#EF8A66" stroke-width="0.804435" stroke-linecap="round" stroke-linejoin="round"/>
<path d="M1077.37 175.484C1080.1 174.08 1088.19 182.422 1083.62 182.987C1080.91 183.316 1073.35 177.526 1077.37 175.484Z" fill="#FEBD9D" stroke="#EF8A66" stroke-width="0.804435" stroke-linecap="round" stroke-linejoin="round"/>
<path d="M1078.9 171.6C1081.55 170.051 1089.45 178.675 1085.43 180.471C1083.55 181.319 1075.02 173.88 1078.9 171.6Z" fill="#FEBD9D" stroke="#EF8A66" stroke-width="0.804435" stroke-linecap="round" stroke-linejoin="round"/>
<path d="M1090.25 180.325C1089.6 179.477 1083.59 176.624 1084.29 174.344C1085 172.065 1092.17 174.408 1095.53 175.484C1098.88 176.56 1098.05 178.648 1097.21 185.412C1097.21 185.412 1094.25 185.586 1090.25 180.325Z" fill="#FEBD9D"/>
<path d="M1090.25 180.325C1089.6 179.477 1083.59 176.624 1084.29 174.344C1085 172.065 1092.17 174.408 1095.53 175.484C1098.88 176.56 1098.05 178.648 1097.21 185.412" stroke="#EF8A66" stroke-width="0.804435" stroke-linecap="round" stroke-linejoin="round"/>
</g>
</g>
<defs>
<clipPath id="clip0_1_3617">
<rect width="1366" height="511" fill="white"/>
</clipPath>
<clipPath id="clip1_1_3617">
<rect width="574" height="425" fill="white" transform="translate(-179 40)"/>
</clipPath>
<clipPath id="clip2_1_3617">
<rect width="592.065" height="399" fill="white" transform="translate(964.935 53)"/>
</clipPath>
</defs>
</svg>
